#include <stdint.h>

const uint8_t midifile[] = {
0x4d,0x54,0x68,0x64,0x00,0x00,0x00,0x06,0x00,0x01,0x00,0x02,0x04,0x00,0x4d,0x54,
0x72,0x6b,0x00,0x00,0x0a,0xa9,0x00,0xff,0x54,0x05,0x00,0x00,0x00,0x00,0x00,0x00,
0xff,0x58,0x04,0x04,0x02,0x18,0x08,0x00,0xff,0x59,0x02,0x01,0x01,0x00,0xff,0x51,
0x03,0x07,0xa1,0x1f,0x00,0xff,0x51,0x03,0x05,0xe8,0x18,0x00,0xff,0x51,0x03,0x05,
0xe8,0x4b,0x90,0x00,0xff,0x51,0x03,0x05,0xe8,0x4b,0x82,0x00,0xff,0x51,0x03,0x05,
0xed,0x75,0x82,0x00,0xff,0x51,0x03,0x05,0xf2,0x13,0x82,0x00,0xff,0x51,0x03,0x05,
0xf7,0x4f,0x82,0x00,0xff,0x51,0x03,0x05,0xfb,0xfc,0x82,0x00,0xff,0x51,0x03,0x06,
0x01,0x49,0x82,0x00,0xff,0x51,0x03,0x06,0x06,0x06,0x82,0x00,0xff,0x51,0x03,0x06,
0x06,0x06,0x82,0x00,0xff,0x51,0x03,0x05,0xe8,0x4b,0xf0,0x00,0xff,0x51,0x03,0x05,
0xe8,0x4b,0x82,0x00,0xff,0x51,0x03,0x05,0xf2,0x13,0x82,0x00,0xff,0x51,0x03,0x05,
0xfb,0xfc,0x82,0x00,0xff,0x51,0x03,0x06,0x01,0x49,0x82,0x00,0xff,0x51,0x03,0x06,
0x0b,0x65,0x82,0x00,0xff,0x51,0x03,0x06,0x10,0x32,0x82,0x00,0xff,0x51,0x03,0x06,
0x1a,0x80,0x82,0x00,0xff,0x51,0x03,0x06,0x20,0x04,0x84,0x00,0xff,0x51,0x03,0x05,
0xe8,0x4b,0xee,0x00,0xff,0x51,0x03,0x05,0xe8,0x4b,0x82,0x00,0xff,0x51,0x03,0x05,
0xf2,0x13,0x82,0x00,0xff,0x51,0x03,0x05,0xfb,0xfc,0x82,0x00,0xff,0x51,0x03,0x06,
0x01,0x49,0x82,0x00,0xff,0x51,0x03,0x06,0x0b,0x65,0x82,0x00,0xff,0x51,0x03,0x06,
0x10,0x32,0x82,0x00,0xff,0x51,0x03,0x06,0x1a,0x80,0x82,0x00,0xff,0x51,0x03,0x06,
0x20,0x04,0x84,0x00,0xff,0x51,0x03,0x05,0xe8,0x4b,0xce,0x00,0xff,0x51,0x03,0x05,
0xe8,0x4b,0x82,0x00,0xff,0x51,0x03,0x05,0xed,0x75,0x82,0x00,0xff,0x51,0x03,0x05,
0xf2,0x13,0x82,0x00,0xff,0x51,0x03,0x05,0xf7,0x4f,0x82,0x00,0xff,0x51,0x03,0x05,
0xfb,0xfc,0x82,0x00,0xff,0x51,0x03,0x06,0x01,0x49,0x82,0x00,0xff,0x51,0x03,0x06,
0x06,0x06,0x82,0x00,0xff,0x51,0x03,0x06,0x06,0x06,0x82,0x00,0xff,0x51,0x03,0x05,
0xe8,0x4b,0x82,0xf0,0x00,0xff,0x51,0x03,0x05,0xe8,0x4b,0x82,0x00,0xff,0x51,0x03,
0x05,0xf2,0x13,0x82,0x00,0xff,0x51,0x03,0x05,0xfb,0xfc,0x82,0x00,0xff,0x51,0x03,
0x06,0x01,0x49,0x82,0x00,0xff,0x51,0x03,0x06,0x0b,0x65,0x82,0x00,0xff,0x51,0x03,
0x06,0x10,0x32,0x82,0x00,0xff,0x51,0x03,0x06,0x1a,0x80,0x82,0x00,0xff,0x51,0x03,
0x06,0x20,0x04,0x84,0x00,0xff,0x51,0x03,0x05,0xe8,0x4b,0xae,0x00,0xff,0x51,0x03,
0x05,0xe8,0x4b,0x82,0x00,0xff,0x51,0x03,0x05,0xed,0x75,0x82,0x00,0xff,0x51,0x03,
0x05,0xf2,0x13,0x82,0x00,0xff,0x51,0x03,0x05,0xf7,0x4f,0x82,0x00,0xff,0x51,0x03,
0x05,0xfb,0xfc,0x82,0x00,0xff,0x51,0x03,0x06,0x01,0x49,0x82,0x00,0xff,0x51,0x03,
0x06,0x06,0x06,0x82,0x00,0xff,0x51,0x03,0x06,0x06,0x06,0x82,0x00,0xff,0x51,0x03,
0x05,0xe8,0x4b,0x90,0x00,0xff,0x51,0x03,0x05,0xe8,0x4b,0x82,0x00,0xff,0x51,0x03,
0x05,0xf2,0x13,0x82,0x00,0xff,0x51,0x03,0x05,0xfb,0xfc,0x82,0x00,0xff,0x51,0x03,
0x06,0x01,0x49,0x82,0x00,0xff,0x51,0x03,0x06,0x0b,0x65,0x82,0x00,0xff,0x51,0x03,
0x06,0x10,0x32,0x82,0x00,0xff,0x51,0x03,0x06,0x1a,0x80,0x82,0x00,0xff,0x51,0x03,
0x06,0x20,0x04,0x84,0x00,0xff,0x51,0x03,0x05,0xe8,0x4b,0x8e,0x00,0xff,0x51,0x03,
0x06,0x20,0x04,0x82,0x00,0xff,0x51,0x03,0x06,0x2a,0x89,0x82,0x00,0xff,0x51,0x03,
0x06,0x35,0x32,0x82,0x00,0xff,0x51,0x03,0x06,0x3a,0xe6,0x82,0x00,0xff,0x51,0x03,
0x06,0x45,0xc8,0x82,0x00,0xff,0x51,0x03,0x06,0x4a,0xf7,0x82,0x00,0xff,0x51,0x03,
0x06,0x56,0x11,0x82,0x00,0xff,0x51,0x03,0x06,0x5c,0x03,0x82,0x00,0xff,0x51,0x03,
0x05,0xe8,0x4b,0x82,0x00,0xff,0x51,0x03,0x05,0xe8,0x4b,0x8e,0x00,0xff,0x51,0x03,
0x05,0xe8,0x4b,0x82,0x00,0xff,0x51,0x03,0x05,0xed,0x75,0x82,0x00,0xff,0x51,0x03,
0x05,0xf2,0x13,0x82,0x00,0xff,0x51,0x03,0x05,0xf7,0x4f,0x82,0x00,0xff,0x51,0x03,
0x05,0xfb,0xfc,0x82,0x00,0xff,0x51,0x03,0x06,0x01,0x49,0x82,0x00,0xff,0x51,0x03,
0x06,0x06,0x06,0x82,0x00,0xff,0x51,0x03,0x06,0x06,0x06,0x82,0x00,0xff,0x51,0x03,
0x05,0xe8,0x4b,0xd0,0x00,0xff,0x51,0x03,0x05,0xe8,0x4b,0x82,0x00,0xff,0x51,0x03,
0x05,0xf2,0x13,0x82,0x00,0xff,0x51,0x03,0x05,0xfb,0xfc,0x82,0x00,0xff,0x51,0x03,
0x06,0x01,0x49,0x82,0x00,0xff,0x51,0x03,0x06,0x0b,0x65,0x82,0x00,0xff,0x51,0x03,
0x06,0x10,0x32,0x82,0x00,0xff,0x51,0x03,0x06,0x1a,0x80,0x82,0x00,0xff,0x51,0x03,
0x06,0x20,0x04,0x82,0x00,0xff,0x51,0x03,0x05,0xe8,0x4b,0x82,0x00,0xff,0x51,0x03,
0x05,0xe8,0x4b,0x8e,0x00,0xff,0x51,0x03,0x05,0xe8,0x4b,0x82,0x00,0xff,0x51,0x03,
0x05,0xed,0x75,0x82,0x00,0xff,0x51,0x03,0x05,0xf2,0x13,0x82,0x00,0xff,0x51,0x03,
0x05,0xf7,0x4f,0x82,0x00,0xff,0x51,0x03,0x05,0xfb,0xfc,0x82,0x00,0xff,0x51,0x03,
0x06,0x01,0x49,0x82,0x00,0xff,0x51,0x03,0x06,0x06,0x06,0x82,0x00,0xff,0x51,0x03,
0x06,0x06,0x06,0x82,0x00,0xff,0x51,0x03,0x05,0xe8,0x4b,0xd0,0x00,0xff,0x51,0x03,
0x05,0xe8,0x4b,0x82,0x00,0xff,0x51,0x03,0x05,0xf2,0x13,0x82,0x00,0xff,0x51,0x03,
0x05,0xfb,0xfc,0x82,0x00,0xff,0x51,0x03,0x06,0x01,0x49,0x82,0x00,0xff,0x51,0x03,
0x06,0x0b,0x65,0x82,0x00,0xff,0x51,0x03,0x06,0x10,0x32,0x82,0x00,0xff,0x51,0x03,
0x06,0x1a,0x80,0x82,0x00,0xff,0x51,0x03,0x06,0x20,0x04,0x82,0x00,0xff,0x51,0x03,
0x05,0xe8,0x4b,0x82,0x00,0xff,0x51,0x03,0x05,0xe8,0x4b,0xbe,0x00,0xff,0x51,0x03,
0x05,0xe8,0x4b,0x82,0x00,0xff,0x51,0x03,0x05,0xe8,0x4b,0xce,0x00,0xff,0x51,0x03,
0x05,0xe8,0x4b,0x82,0x00,0xff,0x51,0x03,0x05,0xf2,0x13,0x82,0x00,0xff,0x51,0x03,
0x05,0xfb,0xfc,0x82,0x00,0xff,0x51,0x03,0x06,0x01,0x49,0x82,0x00,0xff,0x51,0x03,
0x06,0x0b,0x65,0x82,0x00,0xff,0x51,0x03,0x06,0x10,0x32,0x82,0x00,0xff,0x51,0x03,
0x06,0x1a,0x80,0x82,0x00,0xff,0x51,0x03,0x06,0x20,0x04,0x82,0x00,0xff,0x59,0x02,
0xff,0x01,0x82,0x00,0xff,0x51,0x03,0x05,0xe8,0x4b,0x8e,0x00,0xff,0x51,0x03,0x05,
0xe8,0x4b,0x82,0x00,0xff,0x51,0x03,0x05,0xf2,0x13,0x82,0x00,0xff,0x51,0x03,0x05,
0xfb,0xfc,0x82,0x00,0xff,0x51,0x03,0x06,0x01,0x49,0x82,0x00,0xff,0x51,0x03,0x06,
0x0b,0x65,0x82,0x00,0xff,0x51,0x03,0x06,0x10,0x32,0x82,0x00,0xff,0x51,0x03,0x06,
0x1a,0x80,0x82,0x00,0xff,0x51,0x03,0x06,0x20,0x04,0x84,0x00,0xff,0x51,0x03,0x05,
0xe8,0x4b,0xee,0x00,0xff,0x51,0x03,0x05,0xe8,0x4b,0x82,0x00,0xff,0x51,0x03,0x05,
0xf2,0x13,0x82,0x00,0xff,0x51,0x03,0x05,0xfb,0xfc,0x82,0x00,0xff,0x51,0x03,0x06,
0x01,0x49,0x82,0x00,0xff,0x51,0x03,0x06,0x0b,0x65,0x82,0x00,0xff,0x51,0x03,0x06,
0x10,0x32,0x82,0x00,0xff,0x51,0x03,0x06,0x1a,0x80,0x82,0x00,0xff,0x51,0x03,0x06,
0x20,0x04,0x84,0x00,0xff,0x51,0x03,0x05,0xe8,0x4b,0x81,0xbe,0x00,0xff,0x59,0x02,
0x01,0x01,0x90,0x00,0xff,0x51,0x03,0x05,0xe8,0x4b,0x82,0x00,0xff,0x51,0x03,0x05,
0xed,0x75,0x82,0x00,0xff,0x51,0x03,0x05,0xf2,0x13,0x82,0x00,0xff,0x51,0x03,0x05,
0xf7,0x4f,0x82,0x00,0xff,0x51,0x03,0x05,0xfb,0xfc,0x82,0x00,0xff,0x51,0x03,0x06,
0x01,0x49,0x82,0x00,0xff,0x51,0x03,0x06,0x06,0x06,0x82,0x00,0xff,0x51,0x03,0x06,
0x06,0x06,0x82,0x00,0xff,0x51,0x03,0x05,0xe8,0x4b,0xd0,0x00,0xff,0x51,0x03,0x05,
0xe8,0x4b,0x82,0x00,0xff,0x51,0x03,0x05,0xf2,0x13,0x82,0x00,0xff,0x51,0x03,0x05,
0xfb,0xfc,0x82,0x00,0xff,0x51,0x03,0x06,0x01,0x49,0x82,0x00,0xff,0x51,0x03,0x06,
0x0b,0x65,0x82,0x00,0xff,0x51,0x03,0x06,0x10,0x32,0x82,0x00,0xff,0x51,0x03,0x06,
0x1a,0x80,0x82,0x00,0xff,0x51,0x03,0x06,0x20,0x04,0x82,0x00,0xff,0x51,0x03,0x05,
0xe8,0x4b,0x82,0x00,0xff,0x51,0x03,0x05,0xe8,0x4b,0xbe,0x00,0xff,0x51,0x03,0x05,
0xe8,0x4b,0x82,0x00,0xff,0x51,0x03,0x05,0xe8,0x4b,0xce,0x00,0xff,0x51,0x03,0x05,
0xe8,0x4b,0x82,0x00,0xff,0x51,0x03,0x05,0xed,0x75,0x82,0x00,0xff,0x51,0x03,0x05,
0xf2,0x13,0x82,0x00,0xff,0x51,0x03,0x05,0xf7,0x4f,0x82,0x00,0xff,0x51,0x03,0x05,
0xfb,0xfc,0x82,0x00,0xff,0x51,0x03,0x06,0x01,0x49,0x82,0x00,0xff,0x51,0x03,0x06,
0x06,0x06,0x82,0x00,0xff,0x51,0x03,0x06,0x06,0x06,0x82,0x00,0xff,0x51,0x03,0x05,
0xe8,0x4b,0xf0,0x00,0xff,0x51,0x03,0x05,0xe8,0x4b,0x82,0x00,0xff,0x51,0x03,0x05,
0xf2,0x13,0x82,0x00,0xff,0x51,0x03,0x05,0xfb,0xfc,0x82,0x00,0xff,0x51,0x03,0x06,
0x01,0x49,0x82,0x00,0xff,0x51,0x03,0x06,0x0b,0x65,0x82,0x00,0xff,0x51,0x03,0x06,
0x10,0x32,0x82,0x00,0xff,0x51,0x03,0x06,0x1a,0x80,0x82,0x00,0xff,0x51,0x03,0x06,
0x20,0x04,0x84,0x00,0xff,0x51,0x03,0x05,0xe8,0x4b,0xee,0x00,0xff,0x51,0x03,0x05,
0xe8,0x4b,0x82,0x00,0xff,0x51,0x03,0x05,0xf2,0x13,0x82,0x00,0xff,0x51,0x03,0x05,
0xfb,0xfc,0x82,0x00,0xff,0x51,0x03,0x06,0x01,0x49,0x82,0x00,0xff,0x51,0x03,0x06,
0x0b,0x65,0x82,0x00,0xff,0x51,0x03,0x06,0x10,0x32,0x82,0x00,0xff,0x51,0x03,0x06,
0x1a,0x80,0x82,0x00,0xff,0x51,0x03,0x06,0x20,0x04,0x84,0x00,0xff,0x51,0x03,0x05,
0xe8,0x4b,0xce,0x00,0xff,0x51,0x03,0x05,0xe8,0x4b,0x82,0x00,0xff,0x51,0x03,0x05,
0xed,0x75,0x82,0x00,0xff,0x51,0x03,0x05,0xf2,0x13,0x82,0x00,0xff,0x51,0x03,0x05,
0xf7,0x4f,0x82,0x00,0xff,0x51,0x03,0x05,0xfb,0xfc,0x82,0x00,0xff,0x51,0x03,0x06,
0x01,0x49,0x82,0x00,0xff,0x51,0x03,0x06,0x06,0x06,0x82,0x00,0xff,0x51,0x03,0x06,
0x06,0x06,0x82,0x00,0xff,0x51,0x03,0x05,0xe8,0x4b,0x82,0xf0,0x00,0xff,0x51,0x03,
0x05,0xe8,0x4b,0x82,0x00,0xff,0x51,0x03,0x05,0xf2,0x13,0x82,0x00,0xff,0x51,0x03,
0x05,0xfb,0xfc,0x82,0x00,0xff,0x51,0x03,0x06,0x01,0x49,0x82,0x00,0xff,0x51,0x03,
0x06,0x0b,0x65,0x82,0x00,0xff,0x51,0x03,0x06,0x10,0x32,0x82,0x00,0xff,0x51,0x03,
0x06,0x1a,0x80,0x82,0x00,0xff,0x51,0x03,0x06,0x20,0x04,0x84,0x00,0xff,0x51,0x03,
0x05,0xe8,0x4b,0xae,0x00,0xff,0x51,0x03,0x05,0xe8,0x4b,0x82,0x00,0xff,0x51,0x03,
0x05,0xed,0x75,0x82,0x00,0xff,0x51,0x03,0x05,0xf2,0x13,0x82,0x00,0xff,0x51,0x03,
0x05,0xf7,0x4f,0x82,0x00,0xff,0x51,0x03,0x05,0xfb,0xfc,0x82,0x00,0xff,0x51,0x03,
0x06,0x01,0x49,0x82,0x00,0xff,0x51,0x03,0x06,0x06,0x06,0x82,0x00,0xff,0x51,0x03,
0x06,0x06,0x06,0x82,0x00,0xff,0x51,0x03,0x05,0xe8,0x4b,0x90,0x00,0xff,0x51,0x03,
0x05,0xe8,0x4b,0x82,0x00,0xff,0x51,0x03,0x05,0xf2,0x13,0x82,0x00,0xff,0x51,0x03,
0x05,0xfb,0xfc,0x82,0x00,0xff,0x51,0x03,0x06,0x01,0x49,0x82,0x00,0xff,0x51,0x03,
0x06,0x0b,0x65,0x82,0x00,0xff,0x51,0x03,0x06,0x10,0x32,0x82,0x00,0xff,0x51,0x03,
0x06,0x1a,0x80,0x82,0x00,0xff,0x51,0x03,0x06,0x20,0x04,0x84,0x00,0xff,0x51,0x03,
0x05,0xe8,0x4b,0x8e,0x00,0xff,0x51,0x03,0x06,0x20,0x04,0x82,0x00,0xff,0x51,0x03,
0x06,0x2a,0x89,0x82,0x00,0xff,0x51,0x03,0x06,0x35,0x32,0x82,0x00,0xff,0x51,0x03,
0x06,0x3a,0xe6,0x82,0x00,0xff,0x51,0x03,0x06,0x45,0xc8,0x82,0x00,0xff,0x51,0x03,
0x06,0x4a,0xf7,0x82,0x00,0xff,0x51,0x03,0x06,0x56,0x11,0x82,0x00,0xff,0x51,0x03,
0x06,0x5c,0x03,0x82,0x00,0xff,0x51,0x03,0x05,0xe8,0x4b,0x82,0x00,0xff,0x51,0x03,
0x05,0xe8,0x4b,0x8e,0x00,0xff,0x51,0x03,0x05,0xe8,0x4b,0x82,0x00,0xff,0x51,0x03,
0x05,0xed,0x75,0x82,0x00,0xff,0x51,0x03,0x05,0xf2,0x13,0x82,0x00,0xff,0x51,0x03,
0x05,0xf7,0x4f,0x82,0x00,0xff,0x51,0x03,0x05,0xfb,0xfc,0x82,0x00,0xff,0x51,0x03,
0x06,0x01,0x49,0x82,0x00,0xff,0x51,0x03,0x06,0x06,0x06,0x82,0x00,0xff,0x51,0x03,
0x06,0x06,0x06,0x82,0x00,0xff,0x51,0x03,0x05,0xe8,0x4b,0xd0,0x00,0xff,0x51,0x03,
0x05,0xe8,0x4b,0x82,0x00,0xff,0x51,0x03,0x05,0xf2,0x13,0x82,0x00,0xff,0x51,0x03,
0x05,0xfb,0xfc,0x82,0x00,0xff,0x51,0x03,0x06,0x01,0x49,0x82,0x00,0xff,0x51,0x03,
0x06,0x0b,0x65,0x82,0x00,0xff,0x51,0x03,0x06,0x10,0x32,0x82,0x00,0xff,0x51,0x03,
0x06,0x1a,0x80,0x82,0x00,0xff,0x51,0x03,0x06,0x20,0x04,0x82,0x00,0xff,0x51,0x03,
0x05,0xe8,0x4b,0x82,0x00,0xff,0x51,0x03,0x05,0xe8,0x4b,0x8e,0x00,0xff,0x51,0x03,
0x05,0xe8,0x4b,0x82,0x00,0xff,0x51,0x03,0x05,0xed,0x75,0x82,0x00,0xff,0x51,0x03,
0x05,0xf2,0x13,0x82,0x00,0xff,0x51,0x03,0x05,0xf7,0x4f,0x82,0x00,0xff,0x51,0x03,
0x05,0xfb,0xfc,0x82,0x00,0xff,0x51,0x03,0x06,0x01,0x49,0x82,0x00,0xff,0x51,0x03,
0x06,0x06,0x06,0x82,0x00,0xff,0x51,0x03,0x06,0x06,0x06,0x82,0x00,0xff,0x51,0x03,
0x05,0xe8,0x4b,0xd0,0x00,0xff,0x51,0x03,0x05,0xe8,0x4b,0x82,0x00,0xff,0x51,0x03,
0x05,0xf2,0x13,0x82,0x00,0xff,0x51,0x03,0x05,0xfb,0xfc,0x82,0x00,0xff,0x51,0x03,
0x06,0x01,0x49,0x82,0x00,0xff,0x51,0x03,0x06,0x0b,0x65,0x82,0x00,0xff,0x51,0x03,
0x06,0x10,0x32,0x82,0x00,0xff,0x51,0x03,0x06,0x1a,0x80,0x82,0x00,0xff,0x51,0x03,
0x06,0x20,0x04,0x82,0x00,0xff,0x51,0x03,0x05,0xe8,0x4b,0x82,0x00,0xff,0x51,0x03,
0x05,0xe8,0x4b,0xbe,0x00,0xff,0x51,0x03,0x05,0xe8,0x4b,0x82,0x00,0xff,0x51,0x03,
0x05,0xe8,0x4b,0xce,0x00,0xff,0x51,0x03,0x05,0xe8,0x4b,0x82,0x00,0xff,0x51,0x03,
0x05,0xf2,0x13,0x82,0x00,0xff,0x51,0x03,0x05,0xfb,0xfc,0x82,0x00,0xff,0x51,0x03,
0x06,0x01,0x49,0x82,0x00,0xff,0x51,0x03,0x06,0x0b,0x65,0x82,0x00,0xff,0x51,0x03,
0x06,0x10,0x32,0x82,0x00,0xff,0x51,0x03,0x06,0x1a,0x80,0x82,0x00,0xff,0x51,0x03,
0x06,0x20,0x04,0x82,0x00,0xff,0x59,0x02,0xff,0x01,0x82,0x00,0xff,0x51,0x03,0x05,
0xe8,0x4b,0x8e,0x00,0xff,0x51,0x03,0x05,0xe8,0x4b,0x82,0x00,0xff,0x51,0x03,0x05,
0xf2,0x13,0x82,0x00,0xff,0x51,0x03,0x05,0xfb,0xfc,0x82,0x00,0xff,0x51,0x03,0x06,
0x01,0x49,0x82,0x00,0xff,0x51,0x03,0x06,0x0b,0x65,0x82,0x00,0xff,0x51,0x03,0x06,
0x10,0x32,0x82,0x00,0xff,0x51,0x03,0x06,0x1a,0x80,0x82,0x00,0xff,0x51,0x03,0x06,
0x20,0x04,0x84,0x00,0xff,0x51,0x03,0x05,0xe8,0x4b,0xee,0x00,0xff,0x51,0x03,0x05,
0xe8,0x4b,0x82,0x00,0xff,0x51,0x03,0x05,0xf2,0x13,0x82,0x00,0xff,0x51,0x03,0x05,
0xfb,0xfc,0x82,0x00,0xff,0x51,0x03,0x06,0x01,0x49,0x82,0x00,0xff,0x51,0x03,0x06,
0x0b,0x65,0x82,0x00,0xff,0x51,0x03,0x06,0x10,0x32,0x82,0x00,0xff,0x51,0x03,0x06,
0x1a,0x80,0x82,0x00,0xff,0x51,0x03,0x06,0x20,0x04,0x84,0x00,0xff,0x51,0x03,0x05,
0xe8,0x4b,0x81,0xbe,0x00,0xff,0x59,0x02,0x01,0x01,0x90,0x00,0xff,0x51,0x03,0x05,
0xe8,0x4b,0x82,0x00,0xff,0x51,0x03,0x05,0xed,0x75,0x82,0x00,0xff,0x51,0x03,0x05,
0xf2,0x13,0x82,0x00,0xff,0x51,0x03,0x05,0xf7,0x4f,0x82,0x00,0xff,0x51,0x03,0x05,
0xfb,0xfc,0x82,0x00,0xff,0x51,0x03,0x06,0x01,0x49,0x82,0x00,0xff,0x51,0x03,0x06,
0x06,0x06,0x82,0x00,0xff,0x51,0x03,0x06,0x06,0x06,0x82,0x00,0xff,0x51,0x03,0x05,
0xe8,0x4b,0xd0,0x00,0xff,0x51,0x03,0x05,0xe8,0x4b,0x82,0x00,0xff,0x51,0x03,0x05,
0xf2,0x13,0x82,0x00,0xff,0x51,0x03,0x05,0xfb,0xfc,0x82,0x00,0xff,0x51,0x03,0x06,
0x01,0x49,0x82,0x00,0xff,0x51,0x03,0x06,0x0b,0x65,0x82,0x00,0xff,0x51,0x03,0x06,
0x10,0x32,0x82,0x00,0xff,0x51,0x03,0x06,0x1a,0x80,0x82,0x00,0xff,0x51,0x03,0x06,
0x20,0x04,0x82,0x00,0xff,0x51,0x03,0x05,0xe8,0x4b,0x82,0x00,0xff,0x51,0x03,0x05,
0xe8,0x4b,0xbe,0x00,0xff,0x51,0x03,0x05,0xe8,0x4b,0x82,0x00,0xff,0x51,0x03,0x05,
0xe8,0x4b,0xce,0x00,0xff,0x51,0x03,0x05,0xe8,0x4b,0x82,0x00,0xff,0x51,0x03,0x05,
0xed,0x75,0x82,0x00,0xff,0x51,0x03,0x05,0xf2,0x13,0x82,0x00,0xff,0x51,0x03,0x05,
0xf7,0x4f,0x82,0x00,0xff,0x51,0x03,0x05,0xfb,0xfc,0x82,0x00,0xff,0x51,0x03,0x06,
0x01,0x49,0x82,0x00,0xff,0x51,0x03,0x06,0x06,0x06,0x82,0x00,0xff,0x51,0x03,0x06,
0x06,0x06,0x82,0x00,0xff,0x51,0x03,0x05,0xe8,0x4b,0xe0,0x02,0xff,0x2f,0x00,0x4d,
0x54,0x72,0x6b,0x00,0x00,0x5c,0x3a,0x00,0xff,0x09,0x16,0x53,0x6d,0x61,0x72,0x74,
0x4d,0x75,0x73,0x69,0x63,0x20,0x53,0x6f,0x66,0x74,0x53,0x79,0x6e,0x74,0x68,0x20,
0x31,0x00,0xff,0x03,0x05,0x50,0x69,0x61,0x6e,0x6f,0x00,0xb0,0x00,0x79,0x00,0xb0,
0x20,0x00,0x00,0xc0,0x01,0x00,0xb0,0x07,0x7f,0x00,0xb0,0x0a,0x40,0x03,0xb0,0x64,
0x00,0x00,0xb0,0x65,0x00,0x00,0xb0,0x64,0x00,0x00,0xb0,0x65,0x00,0x01,0xb0,0x06,
0x0c,0x00,0xb0,0x06,0x0c,0x01,0xb0,0x26,0x00,0x00,0xb0,0x26,0x00,0x05,0x90,0x40,
0x48,0x00,0x90,0x43,0x48,0x00,0x90,0x47,0x52,0x00,0x90,0x28,0x4f,0x83,0x79,0x80,
0x40,0x00,0x00,0x80,0x43,0x00,0x00,0x80,0x28,0x00,0x1e,0x80,0x47,0x00,0x01,0x90,
0x34,0x4b,0x81,0x79,0x90,0x40,0x43,0x00,0x90,0x43,0x43,0x00,0x90,0x47,0x51,0x81,
0x64,0x80,0x34,0x00,0x0f,0x80,0x40,0x00,0x00,0x80,0x43,0x00,0x0f,0x80,0x47,0x00,
0x01,0x90,0x28,0x4b,0x83,0x5a,0x80,0x28,0x00,0x1f,0x90,0x40,0x43,0x00,0x90,0x45,
0x43,0x00,0x90,0x49,0x51,0x00,0x90,0x34,0x4b,0x83,0x5f,0x80,0x40,0x00,0x00,0x80,
0x45,0x00,0x00,0x80,0x34,0x00,0x1e,0x80,0x49,0x00,0x01,0x90,0x28,0x4d,0x83,0x5f,
0x80,0x28,0x00,0x1f,0x90,0x34,0x4b,0x83,0x5a,0x80,0x34,0x00,0x1f,0x90,0x28,0x4b,
0x83,0x5a,0x80,0x28,0x00,0x1f,0x90,0x34,0x4b,0x83,0x5c,0x80,0x34,0x00,0x23,0x90,
0x40,0x48,0x00,0x90,0x47,0x48,0x00,0x90,0x4a,0x56,0x00,0x90,0x28,0x4f,0x83,0x7f,
0x80,0x40,0x00,0x00,0x80,0x47,0x00,0x00,0x80,0x28,0x00,0x1e,0x80,0x4a,0x00,0x01,
0x90,0x34,0x4b,0x81,0x79,0x90,0x40,0x43,0x00,0x90,0x47,0x43,0x00,0x90,0x4a,0x51,
0x81,0x64,0x80,0x34,0x00,0x0f,0x80,0x40,0x00,0x00,0x80,0x47,0x00,0x0f,0x80,0x4a,
0x00,0x01,0x90,0x28,0x4b,0x83,0x5a,0x80,0x28,0x00,0x1f,0x90,0x40,0x43,0x00,0x90,
0x45,0x43,0x00,0x90,0x49,0x51,0x00,0x90,0x34,0x4b,0x83,0x5f,0x80,0x40,0x00,0x00,
0x80,0x45,0x00,0x00,0x80,0x34,0x00,0x1e,0x80,0x49,0x00,0x01,0x90,0x28,0x4d,0x83,
0x5f,0x80,0x28,0x00,0x1f,0x90,0x34,0x4b,0x83,0x5a,0x80,0x34,0x00,0x1f,0x90,0x28,
0x4b,0x83,0x5a,0x80,0x28,0x00,0x1f,0x90,0x34,0x4b,0x83,0x5c,0x80,0x34,0x00,0x23,
0x90,0x40,0x48,0x00,0x90,0x43,0x48,0x00,0x90,0x47,0x56,0x00,0x90,0x28,0x4f,0x83,
0x7f,0x80,0x40,0x00,0x00,0x80,0x43,0x00,0x00,0x80,0x28,0x00,0x1e,0x80,0x47,0x00,
0x01,0x90,0x34,0x4b,0x81,0x79,0x90,0x40,0x43,0x00,0x90,0x43,0x43,0x00,0x90,0x47,
0x51,0x81,0x64,0x80,0x34,0x00,0x0f,0x80,0x40,0x00,0x00,0x80,0x43,0x00,0x0f,0x80,
0x47,0x00,0x01,0x90,0x28,0x4b,0x83,0x5a,0x80,0x28,0x00,0x1f,0x90,0x40,0x43,0x00,
0x90,0x45,0x43,0x00,0x90,0x49,0x51,0x00,0x90,0x34,0x4b,0x83,0x5f,0x80,0x40,0x00,
0x00,0x80,0x45,0x00,0x00,0x80,0x34,0x00,0x1e,0x80,0x49,0x00,0x01,0x90,0x28,0x4d,
0x83,0x5f,0x80,0x28,0x00,0x1f,0x90,0x34,0x4b,0x83,0x5a,0x80,0x34,0x00,0x1f,0x90,
0x28,0x4b,0x83,0x5a,0x80,0x28,0x00,0x1f,0x90,0x34,0x4b,0x83,0x5c,0x80,0x34,0x00,
0x23,0x90,0x40,0x5b,0x00,0x90,0x47,0x5b,0x00,0x90,0x4a,0x5b,0x00,0x90,0x4c,0x69,
0x00,0x90,0x28,0x62,0x83,0x7f,0x80,0x40,0x00,0x00,0x80,0x47,0x00,0x00,0x80,0x4a,
0x00,0x00,0x80,0x28,0x00,0x1e,0x80,0x4c,0x00,0x81,0x7a,0x90,0x40,0x56,0x00,0x90,
0x47,0x61,0x00,0x90,0x4a,0x61,0x00,0x90,0x4c,0x5c,0x00,0x90,0x28,0x5d,0x81,0x73,
0x80,0x40,0x00,0x00,0x80,0x47,0x00,0x00,0x80,0x4a,0x00,0x00,0x80,0x28,0x00,0x0f,
0x80,0x4c,0x00,0x83,0x7a,0x90,0x40,0x56,0x00,0x90,0x45,0x61,0x00,0x90,0x49,0x61,
0x00,0x90,0x4c,0x5c,0x00,0x90,0x28,0x5d,0x83,0x5f,0x80,0x40,0x00,0x00,0x80,0x45,
0x00,0x00,0x80,0x49,0x00,0x00,0x80,0x28,0x00,0x1e,0x80,0x4c,0x00,0x83,0x7f,0x90,
0x39,0x4b,0x74,0x80,0x39,0x00,0x08,0x90,0x3d,0x4b,0x74,0x80,0x3d,0x00,0x08,0x90,
0x40,0x4b,0x75,0x80,0x40,0x00,0x08,0x90,0x45,0x4b,0x7c,0x80,0x45,0x00,0x08,0x90,
0x49,0x4c,0x7c,0x80,0x49,0x00,0x08,0x90,0x4c,0x4b,0x75,0x80,0x4c,0x00,0x08,0x90,
0x51,0x4b,0x74,0x80,0x51,0x00,0x08,0x90,0x55,0x4b,0x74,0x80,0x55,0x00,0x08,0x90,
0x51,0x4b,0x00,0x90,0x2f,0x4b,0x73,0x80,0x51,0x00,0x08,0x90,0x4c,0x4b,0x75,0x80,
0x4c,0x00,0x08,0x90,0x49,0x4b,0x81,0x64,0x80,0x2f,0x00,0x0f,0x80,0x49,0x00,0x14,
0x90,0x47,0x48,0x00,0x90,0x4c,0x48,0x00,0x90,0x53,0x56,0x00,0x90,0x28,0x4f,0x83,
0x7f,0x80,0x28,0x00,0x1f,0x90,0x34,0x4b,0x83,0x5d,0x80,0x34,0x00,0x1e,0x80,0x47,
0x00,0x00,0x80,0x4c,0x00,0x00,0x80,0x53,0x00,0x01,0x90,0x53,0x4c,0x00,0x90,0x28,
0x4b,0x81,0x72,0x80,0x53,0x00,0x10,0x90,0x4f,0x4b,0x81,0x58,0x80,0x28,0x00,0x0f,
0x80,0x4f,0x00,0x10,0x90,0x4c,0x4b,0x00,0x90,0x34,0x4b,0x81,0x68,0x80,0x4c,0x00,
0x10,0x90,0x47,0x4b,0x81,0x67,0x80,0x34,0x00,0x0f,0x80,0x47,0x00,0x10,0x90,0x43,
0x4e,0x00,0x90,0x28,0x4d,0x83,0x5f,0x80,0x43,0x00,0x00,0x80,0x28,0x00,0x1f,0x90,
0x42,0x43,0x00,0x90,0x4e,0x51,0x00,0x90,0x34,0x4b,0x83,0x5a,0x80,0x42,0x00,0x00,
0x80,0x34,0x00,0x1e,0x80,0x4e,0x00,0x01,0x90,0x43,0x44,0x00,0x90,0x4f,0x52,0x00,
0x90,0x28,0x4b,0x83,0x5a,0x80,0x28,0x00,0x1e,0x80,0x43,0x00,0x00,0x80,0x4f,0x00,
0x01,0x90,0x39,0x43,0x00,0x90,0x43,0x43,0x00,0x90,0x49,0x43,0x00,0x90,0x4c,0x51,
0x00,0x90,0x2d,0x4b,0x83,0x7a,0x80,0x2d,0x00,0x05,0x90,0x2d,0x50,0x83,0x7f,0x80,
0x39,0x00,0x00,0x80,0x2d,0x00,0x1e,0x80,0x43,0x00,0x00,0x80,0x49,0x00,0x00,0x80,
0x4c,0x00,0x01,0x90,0x43,0x43,0x00,0x90,0x49,0x51,0x00,0x90,0x39,0x4b,0x81,0x69,
0x80,0x43,0x00,0x0f,0x80,0x49,0x00,0x01,0x90,0x4c,0x4b,0x81,0x64,0x80,0x39,0x00,
0x0f,0x80,0x4c,0x00,0x10,0x90,0x51,0x4c,0x00,0x90,0x2d,0x4c,0x81,0x72,0x80,0x51,
0x00,0x10,0x90,0x4c,0x4b,0x81,0x58,0x80,0x2d,0x00,0x0f,0x80,0x4c,0x00,0x10,0x90,
0x49,0x4b,0x00,0x90,0x39,0x4b,0x81,0x68,0x80,0x49,0x00,0x10,0x90,0x45,0x4b,0x81,
0x67,0x80,0x39,0x00,0x0f,0x80,0x45,0x00,0x10,0x90,0x40,0x4e,0x00,0x90,0x2d,0x4e,
0x81,0x77,0x80,0x40,0x00,0x10,0x90,0x3d,0x4b,0x81,0x67,0x80,0x3d,0x00,0x0f,0x80,
0x2d,0x00,0x01,0x90,0x39,0x4b,0x00,0x90,0x2d,0x4b,0x83,0x5a,0x80,0x39,0x00,0x1e,
0x80,0x2d,0x00,0x01,0x90,0x4c,0x4c,0x00,0x90,0x2d,0x4c,0x81,0x71,0x80,0x4c,0x00,
0x10,0x90,0x4e,0x4b,0x81,0x59,0x80,0x2d,0x00,0x0f,0x80,0x4e,0x00,0x10,0x90,0x4f,
0x4b,0x00,0x90,0x39,0x4b,0x81,0x68,0x80,0x4f,0x00,0x10,0x90,0x51,0x4b,0x81,0x64,
0x80,0x39,0x00,0x0f,0x80,0x51,0x00,0x14,0x90,0x47,0x48,0x00,0x90,0x4c,0x48,0x00,
0x90,0x4f,0x48,0x00,0x90,0x53,0x52,0x00,0x90,0x24,0x4e,0x83,0x7f,0x80,0x24,0x00,
0x1f,0x90,0x30,0x4b,0x81,0x78,0x80,0x47,0x00,0x00,0x80,0x4c,0x00,0x00,0x80,0x4f,
0x00,0x00,0x80,0x53,0x00,0x01,0x90,0x47,0x43,0x00,0x90,0x4c,0x43,0x00,0x90,0x4f,
0x43,0x00,0x90,0x53,0x51,0x81,0x64,0x80,0x30,0x00,0x0f,0x80,0x47,0x00,0x00,0x80,
0x4c,0x00,0x00,0x80,0x4f,0x00,0x0f,0x80,0x53,0x00,0x01,0x90,0x24,0x4a,0x83,0x5a,
0x80,0x24,0x00,0x1f,0x90,0x45,0x43,0x00,0x90,0x4a,0x43,0x00,0x90,0x4e,0x43,0x00,
0x90,0x51,0x51,0x00,0x90,0x32,0x4b,0x83,0x5f,0x80,0x32,0x00,0x1f,0x90,0x26,0x4d,
0x83,0x5f,0x80,0x45,0x00,0x00,0x80,0x4a,0x00,0x00,0x80,0x26,0x00,0x1e,0x80,0x4e,
0x00,0x00,0x80,0x51,0x00,0x01,0x90,0x43,0x43,0x00,0x90,0x4f,0x51,0x00,0x90,0x32,
0x4b,0x83,0x5a,0x80,0x43,0x00,0x00,0x80,0x32,0x00,0x1e,0x80,0x4f,0x00,0x01,0x90,
0x42,0x44,0x00,0x90,0x4a,0x44,0x00,0x90,0x4e,0x52,0x00,0x90,0x26,0x4b,0x83,0x5a,
0x80,0x42,0x00,0x00,0x80,0x4a,0x00,0x00,0x80,0x26,0x00,0x1e,0x80,0x4e,0x00,0x01,
0x90,0x43,0x43,0x00,0x90,0x4f,0x51,0x00,0x90,0x34,0x4b,0x83,0x5c,0x80,0x34,0x00,
0x23,0x90,0x28,0x4f,0x83,0x7f,0x80,0x28,0x00,0x1f,0x90,0x34,0x4b,0x83,0x5d,0x80,
0x34,0x00,0x1f,0x90,0x28,0x4b,0x83,0x5a,0x80,0x28,0x00,0x1f,0x90,0x34,0x4b,0x83,
0x5f,0x80,0x34,0x00,0x1e,0x80,0x43,0x00,0x00,0x80,0x4f,0x00,0x01,0x90,0x3b,0x4e,
0x00,0x90,0x28,0x4d,0x83,0x5f,0x80,0x3b,0x00,0x00,0x80,0x28,0x00,0x1f,0x90,0x39,
0x43,0x00,0x90,0x40,0x43,0x00,0x90,0x45,0x51,0x00,0x90,0x34,0x4b,0x83,0x5a,0x80,
0x34,0x00,0x1f,0x90,0x28,0x4b,0x83,0x5a,0x80,0x28,0x00,0x1e,0x80,0x39,0x00,0x00,
0x80,0x40,0x00,0x00,0x80,0x45,0x00,0x01,0x90,0x3a,0x43,0x00,0x90,0x46,0x51,0x00,
0x90,0x2f,0x4b,0x83,0x5c,0x80,0x3a,0x00,0x00,0x80,0x2f,0x00,0x1e,0x80,0x46,0x00,
0x05,0x90,0x3b,0x48,0x00,0x90,0x40,0x48,0x00,0x90,0x43,0x48,0x00,0x90,0x47,0x56,
0x00,0x90,0x28,0x4f,0x83,0x7f,0x80,0x28,0x00,0x1f,0x90,0x34,0x4b,0x83,0x5d,0x80,
0x34,0x00,0x1f,0x90,0x28,0x4b,0x83,0x5a,0x80,0x28,0x00,0x1e,0x80,0x3b,0x00,0x00,
0x80,0x40,0x00,0x00,0x80,0x43,0x00,0x00,0x80,0x47,0x00,0x01,0x90,0x3b,0x43,0x00,
0x90,0x40,0x43,0x00,0x90,0x47,0x51,0x00,0x90,0x34,0x4b,0x83,0x5f,0x80,0x3b,0x00,
0x00,0x80,0x34,0x00,0x1e,0x80,0x40,0x00,0x00,0x80,0x47,0x00,0x01,0x90,0x40,0x45,
0x00,0x90,0x47,0x45,0x00,0x90,0x4c,0x53,0x00,0x90,0x28,0x4c,0x83,0x5f,0x80,0x28,
0x00,0x1f,0x90,0x34,0x50,0x81,0x77,0x80,0x40,0x00,0x00,0x80,0x47,0x00,0x00,0x80,
0x4c,0x00,0x01,0x90,0x42,0x4a,0x00,0x90,0x47,0x4a,0x00,0x90,0x4c,0x4a,0x00,0x90,
0x4e,0x58,0x81,0x62,0x80,0x34,0x00,0x1f,0x90,0x28,0x53,0x83,0x5a,0x80,0x42,0x00,
0x00,0x80,0x47,0x00,0x00,0x80,0x28,0x00,0x1e,0x80,0x4c,0x00,0x00,0x80,0x4e,0x00,
0x01,0x90,0x49,0x50,0x00,0x90,0x4c,0x50,0x00,0x90,0x4f,0x50,0x00,0x90,0x53,0x5e,
0x00,0x90,0x2d,0x58,0x83,0x7a,0x80,0x2d,0x00,0x05,0x90,0x2d,0x5d,0x83,0x7f,0x80,
0x2d,0x00,0x1e,0x80,0x49,0x00,0x00,0x80,0x4c,0x00,0x00,0x80,0x4f,0x00,0x00,0x80,
0x53,0x00,0x01,0x90,0x45,0x50,0x00,0x90,0x49,0x50,0x00,0x90,0x4c,0x50,0x00,0x90,
0x51,0x5e,0x00,0x90,0x39,0x58,0x83,0x5d,0x80,0x39,0x00,0x1f,0x90,0x2d,0x59,0x83,
0x5a,0x80,0x2d,0x00,0x1e,0x80,0x45,0x00,0x00,0x80,0x49,0x00,0x00,0x80,0x4c,0x00,
0x00,0x80,0x51,0x00,0x01,0x90,0x43,0x50,0x00,0x90,0x49,0x50,0x00,0x90,0x4c,0x50,
0x00,0x90,0x4f,0x5e,0x00,0x90,0x39,0x58,0x83,0x5f,0x80,0x39,0x00,0x1f,0x90,0x2d,
0x5b,0x83,0x5f,0x80,0x2d,0x00,0x1f,0x90,0x39,0x58,0x83,0x5a,0x80,0x39,0x00,0x1e,
0x80,0x43,0x00,0x00,0x80,0x49,0x00,0x00,0x80,0x4c,0x00,0x00,0x80,0x4f,0x00,0x01,
0x90,0x4c,0x59,0x00,0x90,0x2d,0x59,0x81,0x71,0x80,0x4c,0x00,0x10,0x90,0x4e,0x58,
0x81,0x59,0x80,0x2d,0x00,0x0f,0x80,0x4e,0x00,0x10,0x90,0x4f,0x58,0x00,0x90,0x2f,
0x58,0x81,0x68,0x80,0x4f,0x00,0x10,0x90,0x51,0x58,0x81,0x64,0x80,0x2f,0x00,0x0f,
0x80,0x51,0x00,0x14,0x90,0x47,0x55,0x00,0x90,0x4c,0x55,0x00,0x90,0x4f,0x55,0x00,
0x90,0x53,0x5f,0x00,0x90,0x24,0x5b,0x83,0x7f,0x80,0x24,0x00,0x1f,0x90,0x30,0x58,
0x81,0x78,0x80,0x47,0x00,0x00,0x80,0x4c,0x00,0x00,0x80,0x4f,0x00,0x00,0x80,0x53,
0x00,0x01,0x90,0x47,0x50,0x00,0x90,0x4c,0x50,0x00,0x90,0x4f,0x50,0x00,0x90,0x53,
0x5e,0x81,0x64,0x80,0x30,0x00,0x0f,0x80,0x47,0x00,0x00,0x80,0x4c,0x00,0x00,0x80,
0x4f,0x00,0x0f,0x80,0x53,0x00,0x01,0x90,0x24,0x57,0x83,0x5a,0x80,0x24,0x00,0x1f,
0x90,0x45,0x50,0x00,0x90,0x4a,0x50,0x00,0x90,0x4e,0x50,0x00,0x90,0x51,0x5e,0x00,
0x90,0x32,0x58,0x83,0x5f,0x80,0x32,0x00,0x1f,0x90,0x26,0x5a,0x83,0x5f,0x80,0x45,
0x00,0x00,0x80,0x26,0x00,0x1e,0x80,0x4a,0x00,0x00,0x80,0x4e,0x00,0x00,0x80,0x51,
0x00,0x01,0x90,0x43,0x50,0x00,0x90,0x4a,0x50,0x00,0x90,0x4f,0x5e,0x00,0x90,0x32,
0x58,0x83,0x5a,0x80,0x43,0x00,0x00,0x80,0x32,0x00,0x1e,0x80,0x4a,0x00,0x00,0x80,
0x4f,0x00,0x01,0x90,0x42,0x51,0x00,0x90,0x4a,0x51,0x00,0x90,0x4e,0x5f,0x00,0x90,
0x26,0x58,0x83,0x5a,0x80,0x42,0x00,0x00,0x80,0x4a,0x00,0x00,0x80,0x26,0x00,0x1e,
0x80,0x4e,0x00,0x01,0x90,0x40,0x50,0x00,0x90,0x4c,0x5e,0x00,0x90,0x34,0x58,0x83,
0x5c,0x80,0x34,0x00,0x23,0x90,0x28,0x5c,0x83,0x7f,0x80,0x28,0x00,0x1f,0x90,0x34,
0x58,0x83,0x5d,0x80,0x34,0x00,0x1e,0x80,0x40,0x00,0x00,0x80,0x4c,0x00,0x01,0x90,
0x3b,0x44,0x00,0x90,0x40,0x52,0x00,0x90,0x28,0x4b,0x83,0x5a,0x80,0x3b,0x00,0x00,
0x80,0x28,0x00,0x1e,0x80,0x40,0x00,0x01,0x90,0x43,0x43,0x00,0x90,0x47,0x51,0x00,
0x90,0x34,0x4b,0x83,0x5f,0x80,0x43,0x00,0x00,0x80,0x34,0x00,0x1e,0x80,0x47,0x00,
0x01,0x90,0x42,0x46,0x00,0x90,0x45,0x54,0x00,0x90,0x28,0x4d,0x83,0x5f,0x80,0x28,
0x00,0x1f,0x90,0x34,0x4b,0x81,0x77,0x80,0x42,0x00,0x00,0x80,0x45,0x00,0x01,0x90,
0x40,0x43,0x00,0x90,0x43,0x51,0x81,0x62,0x80,0x34,0x00,0x1f,0x90,0x26,0x4b,0x83,
0x5a,0x80,0x26,0x00,0x1f,0x90,0x32,0x4b,0x83,0x5c,0x80,0x32,0x00,0x1e,0x80,0x40,
0x00,0x00,0x80,0x43,0x00,0x05,0x90,0x3b,0x48,0x00,0x90,0x40,0x48,0x00,0x90,0x47,
0x56,0x00,0x90,0x24,0x4e,0x83,0x7f,0x80,0x24,0x00,0x1f,0x90,0x30,0x4b,0x83,0x5d,
0x80,0x30,0x00,0x1e,0x80,0x3b,0x00,0x00,0x80,0x40,0x00,0x00,0x80,0x47,0x00,0x01,
0x90,0x43,0x44,0x00,0x90,0x4f,0x52,0x00,0x90,0x24,0x4a,0x83,0x5a,0x80,0x24,0x00,
0x1f,0x90,0x2b,0x4b,0x81,0x68,0x80,0x2b,0x00,0x10,0x90,0x2d,0x4b,0x81,0x76,0x80,
0x2d,0x00,0x0f,0x80,0x43,0x00,0x00,0x80,0x4f,0x00,0x01,0x90,0x43,0x46,0x00,0x90,
0x4e,0x54,0x00,0x90,0x30,0x4e,0x85,0x75,0x80,0x43,0x00,0x00,0x80,0x4e,0x00,0x00,
0x80,0x30,0x00,0x01,0x90,0x40,0x43,0x00,0x90,0x43,0x43,0x00,0x90,0x4c,0x51,0x00,
0x90,0x30,0x4b,0x81,0x71,0x80,0x30,0x00,0x82,0x11,0x90,0x30,0x4b,0x81,0x59,0x80,
0x43,0x00,0x1e,0x80,0x40,0x00,0x00,0x80,0x4c,0x00,0x01,0x90,0x3b,0x43,0x00,0x90,
0x40,0x43,0x00,0x90,0x43,0x43,0x00,0x90,0x47,0x51,0x81,0x59,0x80,0x30,0x00,0x1f,
0x90,0x2b,0x4b,0x81,0x73,0x80,0x2b,0x00,0x14,0x90,0x24,0x4e,0x83,0x7f,0x80,0x24,
0x00,0x1f,0x90,0x30,0x4b,0x83,0x5d,0x80,0x30,0x00,0x1f,0x90,0x24,0x4a,0x83,0x5a,
0x80,0x24,0x00,0x1e,0x80,0x3b,0x00,0x00,0x80,0x40,0x00,0x00,0x80,0x43,0x00,0x00,
0x80,0x47,0x00,0x01,0x90,0x39,0x43,0x00,0x90,0x40,0x43,0x00,0x90,0x43,0x43,0x00,
0x90,0x45,0x51,0x00,0x90,0x2b,0x4b,0x81,0x68,0x80,0x2b,0x00,0x10,0x90,0x2d,0x4b,
0x81,0x76,0x80,0x2d,0x00,0x10,0x90,0x30,0x4e,0x85,0x75,0x80,0x30,0x00,0x01,0x90,
0x30,0x4b,0x81,0x71,0x80,0x30,0x00,0x0f,0x80,0x39,0x00,0x00,0x80,0x40,0x00,0x00,
0x80,0x43,0x00,0x00,0x80,0x45,0x00,0x01,0x90,0x3b,0x44,0x00,0x90,0x40,0x44,0x00,
0x90,0x47,0x52,0x82,0x01,0x90,0x30,0x4b,0x81,0x68,0x80,0x30,0x00,0x10,0x90,0x32,
0x4b,0x81,0x68,0x80,0x32,0x00,0x10,0x90,0x30,0x4b,0x81,0x73,0x80,0x30,0x00,0x0f,
0x80,0x3b,0x00,0x00,0x80,0x40,0x00,0x00,0x80,0x47,0x00,0x05,0x90,0x3e,0x48,0x00,
0x90,0x42,0x48,0x00,0x90,0x45,0x48,0x00,0x90,0x4a,0x56,0x00,0x90,0x2f,0x50,0x83,
0x7f,0x80,0x2f,0x00,0x1f,0x90,0x23,0x49,0x83,0x5d,0x80,0x23,0x00,0x1f,0x90,0x2f,
0x4c,0x83,0x5a,0x80,0x2f,0x00,0x1e,0x80,0x3e,0x00,0x00,0x80,0x42,0x00,0x00,0x80,
0x45,0x00,0x00,0x80,0x4a,0x00,0x01,0x90,0x39,0x43,0x00,0x90,0x42,0x43,0x00,0x90,
0x45,0x51,0x00,0x90,0x2a,0x4b,0x81,0x68,0x80,0x2a,0x00,0x10,0x90,0x2d,0x4b,0x81,
0x76,0x80,0x2d,0x00,0x10,0x90,0x2f,0x4e,0x85,0x75,0x80,0x2f,0x00,0x01,0x90,0x2f,
0x4b,0x81,0x71,0x80,0x2f,0x00,0x82,0x11,0x90,0x2f,0x4b,0x81,0x68,0x80,0x2f,0x00,
0x10,0x90,0x2a,0x4b,0x83,0x5c,0x80,0x2a,0x00,0x1e,0x80,0x39,0x00,0x00,0x80,0x42,
0x00,0x00,0x80,0x45,0x00,0x05,0x90,0x37,0x48,0x00,0x90,0x3e,0x48,0x00,0x90,0x43,
0x56,0x00,0x90,0x23,0x4e,0x83,0x7f,0x80,0x23,0x00,0x1f,0x90,0x2f,0x4b,0x83,0x5d,
0x80,0x2f,0x00,0x1f,0x90,0x23,0x4a,0x83,0x5a,0x80,0x23,0x00,0x1e,0x80,0x37,0x00,
0x00,0x80,0x3e,0x00,0x00,0x80,0x43,0x00,0x01,0x90,0x36,0x43,0x00,0x90,0x3e,0x43,
0x00,0x90,0x42,0x51,0x00,0x90,0x2a,0x4b,0x81,0x68,0x80,0x2a,0x00,0x10,0x90,0x2d,
0x4b,0x81,0x76,0x80,0x2d,0x00,0x10,0x90,0x2f,0x4e,0x81,0x77,0x80,0x2f,0x00,0x10,
0x90,0x2a,0x4b,0x81,0x67,0x80,0x2a,0x00,0x10,0x90,0x2d,0x4b,0x81,0x68,0x80,0x2d,
0x00,0x10,0x90,0x2f,0x4b,0x83,0x72,0x80,0x2f,0x00,0x10,0x90,0x2a,0x4b,0x81,0x68,
0x80,0x2a,0x00,0x10,0x90,0x2d,0x4b,0x81,0x68,0x80,0x2d,0x00,0x10,0x90,0x2f,0x4b,
0x81,0x73,0x80,0x2f,0x00,0x0f,0x80,0x36,0x00,0x00,0x80,0x3e,0x00,0x00,0x80,0x42,
0x00,0x05,0x90,0x34,0x48,0x00,0x90,0x3c,0x48,0x00,0x90,0x40,0x56,0x00,0x90,0x21,
0x4d,0x83,0x7f,0x80,0x21,0x00,0x1f,0x90,0x2d,0x4b,0x83,0x5d,0x80,0x2d,0x00,0x1f,
0x90,0x21,0x49,0x83,0x5a,0x80,0x21,0x00,0x1e,0x80,0x34,0x00,0x00,0x80,0x3c,0x00,
0x00,0x80,0x40,0x00,0x01,0x90,0x3b,0x43,0x00,0x90,0x3c,0x43,0x00,0x90,0x40,0x43,
0x00,0x90,0x47,0x51,0x00,0x90,0x28,0x4a,0x81,0x68,0x80,0x28,0x00,0x10,0x90,0x2b,
0x4b,0x81,0x76,0x80,0x2b,0x00,0x10,0x90,0x2d,0x4e,0x85,0x75,0x80,0x2d,0x00,0x01,
0x90,0x2d,0x4b,0x81,0x71,0x80,0x2d,0x00,0x82,0x11,0x90,0x2d,0x4b,0x81,0x68,0x80,
0x2d,0x00,0x10,0x90,0x28,0x4a,0x83,0x5c,0x80,0x28,0x00,0x23,0x90,0x21,0x4d,0x83,
0x7f,0x80,0x21,0x00,0x1f,0x90,0x2d,0x4b,0x83,0x5d,0x80,0x2d,0x00,0x1f,0x90,0x21,
0x49,0x83,0x5a,0x80,0x21,0x00,0x1e,0x80,0x3b,0x00,0x00,0x80,0x3c,0x00,0x00,0x80,
0x40,0x00,0x00,0x80,0x47,0x00,0x01,0x90,0x37,0x43,0x00,0x90,0x3c,0x43,0x00,0x90,
0x40,0x43,0x00,0x90,0x43,0x51,0x00,0x90,0x28,0x4a,0x81,0x68,0x80,0x28,0x00,0x10,
0x90,0x2b,0x4b,0x81,0x76,0x80,0x2b,0x00,0x10,0x90,0x2d,0x4e,0x85,0x75,0x80,0x2d,
0x00,0x01,0x90,0x2d,0x4b,0x81,0x71,0x80,0x2d,0x00,0x0f,0x80,0x37,0x00,0x00,0x80,
0x3c,0x00,0x00,0x80,0x40,0x00,0x00,0x80,0x43,0x00,0x01,0x90,0x39,0x44,0x00,0x90,
0x3c,0x44,0x00,0x90,0x45,0x52,0x82,0x01,0x90,0x28,0x4a,0x81,0x68,0x80,0x28,0x00,
0x10,0x90,0x2d,0x4b,0x81,0x68,0x80,0x2d,0x00,0x10,0x90,0x2e,0x4b,0x81,0x73,0x80,
0x2e,0x00,0x0f,0x80,0x39,0x00,0x00,0x80,0x3c,0x00,0x00,0x80,0x45,0x00,0x05,0x90,
0x3b,0x43,0x00,0x90,0x3e,0x43,0x00,0x90,0x42,0x43,0x00,0x90,0x47,0x51,0x00,0x90,
0x2f,0x50,0x83,0x7f,0x80,0x2f,0x00,0x1f,0x90,0x23,0x49,0x83,0x5d,0x80,0x23,0x00,
0x1f,0x90,0x2f,0x4c,0x83,0x5a,0x80,0x2f,0x00,0x1f,0x90,0x2a,0x4b,0x81,0x68,0x80,
0x2a,0x00,0x10,0x90,0x2d,0x4b,0x81,0x76,0x80,0x2d,0x00,0x10,0x90,0x2f,0x4e,0x85,
0x75,0x80,0x2f,0x00,0x01,0x90,0x2f,0x4b,0x81,0x71,0x80,0x2f,0x00,0x82,0x11,0x90,
0x2a,0x4b,0x81,0x68,0x80,0x2a,0x00,0x10,0x90,0x2d,0x4b,0x83,0x5c,0x80,0x2d,0x00,
0x1e,0x80,0x3b,0x00,0x00,0x80,0x3e,0x00,0x00,0x80,0x42,0x00,0x00,0x80,0x47,0x00,
0x05,0x90,0x23,0x4e,0x83,0x7f,0x80,0x23,0x00,0x1f,0x90,0x36,0x43,0x00,0x90,0x3e,
0x43,0x00,0x90,0x42,0x51,0x00,0x90,0x2f,0x4b,0x83,0x5d,0x80,0x36,0x00,0x00,0x80,
0x3e,0x00,0x1e,0x80,0x42,0x00,0x01,0x90,0x39,0x44,0x00,0x90,0x45,0x52,0x83,0x5a,
0x80,0x39,0x00,0x1e,0x80,0x45,0x00,0x00,0x80,0x2f,0x00,0x01,0x90,0x3b,0x43,0x00,
0x90,0x47,0x51,0x00,0x90,0x2d,0x4b,0x83,0x5f,0x80,0x3b,0x00,0x1e,0x80,0x47,0x00,
0x01,0x90,0x3e,0x46,0x00,0x90,0x42,0x46,0x00,0x90,0x4a,0x54,0x83,0x5f,0x80,0x2d,
0x00,0x1f,0x90,0x2a,0x4b,0x81,0x77,0x80,0x3e,0x00,0x00,0x80,0x42,0x00,0x00,0x80,
0x4a,0x00,0x01,0x90,0x40,0x43,0x00,0x90,0x4c,0x51,0x85,0x5b,0x80,0x40,0x00,0x1e,
0x80,0x4c,0x00,0x00,0x80,0x2a,0x00,0x01,0x90,0x42,0x43,0x00,0x90,0x4e,0x51,0x00,
0x90,0x23,0x49,0x83,0x5c,0x80,0x42,0x00,0x00,0x80,0x23,0x00,0x1e,0x80,0x4e,0x00,
0x05,0x90,0x43,0x48,0x00,0x90,0x47,0x48,0x00,0x90,0x4c,0x48,0x00,0x90,0x4f,0x56,
0x00,0x90,0x24,0x4e,0x83,0x7f,0x80,0x24,0x00,0x1f,0x90,0x30,0x4b,0x81,0x78,0x80,
0x43,0x00,0x00,0x80,0x47,0x00,0x00,0x80,0x4c,0x00,0x00,0x80,0x4f,0x00,0x01,0x90,
0x42,0x43,0x00,0x90,0x47,0x43,0x00,0x90,0x4e,0x51,0x81,0x64,0x80,0x30,0x00,0x1f,
0x90,0x24,0x4a,0x83,0x5a,0x80,0x42,0x00,0x00,0x80,0x24,0x00,0x1e,0x80,0x47,0x00,
0x00,0x80,0x4e,0x00,0x01,0x90,0x40,0x43,0x00,0x90,0x47,0x43,0x00,0x90,0x4c,0x51,
0x00,0x90,0x2b,0x4b,0x81,0x68,0x80,0x2b,0x00,0x10,0x90,0x2d,0x4b,0x81,0x67,0x80,
0x40,0x00,0x0f,0x80,0x2d,0x00,0x0f,0x80,0x47,0x00,0x00,0x80,0x4c,0x00,0x01,0x90,
0x43,0x46,0x00,0x90,0x47,0x46,0x00,0x90,0x4f,0x54,0x00,0x90,0x30,0x4e,0x85,0x75,
0x80,0x43,0x00,0x00,0x80,0x47,0x00,0x00,0x80,0x4f,0x00,0x00,0x80,0x30,0x00,0x01,
0x90,0x42,0x43,0x00,0x90,0x45,0x43,0x00,0x90,0x4e,0x51,0x00,0x90,0x30,0x4b,0x81,
0x71,0x80,0x30,0x00,0x82,0x11,0x90,0x30,0x4b,0x81,0x59,0x80,0x42,0x00,0x00,0x80,
0x45,0x00,0x1e,0x80,0x4e,0x00,0x01,0x90,0x40,0x43,0x00,0x90,0x43,0x43,0x00,0x90,
0x47,0x43,0x00,0x90,0x4c,0x51,0x81,0x59,0x80,0x30,0x00,0x1f,0x90,0x2b,0x4b,0x81,
0x73,0x80,0x2b,0x00,0x14,0x90,0x24,0x4e,0x83,0x7f,0x80,0x24,0x00,0x1f,0x90,0x30,
0x4b,0x83,0x5d,0x80,0x30,0x00,0x1f,0x90,0x24,0x4a,0x83,0x5a,0x80,0x24,0x00,0x1e,
0x80,0x40,0x00,0x00,0x80,0x43,0x00,0x00,0x80,0x47,0x00,0x00,0x80,0x4c,0x00,0x01,
0x90,0x43,0x43,0x00,0x90,0x47,0x43,0x00,0x90,0x4c,0x43,0x00,0x90,0x4f,0x51,0x00,
0x90,0x2b,0x4b,0x81,0x68,0x80,0x2b,0x00,0x10,0x90,0x2d,0x4b,0x81,0x67,0x80,0x43,
0x00,0x0f,0x80,0x2d,0x00,0x0f,0x80,0x47,0x00,0x00,0x80,0x4c,0x00,0x00,0x80,0x4f,
0x00,0x01,0x90,0x42,0x46,0x00,0x90,0x47,0x46,0x00,0x90,0x4e,0x54,0x00,0x90,0x30,
0x4e,0x85,0x75,0x80,0x42,0x00,0x00,0x80,0x47,0x00,0x00,0x80,0x4e,0x00,0x00,0x80,
0x30,0x00,0x01,0x90,0x40,0x43,0x00,0x90,0x47,0x43,0x00,0x90,0x4c,0x51,0x00,0x90,
0x30,0x4b,0x81,0x71,0x80,0x30,0x00,0x82,0x11,0x90,0x30,0x4b,0x81,0x68,0x80,0x30,
0x00,0x10,0x90,0x32,0x4b,0x81,0x68,0x80,0x32,0x00,0x10,0x90,0x30,0x4b,0x81,0x73,
0x80,0x30,0x00,0x0f,0x80,0x40,0x00,0x00,0x80,0x47,0x00,0x00,0x80,0x4c,0x00,0x05,
0x90,0x3e,0x48,0x00,0x90,0x42,0x48,0x00,0x90,0x4a,0x56,0x00,0x90,0x2f,0x50,0x86,
0x16,0x80,0x3e,0x00,0x00,0x80,0x42,0x00,0x00,0x80,0x4a,0x00,0x00,0x80,0x2f,0x00,
0x01,0x90,0x3e,0x43,0x00,0x90,0x42,0x43,0x00,0x90,0x4a,0x4d,0x00,0x90,0x2f,0x4b,
0x81,0x73,0x80,0x2f,0x00,0x82,0x12,0x90,0x2d,0x4b,0x81,0x58,0x80,0x3e,0x00,0x0f,
0x80,0x2d,0x00,0x0f,0x80,0x42,0x00,0x00,0x80,0x4a,0x00,0x01,0x90,0x3b,0x43,0x00,
0x90,0x42,0x43,0x00,0x90,0x47,0x51,0x00,0x90,0x2f,0x4b,0x87,0x7b,0x80,0x2f,0x00,
0x01,0x90,0x2f,0x4b,0x83,0x5a,0x80,0x2f,0x00,0x1f,0x90,0x2d,0x4c,0x81,0x71,0x80,
0x2d,0x00,0x10,0x90,0x2e,0x4b,0x81,0x68,0x80,0x2e,0x00,0x10,0x90,0x2f,0x4b,0x83,
0x5c,0x80,0x2f,0x00,0x1e,0x80,0x3b,0x00,0x00,0x80,0x42,0x00,0x00,0x80,0x47,0x00,
0x05,0x90,0x39,0x48,0x00,0x90,0x3b,0x48,0x00,0x90,0x3e,0x48,0x00,0x90,0x45,0x56,
0x00,0x90,0x34,0x50,0x86,0x16,0x80,0x39,0x00,0x00,0x80,0x3b,0x00,0x00,0x80,0x3e,
0x00,0x00,0x80,0x45,0x00,0x00,0x80,0x34,0x00,0x01,0x90,0x39,0x43,0x00,0x90,0x3b,
0x43,0x00,0x90,0x3e,0x43,0x00,0x90,0x45,0x4d,0x00,0x90,0x34,0x4b,0x81,0x73,0x80,
0x34,0x00,0x82,0x12,0x90,0x2f,0x4b,0x81,0x58,0x80,0x39,0x00,0x0f,0x80,0x2f,0x00,
0x0f,0x80,0x3b,0x00,0x00,0x80,0x3e,0x00,0x00,0x80,0x45,0x00,0x01,0x90,0x38,0x43,
0x00,0x90,0x3b,0x43,0x00,0x90,0x3e,0x43,0x00,0x90,0x44,0x51,0x00,0x90,0x34,0x4b,
0x85,0x75,0x80,0x34,0x00,0x10,0x90,0x32,0x4b,0x81,0x67,0x80,0x32,0x00,0x10,0x90,
0x34,0x4b,0x81,0x68,0x80,0x34,0x00,0x10,0x90,0x2f,0x4b,0x81,0x71,0x80,0x2f,0x00,
0x0f,0x80,0x38,0x00,0x00,0x80,0x3b,0x00,0x00,0x80,0x3e,0x00,0x00,0x80,0x44,0x00,
0x01,0x90,0x3b,0x44,0x00,0x90,0x47,0x52,0x00,0x90,0x2d,0x4c,0x81,0x71,0x80,0x2d,
0x00,0x10,0x90,0x2b,0x4b,0x81,0x68,0x80,0x2b,0x00,0x10,0x90,0x28,0x4a,0x83,0x5c,
0x80,0x28,0x00,0x1e,0x80,0x3b,0x00,0x00,0x80,0x47,0x00,0x05,0x90,0x3c,0x48,0x00,
0x90,0x40,0x56,0x00,0x90,0x2d,0x50,0x86,0x16,0x80,0x3c,0x00,0x00,0x80,0x40,0x00,
0x00,0x80,0x2d,0x00,0x01,0x90,0x36,0x43,0x00,0x90,0x3c,0x43,0x00,0x90,0x42,0x51,
0x00,0x90,0x2d,0x4b,0x81,0x73,0x80,0x36,0x00,0x00,0x80,0x3c,0x00,0x0f,0x80,0x42,
0x00,0x83,0x5b,0x80,0x2d,0x00,0x1f,0x90,0x37,0x43,0x00,0x90,0x3d,0x43,0x00,0x90,
0x40,0x43,0x00,0x90,0x43,0x51,0x00,0x90,0x2e,0x4b,0x83,0x5f,0x80,0x2e,0x00,0x82,
0x26,0x90,0x2c,0x4b,0x81,0x67,0x80,0x2c,0x00,0x10,0x90,0x2e,0x4b,0x83,0x5a,0x80,
0x2e,0x00,0x1f,0x90,0x22,0x4a,0x83,0x5a,0x80,0x22,0x00,0x1e,0x80,0x37,0x00,0x00,
0x80,0x3d,0x00,0x00,0x80,0x40,0x00,0x00,0x80,0x43,0x00,0x01,0x90,0x37,0x43,0x00,
0x90,0x3d,0x43,0x00,0x90,0x40,0x43,0x00,0x90,0x43,0x51,0x00,0x90,0x2e,0x4b,0x83,
0x5c,0x80,0x37,0x00,0x00,0x80,0x3d,0x00,0x00,0x80,0x2e,0x00,0x1e,0x80,0x40,0x00,
0x00,0x80,0x43,0x00,0x05,0x90,0x39,0x48,0x00,0x90,0x3e,0x48,0x00,0x90,0x42,0x48,
0x00,0x90,0x45,0x56,0x00,0x90,0x2f,0x50,0x86,0x16,0x80,0x39,0x00,0x00,0x80,0x3e,
0x00,0x00,0x80,0x42,0x00,0x00,0x80,0x45,0x00,0x00,0x80,0x2f,0x00,0x01,0x90,0x3b,
0x43,0x00,0x90,0x3e,0x43,0x00,0x90,0x47,0x51,0x00,0x90,0x2f,0x4b,0x81,0x73,0x80,
0x3b,0x00,0x00,0x80,0x3e,0x00,0x0f,0x80,0x47,0x00,0x83,0x5b,0x80,0x2f,0x00,0x1f,
0x90,0x3d,0x43,0x00,0x90,0x40,0x43,0x00,0x90,0x43,0x43,0x00,0x90,0x49,0x51,0x00,
0x90,0x31,0x4b,0x83,0x5f,0x80,0x31,0x00,0x82,0x26,0x90,0x2f,0x4b,0x81,0x67,0x80,
0x2f,0x00,0x10,0x90,0x31,0x4b,0x83,0x5a,0x80,0x31,0x00,0x1e,0x80,0x3d,0x00,0x00,
0x80,0x40,0x00,0x00,0x80,0x43,0x00,0x00,0x80,0x49,0x00,0x01,0x90,0x43,0x44,0x00,
0x90,0x4f,0x52,0x00,0x90,0x25,0x4b,0x83,0x5a,0x80,0x25,0x00,0x1f,0x90,0x31,0x4b,
0x83,0x5c,0x80,0x31,0x00,0x1e,0x80,0x43,0x00,0x00,0x80,0x4f,0x00,0x05,0x90,0x43,
0x43,0x00,0x90,0x46,0x43,0x00,0x90,0x4c,0x43,0x00,0x90,0x4f,0x51,0x00,0x90,0x2a,
0x50,0x84,0x1d,0x80,0x2a,0x00,0x01,0x90,0x2a,0x4c,0x83,0x5d,0x80,0x2a,0x00,0x1f,
0x90,0x46,0x4d,0x82,0x02,0x90,0x25,0x4d,0x81,0x67,0x80,0x25,0x00,0x10,0x90,0x28,
0x4e,0x81,0x68,0x80,0x28,0x00,0x10,0x90,0x25,0x4f,0x81,0x76,0x80,0x25,0x00,0x0f,
0x80,0x46,0x00,0x01,0x90,0x49,0x49,0x00,0x90,0x4c,0x57,0x00,0x90,0x2a,0x51,0x83,
0x5f,0x80,0x2a,0x00,0x1f,0x90,0x1e,0x4e,0x83,0x5a,0x80,0x1e,0x00,0x1e,0x80,0x49,
0x00,0x00,0x80,0x4c,0x00,0x01,0x90,0x4f,0x54,0x00,0x90,0x22,0x52,0x83,0x5a,0x80,
0x22,0x00,0x1f,0x90,0x2a,0x56,0x83,0x5c,0x80,0x2a,0x00,0x1e,0x80,0x4f,0x00,0x00,
0x80,0x43,0x00,0x00,0x80,0x46,0x00,0x00,0x80,0x4c,0x00,0x00,0x80,0x4f,0x00,0x05,
0x90,0x42,0x55,0x00,0x90,0x45,0x55,0x00,0x90,0x4b,0x55,0x00,0x90,0x4e,0x63,0x00,
0x90,0x23,0x53,0x00,0x90,0x2f,0x63,0x83,0x33,0x80,0x42,0x00,0x00,0x80,0x45,0x00,
0x00,0x80,0x4b,0x00,0x00,0x80,0x4e,0x00,0x00,0x80,0x23,0x00,0x00,0x80,0x2f,0x00,
0x8c,0x5e,0x90,0x53,0x5b,0x81,0x77,0x80,0x53,0x00,0x10,0x90,0x51,0x58,0x81,0x67,
0x80,0x51,0x00,0x10,0x90,0x4e,0x58,0x81,0x68,0x80,0x4e,0x00,0x10,0x90,0x4b,0x58,
0x81,0x71,0x80,0x4b,0x00,0x10,0x90,0x49,0x59,0x81,0x71,0x80,0x49,0x00,0x10,0x90,
0x47,0x58,0x81,0x68,0x80,0x47,0x00,0x10,0x90,0x45,0x58,0x00,0x90,0x2f,0x58,0x81,
0x68,0x80,0x45,0x00,0x10,0x90,0x42,0x58,0x81,0x64,0x80,0x2f,0x00,0x0f,0x80,0x42,
0x00,0x14,0x90,0x43,0x55,0x00,0x90,0x47,0x55,0x00,0x90,0x4c,0x55,0x00,0x90,0x4f,
0x63,0x00,0x90,0x28,0x5c,0x81,0x4c,0x80,0x47,0x00,0x1e,0x80,0x43,0x00,0x00,0x80,
0x4c,0x00,0x00,0x80,0x4f,0x00,0x82,0x15,0x80,0x28,0x00,0x1f,0x90,0x42,0x50,0x00,
0x90,0x45,0x50,0x00,0x90,0x4a,0x50,0x00,0x90,0x4e,0x5e,0x00,0x90,0x34,0x58,0x81,
0x2a,0x80,0x45,0x00,0x1e,0x80,0x42,0x00,0x00,0x80,0x4a,0x00,0x00,0x80,0x4e,0x00,
0x82,0x15,0x80,0x34,0x00,0x1f,0x90,0x40,0x51,0x00,0x90,0x43,0x51,0x00,0x90,0x47,
0x51,0x00,0x90,0x4c,0x5f,0x00,0x90,0x28,0x58,0x83,0x10,0x80,0x40,0x00,0x00,0x80,
0x43,0x00,0x00,0x80,0x47,0x00,0x00,0x80,0x4c,0x00,0x4a,0x80,0x28,0x00,0x1f,0x90,
0x34,0x58,0x83,0x5f,0x80,0x34,0x00,0x1f,0x90,0x40,0x53,0x00,0x90,0x43,0x53,0x00,
0x90,0x47,0x53,0x00,0x90,0x4c,0x61,0x00,0x90,0x28,0x5a,0x83,0x5f,0x80,0x28,0x00,
0x1f,0x90,0x34,0x58,0x81,0x77,0x80,0x40,0x00,0x00,0x80,0x43,0x00,0x00,0x80,0x47,
0x00,0x00,0x80,0x4c,0x00,0x01,0x90,0x42,0x50,0x00,0x90,0x47,0x50,0x00,0x90,0x4e,
0x5e,0x81,0x62,0x80,0x34,0x00,0x1f,0x90,0x28,0x58,0x83,0x5a,0x80,0x42,0x00,0x00,
0x80,0x47,0x00,0x00,0x80,0x28,0x00,0x1e,0x80,0x4e,0x00,0x01,0x90,0x4c,0x50,0x00,
0x90,0x4f,0x5e,0x00,0x90,0x26,0x57,0x81,0x68,0x80,0x4c,0x00,0x0f,0x80,0x4f,0x00,
0x01,0x90,0x4e,0x50,0x00,0x90,0x51,0x5e,0x81,0x64,0x80,0x26,0x00,0x0f,0x80,0x4e,
0x00,0x0f,0x80,0x51,0x00,0x05,0x90,0x47,0x55,0x00,0x90,0x4c,0x55,0x00,0x90,0x4f,
0x55,0x00,0x90,0x53,0x63,0x00,0x90,0x24,0x5b,0x81,0x6a,0x80,0x47,0x00,0x00,0x80,
0x4c,0x00,0x00,0x80,0x4f,0x00,0x00,0x80,0x53,0x00,0x82,0x15,0x80,0x24,0x00,0x1f,
0x90,0x45,0x50,0x00,0x90,0x47,0x50,0x00,0x90,0x4c,0x50,0x00,0x90,0x51,0x5e,0x00,
0x90,0x30,0x58,0x81,0x48,0x80,0x45,0x00,0x00,0x80,0x47,0x00,0x00,0x80,0x4c,0x00,
0x00,0x80,0x51,0x00,0x82,0x15,0x80,0x30,0x00,0x1f,0x90,0x43,0x51,0x00,0x90,0x47,
0x51,0x00,0x90,0x4c,0x51,0x00,0x90,0x4f,0x5f,0x00,0x90,0x24,0x57,0x83,0x10,0x80,
0x43,0x00,0x00,0x80,0x47,0x00,0x00,0x80,0x4c,0x00,0x00,0x80,0x4f,0x00,0x4a,0x80,
0x24,0x00,0x1f,0x90,0x30,0x58,0x83,0x7d,0x80,0x30,0x00,0x01,0x90,0x43,0x53,0x00,
0x90,0x48,0x53,0x00,0x90,0x4c,0x53,0x00,0x90,0x4f,0x61,0x00,0x90,0x24,0x51,0x00,
0x90,0x30,0x61,0x83,0x5f,0x80,0x24,0x00,0x1e,0x80,0x30,0x00,0x01,0x90,0x30,0x58,
0x81,0x68,0x80,0x30,0x00,0x0f,0x80,0x43,0x00,0x00,0x80,0x48,0x00,0x00,0x80,0x4c,
0x00,0x00,0x80,0x4f,0x00,0x01,0x90,0x42,0x50,0x00,0x90,0x45,0x50,0x00,0x90,0x4a,
0x50,0x00,0x90,0x4e,0x5e,0x00,0x90,0x26,0x4f,0x00,0x90,0x32,0x5a,0x85,0x5b,0x80,
0x26,0x00,0x1e,0x80,0x32,0x00,0x01,0x90,0x32,0x58,0x83,0x5c,0x80,0x32,0x00,0x1e,
0x80,0x42,0x00,0x00,0x80,0x45,0x00,0x00,0x80,0x4a,0x00,0x00,0x80,0x4e,0x00,0x05,
0x90,0x43,0x55,0x00,0x90,0x47,0x55,0x00,0x90,0x4c,0x55,0x00,0x90,0x4f,0x63,0x00,
0x90,0x28,0x5c,0x81,0x4c,0x80,0x47,0x00,0x1e,0x80,0x43,0x00,0x00,0x80,0x4c,0x00,
0x00,0x80,0x4f,0x00,0x82,0x15,0x80,0x28,0x00,0x1f,0x90,0x42,0x50,0x00,0x90,0x45,
0x50,0x00,0x90,0x4a,0x50,0x00,0x90,0x4e,0x5e,0x00,0x90,0x34,0x58,0x81,0x2a,0x80,
0x45,0x00,0x1e,0x80,0x42,0x00,0x00,0x80,0x4a,0x00,0x00,0x80,0x4e,0x00,0x82,0x15,
0x80,0x34,0x00,0x1f,0x90,0x40,0x51,0x00,0x90,0x43,0x51,0x00,0x90,0x47,0x51,0x00,
0x90,0x4c,0x5f,0x00,0x90,0x28,0x58,0x83,0x10,0x80,0x40,0x00,0x00,0x80,0x43,0x00,
0x00,0x80,0x47,0x00,0x00,0x80,0x4c,0x00,0x4a,0x80,0x28,0x00,0x1f,0x90,0x34,0x58,
0x83,0x5f,0x80,0x34,0x00,0x1f,0x90,0x40,0x53,0x00,0x90,0x43,0x53,0x00,0x90,0x47,
0x53,0x00,0x90,0x4c,0x61,0x00,0x90,0x28,0x5a,0x83,0x5f,0x80,0x28,0x00,0x1f,0x90,
0x34,0x58,0x81,0x77,0x80,0x40,0x00,0x00,0x80,0x43,0x00,0x00,0x80,0x47,0x00,0x00,
0x80,0x4c,0x00,0x01,0x90,0x42,0x50,0x00,0x90,0x47,0x50,0x00,0x90,0x4e,0x5e,0x81,
0x62,0x80,0x34,0x00,0x1f,0x90,0x28,0x58,0x83,0x5a,0x80,0x42,0x00,0x00,0x80,0x47,
0x00,0x00,0x80,0x28,0x00,0x1e,0x80,0x4e,0x00,0x01,0x90,0x4c,0x50,0x00,0x90,0x4f,
0x5e,0x00,0x90,0x26,0x57,0x81,0x68,0x80,0x4c,0x00,0x0f,0x80,0x4f,0x00,0x01,0x90,
0x4e,0x50,0x00,0x90,0x51,0x5e,0x81,0x64,0x80,0x26,0x00,0x0f,0x80,0x4e,0x00,0x0f,
0x80,0x51,0x00,0x05,0x90,0x47,0x55,0x00,0x90,0x4c,0x55,0x00,0x90,0x4f,0x55,0x00,
0x90,0x53,0x63,0x00,0x90,0x24,0x5b,0x81,0x6a,0x80,0x47,0x00,0x00,0x80,0x4c,0x00,
0x00,0x80,0x4f,0x00,0x00,0x80,0x53,0x00,0x82,0x15,0x80,0x24,0x00,0x1f,0x90,0x45,
0x50,0x00,0x90,0x47,0x50,0x00,0x90,0x4c,0x50,0x00,0x90,0x51,0x5e,0x00,0x90,0x30,
0x58,0x81,0x48,0x80,0x45,0x00,0x00,0x80,0x47,0x00,0x00,0x80,0x4c,0x00,0x00,0x80,
0x51,0x00,0x82,0x15,0x80,0x30,0x00,0x1f,0x90,0x43,0x51,0x00,0x90,0x47,0x51,0x00,
0x90,0x4c,0x51,0x00,0x90,0x4f,0x5f,0x00,0x90,0x24,0x57,0x83,0x10,0x80,0x43,0x00,
0x00,0x80,0x47,0x00,0x00,0x80,0x4c,0x00,0x00,0x80,0x4f,0x00,0x4a,0x80,0x24,0x00,
0x1f,0x90,0x30,0x58,0x83,0x7d,0x80,0x30,0x00,0x01,0x90,0x43,0x53,0x00,0x90,0x48,
0x53,0x00,0x90,0x4c,0x53,0x00,0x90,0x4f,0x61,0x00,0x90,0x24,0x51,0x00,0x90,0x30,
0x61,0x83,0x5f,0x80,0x24,0x00,0x1e,0x80,0x30,0x00,0x01,0x90,0x30,0x58,0x81,0x68,
0x80,0x30,0x00,0x0f,0x80,0x43,0x00,0x00,0x80,0x48,0x00,0x00,0x80,0x4c,0x00,0x00,
0x80,0x4f,0x00,0x01,0x90,0x42,0x50,0x00,0x90,0x45,0x50,0x00,0x90,0x4a,0x50,0x00,
0x90,0x4e,0x5e,0x00,0x90,0x26,0x4f,0x00,0x90,0x32,0x5a,0x84,0x01,0x80,0x26,0x00,
0x00,0x80,0x32,0x00,0x01,0x90,0x26,0x57,0x81,0x68,0x80,0x26,0x00,0x10,0x90,0x32,
0x58,0x83,0x5c,0x80,0x32,0x00,0x1e,0x80,0x42,0x00,0x00,0x80,0x45,0x00,0x00,0x80,
0x4a,0x00,0x00,0x80,0x4e,0x00,0x05,0x90,0x43,0x55,0x00,0x90,0x47,0x55,0x00,0x90,
0x4c,0x55,0x00,0x90,0x4f,0x63,0x00,0x90,0x28,0x5c,0x81,0x4c,0x80,0x47,0x00,0x1e,
0x80,0x43,0x00,0x00,0x80,0x4c,0x00,0x00,0x80,0x4f,0x00,0x82,0x15,0x80,0x28,0x00,
0x1f,0x90,0x42,0x50,0x00,0x90,0x45,0x50,0x00,0x90,0x4a,0x50,0x00,0x90,0x4e,0x5e,
0x00,0x90,0x34,0x58,0x81,0x2a,0x80,0x45,0x00,0x1e,0x80,0x42,0x00,0x00,0x80,0x4a,
0x00,0x00,0x80,0x4e,0x00,0x82,0x15,0x80,0x34,0x00,0x1f,0x90,0x40,0x51,0x00,0x90,
0x43,0x51,0x00,0x90,0x47,0x51,0x00,0x90,0x4c,0x5f,0x00,0x90,0x28,0x58,0x83,0x10,
0x80,0x40,0x00,0x00,0x80,0x43,0x00,0x00,0x80,0x47,0x00,0x00,0x80,0x4c,0x00,0x4a,
0x80,0x28,0x00,0x1f,0x90,0x34,0x58,0x83,0x5f,0x80,0x34,0x00,0x1f,0x90,0x40,0x53,
0x00,0x90,0x43,0x53,0x00,0x90,0x47,0x53,0x00,0x90,0x4c,0x61,0x00,0x90,0x28,0x5a,
0x83,0x5f,0x80,0x28,0x00,0x1f,0x90,0x34,0x58,0x81,0x77,0x80,0x40,0x00,0x00,0x80,
0x43,0x00,0x00,0x80,0x47,0x00,0x00,0x80,0x4c,0x00,0x01,0x90,0x42,0x50,0x00,0x90,
0x47,0x50,0x00,0x90,0x4e,0x5e,0x81,0x62,0x80,0x34,0x00,0x1f,0x90,0x28,0x58,0x83,
0x5a,0x80,0x42,0x00,0x00,0x80,0x47,0x00,0x00,0x80,0x28,0x00,0x1e,0x80,0x4e,0x00,
0x01,0x90,0x4c,0x50,0x00,0x90,0x4f,0x5e,0x00,0x90,0x26,0x57,0x81,0x68,0x80,0x4c,
0x00,0x0f,0x80,0x4f,0x00,0x01,0x90,0x4e,0x50,0x00,0x90,0x51,0x5e,0x81,0x64,0x80,
0x26,0x00,0x0f,0x80,0x4e,0x00,0x0f,0x80,0x51,0x00,0x05,0x90,0x47,0x55,0x00,0x90,
0x4c,0x55,0x00,0x90,0x4f,0x55,0x00,0x90,0x53,0x63,0x00,0x90,0x24,0x5b,0x81,0x6a,
0x80,0x47,0x00,0x00,0x80,0x4c,0x00,0x00,0x80,0x4f,0x00,0x00,0x80,0x53,0x00,0x82,
0x15,0x80,0x24,0x00,0x1f,0x90,0x45,0x50,0x00,0x90,0x47,0x50,0x00,0x90,0x4c,0x50,
0x00,0x90,0x51,0x5e,0x00,0x90,0x30,0x58,0x81,0x48,0x80,0x45,0x00,0x00,0x80,0x47,
0x00,0x00,0x80,0x4c,0x00,0x00,0x80,0x51,0x00,0x82,0x15,0x80,0x30,0x00,0x1f,0x90,
0x43,0x51,0x00,0x90,0x47,0x51,0x00,0x90,0x4c,0x51,0x00,0x90,0x4f,0x5f,0x00,0x90,
0x24,0x57,0x83,0x10,0x80,0x43,0x00,0x00,0x80,0x47,0x00,0x00,0x80,0x4c,0x00,0x00,
0x80,0x4f,0x00,0x4a,0x80,0x24,0x00,0x1f,0x90,0x30,0x58,0x83,0x7d,0x80,0x30,0x00,
0x01,0x90,0x43,0x53,0x00,0x90,0x48,0x53,0x00,0x90,0x4c,0x53,0x00,0x90,0x4f,0x61,
0x00,0x90,0x24,0x51,0x00,0x90,0x30,0x61,0x83,0x5f,0x80,0x24,0x00,0x1e,0x80,0x30,
0x00,0x01,0x90,0x30,0x58,0x81,0x68,0x80,0x30,0x00,0x0f,0x80,0x43,0x00,0x00,0x80,
0x48,0x00,0x00,0x80,0x4c,0x00,0x00,0x80,0x4f,0x00,0x01,0x90,0x42,0x50,0x00,0x90,
0x45,0x50,0x00,0x90,0x4a,0x50,0x00,0x90,0x4e,0x5e,0x00,0x90,0x26,0x4f,0x00,0x90,
0x32,0x5a,0x85,0x5b,0x80,0x26,0x00,0x1e,0x80,0x32,0x00,0x01,0x90,0x32,0x58,0x83,
0x5c,0x80,0x32,0x00,0x1e,0x80,0x42,0x00,0x00,0x80,0x45,0x00,0x00,0x80,0x4a,0x00,
0x00,0x80,0x4e,0x00,0x05,0x90,0x43,0x55,0x00,0x90,0x47,0x55,0x00,0x90,0x4c,0x55,
0x00,0x90,0x4f,0x63,0x00,0x90,0x28,0x5c,0x81,0x4c,0x80,0x47,0x00,0x1e,0x80,0x43,
0x00,0x00,0x80,0x4c,0x00,0x00,0x80,0x4f,0x00,0x82,0x15,0x80,0x28,0x00,0x1f,0x90,
0x42,0x50,0x00,0x90,0x45,0x50,0x00,0x90,0x4a,0x50,0x00,0x90,0x4e,0x5e,0x00,0x90,
0x34,0x58,0x81,0x2a,0x80,0x45,0x00,0x1e,0x80,0x42,0x00,0x00,0x80,0x4a,0x00,0x00,
0x80,0x4e,0x00,0x82,0x15,0x80,0x34,0x00,0x1f,0x90,0x40,0x51,0x00,0x90,0x43,0x51,
0x00,0x90,0x47,0x51,0x00,0x90,0x4c,0x5f,0x00,0x90,0x28,0x58,0x83,0x10,0x80,0x40,
0x00,0x00,0x80,0x43,0x00,0x00,0x80,0x47,0x00,0x00,0x80,0x4c,0x00,0x4a,0x80,0x28,
0x00,0x1f,0x90,0x34,0x58,0x83,0x5f,0x80,0x34,0x00,0x1f,0x90,0x40,0x53,0x00,0x90,
0x43,0x53,0x00,0x90,0x47,0x53,0x00,0x90,0x4c,0x61,0x00,0x90,0x28,0x5a,0x83,0x5f,
0x80,0x28,0x00,0x1f,0x90,0x34,0x58,0x81,0x77,0x80,0x40,0x00,0x00,0x80,0x43,0x00,
0x00,0x80,0x47,0x00,0x00,0x80,0x4c,0x00,0x01,0x90,0x42,0x50,0x00,0x90,0x47,0x50,
0x00,0x90,0x4e,0x5e,0x81,0x62,0x80,0x34,0x00,0x1f,0x90,0x28,0x58,0x83,0x5a,0x80,
0x42,0x00,0x00,0x80,0x47,0x00,0x00,0x80,0x28,0x00,0x1e,0x80,0x4e,0x00,0x01,0x90,
0x4c,0x50,0x00,0x90,0x4f,0x5e,0x00,0x90,0x26,0x57,0x81,0x68,0x80,0x4c,0x00,0x0f,
0x80,0x4f,0x00,0x01,0x90,0x4e,0x50,0x00,0x90,0x51,0x5e,0x81,0x64,0x80,0x26,0x00,
0x0f,0x80,0x4e,0x00,0x0f,0x80,0x51,0x00,0x05,0x90,0x47,0x55,0x00,0x90,0x4c,0x55,
0x00,0x90,0x4f,0x55,0x00,0x90,0x53,0x63,0x00,0x90,0x24,0x5b,0x81,0x6a,0x80,0x47,
0x00,0x00,0x80,0x4c,0x00,0x00,0x80,0x4f,0x00,0x00,0x80,0x53,0x00,0x82,0x15,0x80,
0x24,0x00,0x1f,0x90,0x45,0x50,0x00,0x90,0x47,0x50,0x00,0x90,0x4c,0x50,0x00,0x90,
0x51,0x5e,0x00,0x90,0x30,0x58,0x81,0x48,0x80,0x45,0x00,0x00,0x80,0x47,0x00,0x00,
0x80,0x4c,0x00,0x00,0x80,0x51,0x00,0x82,0x15,0x80,0x30,0x00,0x1f,0x90,0x43,0x51,
0x00,0x90,0x47,0x51,0x00,0x90,0x4c,0x51,0x00,0x90,0x4f,0x5f,0x00,0x90,0x24,0x57,
0x83,0x10,0x80,0x43,0x00,0x00,0x80,0x47,0x00,0x00,0x80,0x4c,0x00,0x00,0x80,0x4f,
0x00,0x4a,0x80,0x24,0x00,0x1f,0x90,0x30,0x58,0x83,0x7d,0x80,0x30,0x00,0x01,0x90,
0x43,0x53,0x00,0x90,0x48,0x53,0x00,0x90,0x4c,0x53,0x00,0x90,0x4f,0x61,0x00,0x90,
0x24,0x51,0x00,0x90,0x30,0x61,0x83,0x5f,0x80,0x24,0x00,0x1e,0x80,0x30,0x00,0x01,
0x90,0x30,0x58,0x81,0x68,0x80,0x30,0x00,0x0f,0x80,0x43,0x00,0x00,0x80,0x48,0x00,
0x00,0x80,0x4c,0x00,0x00,0x80,0x4f,0x00,0x01,0x90,0x42,0x50,0x00,0x90,0x45,0x50,
0x00,0x90,0x4a,0x50,0x00,0x90,0x4e,0x5e,0x00,0x90,0x26,0x4f,0x00,0x90,0x32,0x5a,
0x84,0x01,0x80,0x26,0x00,0x00,0x80,0x32,0x00,0x01,0x90,0x26,0x57,0x81,0x68,0x80,
0x26,0x00,0x10,0x90,0x32,0x58,0x83,0x5c,0x80,0x32,0x00,0x1e,0x80,0x42,0x00,0x00,
0x80,0x45,0x00,0x00,0x80,0x4a,0x00,0x00,0x80,0x4e,0x00,0x05,0x90,0x41,0x48,0x00,
0x90,0x43,0x48,0x00,0x90,0x47,0x56,0x00,0x90,0x29,0x50,0x83,0x7f,0x80,0x41,0x00,
0x00,0x80,0x43,0x00,0x00,0x80,0x29,0x00,0x1e,0x80,0x47,0x00,0x01,0x90,0x35,0x4b,
0x81,0x79,0x90,0x41,0x43,0x00,0x90,0x43,0x43,0x00,0x90,0x47,0x51,0x81,0x64,0x80,
0x35,0x00,0x0f,0x80,0x41,0x00,0x00,0x80,0x43,0x00,0x0f,0x80,0x47,0x00,0x01,0x90,
0x29,0x4c,0x83,0x5a,0x80,0x29,0x00,0x1f,0x90,0x41,0x43,0x00,0x90,0x45,0x43,0x00,
0x90,0x48,0x51,0x00,0x90,0x35,0x4b,0x83,0x5f,0x80,0x41,0x00,0x00,0x80,0x45,0x00,
0x00,0x80,0x35,0x00,0x1e,0x80,0x48,0x00,0x01,0x90,0x29,0x4e,0x83,0x5f,0x80,0x29,
0x00,0x1f,0x90,0x35,0x4b,0x83,0x5a,0x80,0x35,0x00,0x1f,0x90,0x29,0x4c,0x83,0x5a,
0x80,0x29,0x00,0x1f,0x90,0x35,0x4b,0x83,0x5c,0x80,0x35,0x00,0x23,0x90,0x41,0x48,
0x00,0x90,0x47,0x48,0x00,0x90,0x4a,0x56,0x00,0x90,0x29,0x50,0x83,0x7f,0x80,0x41,
0x00,0x00,0x80,0x47,0x00,0x00,0x80,0x29,0x00,0x1e,0x80,0x4a,0x00,0x01,0x90,0x35,
0x4b,0x81,0x79,0x90,0x41,0x43,0x00,0x90,0x47,0x43,0x00,0x90,0x4a,0x51,0x81,0x64,
0x80,0x35,0x00,0x0f,0x80,0x41,0x00,0x00,0x80,0x47,0x00,0x0f,0x80,0x4a,0x00,0x01,
0x90,0x29,0x4c,0x83,0x5a,0x80,0x29,0x00,0x1f,0x90,0x41,0x43,0x00,0x90,0x45,0x43,
0x00,0x90,0x48,0x51,0x00,0x90,0x35,0x4b,0x83,0x5f,0x80,0x41,0x00,0x00,0x80,0x45,
0x00,0x00,0x80,0x35,0x00,0x1e,0x80,0x48,0x00,0x01,0x90,0x29,0x4e,0x83,0x5f,0x80,
0x29,0x00,0x1f,0x90,0x35,0x4b,0x83,0x5a,0x80,0x35,0x00,0x1f,0x90,0x29,0x4c,0x83,
0x5a,0x80,0x29,0x00,0x1f,0x90,0x35,0x4b,0x83,0x5c,0x80,0x35,0x00,0x23,0x90,0x41,
0x48,0x00,0x90,0x43,0x48,0x00,0x90,0x47,0x56,0x00,0x90,0x29,0x50,0x83,0x7f,0x80,
0x41,0x00,0x00,0x80,0x43,0x00,0x00,0x80,0x29,0x00,0x1e,0x80,0x47,0x00,0x01,0x90,
0x35,0x4b,0x81,0x79,0x90,0x41,0x43,0x00,0x90,0x43,0x43,0x00,0x90,0x47,0x51,0x81,
0x64,0x80,0x35,0x00,0x0f,0x80,0x41,0x00,0x00,0x80,0x43,0x00,0x0f,0x80,0x47,0x00,
0x01,0x90,0x29,0x4c,0x83,0x5a,0x80,0x29,0x00,0x1f,0x90,0x41,0x43,0x00,0x90,0x45,
0x43,0x00,0x90,0x48,0x51,0x00,0x90,0x35,0x4b,0x83,0x5f,0x80,0x41,0x00,0x00,0x80,
0x45,0x00,0x00,0x80,0x35,0x00,0x1e,0x80,0x48,0x00,0x01,0x90,0x29,0x4e,0x83,0x5f,
0x80,0x29,0x00,0x1f,0x90,0x35,0x4b,0x83,0x5a,0x80,0x35,0x00,0x1f,0x90,0x29,0x4c,
0x83,0x5a,0x80,0x29,0x00,0x1f,0x90,0x35,0x4b,0x83,0x5c,0x80,0x35,0x00,0x23,0x90,
0x41,0x48,0x00,0x90,0x47,0x48,0x00,0x90,0x4a,0x56,0x00,0x90,0x29,0x50,0x83,0x7f,
0x80,0x41,0x00,0x00,0x80,0x47,0x00,0x00,0x80,0x29,0x00,0x1e,0x80,0x4a,0x00,0x01,
0x90,0x35,0x4b,0x81,0x79,0x90,0x41,0x43,0x00,0x90,0x47,0x43,0x00,0x90,0x4a,0x51,
0x81,0x64,0x80,0x35,0x00,0x0f,0x80,0x41,0x00,0x00,0x80,0x47,0x00,0x0f,0x80,0x4a,
0x00,0x01,0x90,0x29,0x4c,0x83,0x5a,0x80,0x29,0x00,0x1f,0x90,0x41,0x43,0x00,0x90,
0x45,0x43,0x00,0x90,0x48,0x51,0x00,0x90,0x35,0x4b,0x83,0x5f,0x80,0x41,0x00,0x00,
0x80,0x45,0x00,0x00,0x80,0x35,0x00,0x1e,0x80,0x48,0x00,0x01,0x90,0x29,0x4e,0x83,
0x5f,0x80,0x29,0x00,0x1f,0x90,0x35,0x4b,0x83,0x5a,0x80,0x35,0x00,0x1f,0x90,0x29,
0x4c,0x83,0x5a,0x80,0x29,0x00,0x1f,0x90,0x35,0x4b,0x83,0x5c,0x80,0x35,0x00,0x23,
0x90,0x43,0x6b,0x00,0x90,0x47,0x6b,0x00,0x90,0x4a,0x6b,0x00,0x90,0x51,0x79,0x00,
0x90,0x2d,0x6b,0x00,0x90,0x39,0x75,0x86,0x16,0x80,0x43,0x00,0x00,0x80,0x47,0x00,
0x00,0x80,0x4a,0x00,0x00,0x80,0x51,0x00,0x00,0x80,0x2d,0x00,0x00,0x80,0x39,0x00,
0x01,0x90,0x43,0x66,0x00,0x90,0x47,0x66,0x00,0x90,0x4a,0x66,0x00,0x90,0x51,0x70,
0x00,0x90,0x2d,0x66,0x00,0x90,0x39,0x70,0x85,0x5d,0x80,0x47,0x00,0x1e,0x80,0x43,
0x00,0x00,0x80,0x4a,0x00,0x00,0x80,0x51,0x00,0x00,0x80,0x2d,0x00,0x00,0x80,0x39,
0x00,0x01,0x90,0x43,0x66,0x00,0x90,0x49,0x71,0x00,0x90,0x4c,0x71,0x00,0x90,0x51,
0x6c,0x00,0x90,0x2d,0x66,0x00,0x90,0x39,0x70,0x83,0x5f,0x80,0x43,0x00,0x00,0x80,
0x49,0x00,0x00,0x80,0x4c,0x00,0x00,0x80,0x2d,0x00,0x1e,0x80,0x51,0x00,0x00,0x80,
0x39,0x00,0x83,0x7f,0x90,0x39,0x58,0x74,0x80,0x39,0x00,0x08,0x90,0x3d,0x58,0x74,
0x80,0x3d,0x00,0x08,0x90,0x40,0x58,0x75,0x80,0x40,0x00,0x08,0x90,0x45,0x58,0x7c,
0x80,0x45,0x00,0x08,0x90,0x49,0x59,0x7c,0x80,0x49,0x00,0x08,0x90,0x4c,0x58,0x75,
0x80,0x4c,0x00,0x08,0x90,0x51,0x58,0x74,0x80,0x51,0x00,0x08,0x90,0x55,0x58,0x74,
0x80,0x55,0x00,0x08,0x90,0x51,0x58,0x73,0x80,0x51,0x00,0x08,0x90,0x4c,0x58,0x75,
0x80,0x4c,0x00,0x08,0x90,0x49,0x58,0x81,0x73,0x80,0x49,0x00,0x14,0x90,0x45,0x6d,
0x00,0x90,0x4a,0x55,0x00,0x90,0x4d,0x55,0x00,0x90,0x51,0x5f,0x00,0x90,0x26,0x73,
0x83,0x7f,0x80,0x26,0x00,0x1f,0x90,0x32,0x58,0x83,0x5d,0x80,0x32,0x00,0x1f,0x90,
0x26,0x4b,0x83,0x5a,0x80,0x26,0x00,0x1f,0x90,0x32,0x4b,0x83,0x5f,0x80,0x32,0x00,
0x1f,0x90,0x26,0x4d,0x83,0x5f,0x80,0x45,0x00,0x00,0x80,0x4a,0x00,0x00,0x80,0x26,
0x00,0x1e,0x80,0x4d,0x00,0x00,0x80,0x51,0x00,0x01,0x90,0x40,0x43,0x00,0x90,0x4c,
0x51,0x00,0x90,0x32,0x4b,0x83,0x5a,0x80,0x40,0x00,0x00,0x80,0x32,0x00,0x1e,0x80,
0x4c,0x00,0x01,0x90,0x41,0x44,0x00,0x90,0x4d,0x52,0x00,0x90,0x26,0x4b,0x83,0x5a,
0x80,0x41,0x00,0x00,0x80,0x26,0x00,0x1e,0x80,0x4d,0x00,0x01,0x90,0x3e,0x43,0x00,
0x90,0x43,0x43,0x00,0x90,0x4a,0x51,0x00,0x90,0x2b,0x4b,0x83,0x5c,0x80,0x2b,0x00,
0x23,0x90,0x1f,0x4d,0x83,0x7f,0x80,0x1f,0x00,0x1f,0x90,0x2b,0x4b,0x83,0x5d,0x80,
0x2b,0x00,0x1f,0x90,0x1f,0x49,0x83,0x5a,0x80,0x1f,0x00,0x1f,0x90,0x2b,0x4b,0x83,
0x5f,0x80,0x2b,0x00,0x1f,0x90,0x1f,0x4b,0x83,0x5f,0x80,0x1f,0x00,0x1f,0x90,0x2b,
0x4b,0x83,0x5a,0x80,0x2b,0x00,0x1e,0x80,0x3e,0x00,0x00,0x80,0x43,0x00,0x00,0x80,
0x4a,0x00,0x01,0x90,0x4a,0x4c,0x00,0x90,0x1f,0x49,0x81,0x71,0x80,0x4a,0x00,0x10,
0x90,0x4c,0x4b,0x81,0x59,0x80,0x1f,0x00,0x0f,0x80,0x4c,0x00,0x10,0x90,0x4d,0x4b,
0x00,0x90,0x21,0x48,0x81,0x68,0x80,0x4d,0x00,0x10,0x90,0x4f,0x4b,0x81,0x64,0x80,
0x21,0x00,0x0f,0x80,0x4f,0x00,0x14,0x90,0x45,0x48,0x00,0x90,0x4a,0x48,0x00,0x90,
0x4d,0x48,0x00,0x90,0x51,0x52,0x00,0x90,0x22,0x4e,0x83,0x7f,0x80,0x22,0x00,0x1f,
0x90,0x2e,0x4b,0x81,0x78,0x80,0x45,0x00,0x00,0x80,0x4a,0x00,0x00,0x80,0x4d,0x00,
0x00,0x80,0x51,0x00,0x01,0x90,0x45,0x43,0x00,0x90,0x4a,0x43,0x00,0x90,0x4d,0x43,
0x00,0x90,0x51,0x51,0x81,0x64,0x80,0x2e,0x00,0x0f,0x80,0x45,0x00,0x00,0x80,0x4a,
0x00,0x00,0x80,0x4d,0x00,0x0f,0x80,0x51,0x00,0x01,0x90,0x22,0x4a,0x83,0x5a,0x80,
0x22,0x00,0x1f,0x90,0x43,0x43,0x00,0x90,0x48,0x43,0x00,0x90,0x4c,0x43,0x00,0x90,
0x4f,0x51,0x00,0x90,0x30,0x4b,0x83,0x5f,0x80,0x30,0x00,0x1f,0x90,0x24,0x4c,0x83,
0x5f,0x80,0x43,0x00,0x00,0x80,0x48,0x00,0x00,0x80,0x24,0x00,0x1e,0x80,0x4c,0x00,
0x00,0x80,0x4f,0x00,0x01,0x90,0x41,0x43,0x00,0x90,0x4d,0x51,0x00,0x90,0x30,0x4b,
0x83,0x5a,0x80,0x41,0x00,0x00,0x80,0x30,0x00,0x1e,0x80,0x4d,0x00,0x01,0x90,0x40,
0x44,0x00,0x90,0x4c,0x52,0x00,0x90,0x24,0x4a,0x83,0x5a,0x80,0x40,0x00,0x00,0x80,
0x24,0x00,0x1e,0x80,0x4c,0x00,0x01,0x90,0x41,0x43,0x00,0x90,0x4d,0x51,0x00,0x90,
0x32,0x4b,0x83,0x5c,0x80,0x32,0x00,0x23,0x90,0x26,0x4f,0x83,0x7f,0x80,0x26,0x00,
0x1f,0x90,0x32,0x4b,0x83,0x5d,0x80,0x32,0x00,0x1f,0x90,0x26,0x4b,0x83,0x5a,0x80,
0x26,0x00,0x1f,0x90,0x32,0x4b,0x83,0x5f,0x80,0x32,0x00,0x1e,0x80,0x41,0x00,0x00,
0x80,0x4d,0x00,0x01,0x90,0x26,0x4d,0x83,0x5f,0x80,0x26,0x00,0x1f,0x90,0x37,0x43,
0x00,0x90,0x43,0x51,0x00,0x90,0x32,0x4b,0x83,0x5a,0x80,0x32,0x00,0x1f,0x90,0x26,
0x4b,0x83,0x5a,0x80,0x26,0x00,0x1e,0x80,0x37,0x00,0x00,0x80,0x43,0x00,0x01,0x90,
0x38,0x43,0x00,0x90,0x44,0x51,0x00,0x90,0x2d,0x4b,0x83,0x5c,0x80,0x38,0x00,0x00,
0x80,0x2d,0x00,0x1e,0x80,0x44,0x00,0x05,0x90,0x39,0x48,0x00,0x90,0x3e,0x48,0x00,
0x90,0x41,0x48,0x00,0x90,0x45,0x56,0x00,0x90,0x26,0x4f,0x83,0x7f,0x80,0x26,0x00,
0x1f,0x90,0x32,0x4b,0x83,0x5d,0x80,0x32,0x00,0x1f,0x90,0x26,0x4b,0x83,0x5a,0x80,
0x26,0x00,0x1e,0x80,0x39,0x00,0x00,0x80,0x3e,0x00,0x00,0x80,0x41,0x00,0x00,0x80,
0x45,0x00,0x01,0x90,0x39,0x43,0x00,0x90,0x3e,0x43,0x00,0x90,0x41,0x43,0x00,0x90,
0x45,0x51,0x00,0x90,0x32,0x4b,0x83,0x5f,0x80,0x39,0x00,0x00,0x80,0x32,0x00,0x1e,
0x80,0x3e,0x00,0x00,0x80,0x41,0x00,0x00,0x80,0x45,0x00,0x01,0x90,0x3e,0x46,0x00,
0x90,0x45,0x46,0x00,0x90,0x4a,0x54,0x00,0x90,0x26,0x4d,0x83,0x5f,0x80,0x26,0x00,
0x1f,0x90,0x32,0x4b,0x81,0x77,0x80,0x3e,0x00,0x00,0x80,0x45,0x00,0x00,0x80,0x4a,
0x00,0x01,0x90,0x40,0x43,0x00,0x90,0x4a,0x43,0x00,0x90,0x4c,0x51,0x81,0x62,0x80,
0x32,0x00,0x1f,0x90,0x26,0x4b,0x83,0x5a,0x80,0x40,0x00,0x00,0x80,0x4a,0x00,0x00,
0x80,0x26,0x00,0x1e,0x80,0x4c,0x00,0x01,0x90,0x45,0x43,0x00,0x90,0x4d,0x43,0x00,
0x90,0x51,0x51,0x00,0x90,0x2b,0x4b,0x83,0x5c,0x80,0x2b,0x00,0x23,0x90,0x1f,0x4d,
0x83,0x7f,0x80,0x45,0x00,0x00,0x80,0x4d,0x00,0x00,0x80,0x1f,0x00,0x1e,0x80,0x51,
0x00,0x01,0x90,0x43,0x43,0x00,0x90,0x4c,0x43,0x00,0x90,0x4f,0x51,0x00,0x90,0x2b,
0x4b,0x83,0x5d,0x80,0x2b,0x00,0x1f,0x90,0x1f,0x49,0x83,0x5a,0x80,0x1f,0x00,0x1e,
0x80,0x43,0x00,0x00,0x80,0x4c,0x00,0x00,0x80,0x4f,0x00,0x01,0x90,0x41,0x43,0x00,
0x90,0x4a,0x43,0x00,0x90,0x4d,0x51,0x00,0x90,0x2b,0x4b,0x83,0x5f,0x80,0x2b,0x00,
0x1f,0x90,0x1f,0x4b,0x83,0x5f,0x80,0x1f,0x00,0x1f,0x90,0x2b,0x4b,0x83,0x5a,0x80,
0x2b,0x00,0x1e,0x80,0x41,0x00,0x00,0x80,0x4a,0x00,0x00,0x80,0x4d,0x00,0x01,0x90,
0x4a,0x4c,0x00,0x90,0x1f,0x49,0x81,0x71,0x80,0x4a,0x00,0x10,0x90,0x4c,0x4b,0x81,
0x59,0x80,0x1f,0x00,0x0f,0x80,0x4c,0x00,0x10,0x90,0x4d,0x4b,0x00,0x90,0x21,0x48,
0x81,0x68,0x80,0x4d,0x00,0x10,0x90,0x4f,0x4b,0x81,0x64,0x80,0x21,0x00,0x0f,0x80,
0x4f,0x00,0x14,0x90,0x45,0x48,0x00,0x90,0x4a,0x48,0x00,0x90,0x4d,0x48,0x00,0x90,
0x51,0x52,0x00,0x90,0x22,0x4e,0x83,0x7f,0x80,0x22,0x00,0x1f,0x90,0x2e,0x4b,0x81,
0x78,0x80,0x45,0x00,0x00,0x80,0x4a,0x00,0x00,0x80,0x4d,0x00,0x00,0x80,0x51,0x00,
0x01,0x90,0x45,0x43,0x00,0x90,0x4a,0x43,0x00,0x90,0x4d,0x43,0x00,0x90,0x51,0x51,
0x81,0x64,0x80,0x2e,0x00,0x0f,0x80,0x45,0x00,0x00,0x80,0x4a,0x00,0x00,0x80,0x4d,
0x00,0x0f,0x80,0x51,0x00,0x01,0x90,0x22,0x4a,0x83,0x5a,0x80,0x22,0x00,0x1f,0x90,
0x43,0x43,0x00,0x90,0x48,0x43,0x00,0x90,0x4c,0x43,0x00,0x90,0x4f,0x51,0x00,0x90,
0x30,0x4b,0x83,0x5f,0x80,0x30,0x00,0x1f,0x90,0x24,0x4c,0x83,0x5f,0x80,0x43,0x00,
0x00,0x80,0x48,0x00,0x00,0x80,0x24,0x00,0x1e,0x80,0x4c,0x00,0x00,0x80,0x4f,0x00,
0x01,0x90,0x41,0x43,0x00,0x90,0x4a,0x43,0x00,0x90,0x4d,0x51,0x00,0x90,0x30,0x4b,
0x83,0x5a,0x80,0x41,0x00,0x00,0x80,0x4a,0x00,0x00,0x80,0x30,0x00,0x1e,0x80,0x4d,
0x00,0x01,0x90,0x40,0x44,0x00,0x90,0x48,0x44,0x00,0x90,0x4c,0x52,0x00,0x90,0x24,
0x4a,0x83,0x5a,0x80,0x24,0x00,0x1f,0x90,0x30,0x4b,0x83,0x5c,0x80,0x30,0x00,0x1e,
0x80,0x40,0x00,0x00,0x80,0x48,0x00,0x00,0x80,0x4c,0x00,0x05,0x90,0x41,0x55,0x00,
0x90,0x45,0x55,0x00,0x90,0x4a,0x55,0x00,0x90,0x4d,0x63,0x00,0x90,0x32,0x5d,0x81,
0x4c,0x80,0x45,0x00,0x1e,0x80,0x41,0x00,0x00,0x80,0x4a,0x00,0x00,0x80,0x4d,0x00,
0x81,0x49,0x80,0x32,0x00,0x6b,0x90,0x40,0x50,0x00,0x90,0x43,0x50,0x00,0x90,0x48,
0x50,0x00,0x90,0x4c,0x5e,0x81,0x2a,0x80,0x43,0x00,0x1e,0x80,0x40,0x00,0x00,0x80,
0x48,0x00,0x00,0x80,0x4c,0x00,0x82,0x34,0x90,0x3e,0x51,0x00,0x90,0x41,0x51,0x00,
0x90,0x45,0x51,0x00,0x90,0x4a,0x5f,0x00,0x90,0x32,0x59,0x83,0x10,0x80,0x3e,0x00,
0x00,0x80,0x41,0x00,0x00,0x80,0x45,0x00,0x00,0x80,0x4a,0x00,0x00,0x80,0x32,0x00,
0x84,0x67,0x90,0x3e,0x53,0x00,0x90,0x41,0x53,0x00,0x90,0x45,0x53,0x00,0x90,0x4a,
0x61,0x00,0x90,0x32,0x5b,0x83,0x10,0x80,0x32,0x00,0x82,0x65,0x80,0x3e,0x00,0x00,
0x80,0x41,0x00,0x00,0x80,0x45,0x00,0x00,0x80,0x4a,0x00,0x01,0x90,0x40,0x50,0x00,
0x90,0x45,0x50,0x00,0x90,0x4c,0x5e,0x82,0x01,0x90,0x32,0x59,0x83,0x0d,0x80,0x32,
0x00,0x4d,0x80,0x40,0x00,0x00,0x80,0x45,0x00,0x1e,0x80,0x4c,0x00,0x01,0x90,0x4a,
0x50,0x00,0x90,0x4d,0x5e,0x81,0x68,0x80,0x4a,0x00,0x0f,0x80,0x4d,0x00,0x01,0x90,
0x4c,0x50,0x00,0x90,0x4f,0x5e,0x81,0x73,0x80,0x4c,0x00,0x0f,0x80,0x4f,0x00,0x05,
0x90,0x45,0x55,0x00,0x90,0x4a,0x55,0x00,0x90,0x4d,0x55,0x00,0x90,0x51,0x63,0x00,
0x90,0x32,0x5d,0x81,0x6a,0x80,0x45,0x00,0x00,0x80,0x4a,0x00,0x00,0x80,0x4d,0x00,
0x00,0x80,0x51,0x00,0x81,0x49,0x80,0x32,0x00,0x6b,0x90,0x43,0x50,0x00,0x90,0x45,
0x50,0x00,0x90,0x4a,0x50,0x00,0x90,0x4f,0x5e,0x81,0x48,0x80,0x43,0x00,0x00,0x80,
0x45,0x00,0x00,0x80,0x4a,0x00,0x00,0x80,0x4f,0x00,0x82,0x34,0x90,0x41,0x51,0x00,
0x90,0x45,0x51,0x00,0x90,0x4a,0x51,0x00,0x90,0x4d,0x5f,0x00,0x90,0x32,0x59,0x83,
0x10,0x80,0x41,0x00,0x00,0x80,0x45,0x00,0x00,0x80,0x4a,0x00,0x00,0x80,0x4d,0x00,
0x00,0x80,0x32,0x00,0x84,0x67,0x90,0x41,0x53,0x00,0x90,0x46,0x53,0x00,0x90,0x4a,
0x53,0x00,0x90,0x4d,0x61,0x00,0x90,0x22,0x51,0x00,0x90,0x2e,0x61,0x85,0x75,0x80,
0x41,0x00,0x00,0x80,0x46,0x00,0x00,0x80,0x4a,0x00,0x00,0x80,0x4d,0x00,0x00,0x80,
0x22,0x00,0x00,0x80,0x2e,0x00,0x01,0x90,0x40,0x50,0x00,0x90,0x43,0x50,0x00,0x90,
0x48,0x50,0x00,0x90,0x4c,0x5e,0x00,0x90,0x24,0x4e,0x00,0x90,0x30,0x5e,0x89,0x74,
0x80,0x40,0x00,0x00,0x80,0x43,0x00,0x00,0x80,0x48,0x00,0x00,0x80,0x4c,0x00,0x00,
0x80,0x24,0x00,0x00,0x80,0x30,0x00,0x05,0x90,0x41,0x55,0x00,0x90,0x45,0x55,0x00,
0x90,0x4a,0x55,0x00,0x90,0x4d,0x63,0x00,0x90,0x32,0x5d,0x81,0x4c,0x80,0x45,0x00,
0x1e,0x80,0x41,0x00,0x00,0x80,0x4a,0x00,0x00,0x80,0x4d,0x00,0x81,0x49,0x80,0x32,
0x00,0x6b,0x90,0x40,0x50,0x00,0x90,0x43,0x50,0x00,0x90,0x48,0x50,0x00,0x90,0x4c,
0x5e,0x81,0x2a,0x80,0x43,0x00,0x1e,0x80,0x40,0x00,0x00,0x80,0x48,0x00,0x00,0x80,
0x4c,0x00,0x82,0x34,0x90,0x3e,0x51,0x00,0x90,0x41,0x51,0x00,0x90,0x45,0x51,0x00,
0x90,0x4a,0x5f,0x00,0x90,0x32,0x59,0x83,0x10,0x80,0x3e,0x00,0x00,0x80,0x41,0x00,
0x00,0x80,0x45,0x00,0x00,0x80,0x4a,0x00,0x00,0x80,0x32,0x00,0x84,0x67,0x90,0x3e,
0x53,0x00,0x90,0x41,0x53,0x00,0x90,0x45,0x53,0x00,0x90,0x4a,0x61,0x00,0x90,0x32,
0x5b,0x83,0x10,0x80,0x32,0x00,0x82,0x65,0x80,0x3e,0x00,0x00,0x80,0x41,0x00,0x00,
0x80,0x45,0x00,0x00,0x80,0x4a,0x00,0x01,0x90,0x40,0x50,0x00,0x90,0x45,0x50,0x00,
0x90,0x4c,0x5e,0x82,0x01,0x90,0x32,0x59,0x83,0x0d,0x80,0x32,0x00,0x4d,0x80,0x40,
0x00,0x00,0x80,0x45,0x00,0x1e,0x80,0x4c,0x00,0x01,0x90,0x4a,0x50,0x00,0x90,0x4d,
0x5e,0x81,0x68,0x80,0x4a,0x00,0x0f,0x80,0x4d,0x00,0x01,0x90,0x4c,0x50,0x00,0x90,
0x4f,0x5e,0x81,0x73,0x80,0x4c,0x00,0x0f,0x80,0x4f,0x00,0x05,0x90,0x45,0x55,0x00,
0x90,0x4a,0x55,0x00,0x90,0x4d,0x55,0x00,0x90,0x51,0x63,0x00,0x90,0x32,0x5d,0x81,
0x6a,0x80,0x45,0x00,0x00,0x80,0x4a,0x00,0x00,0x80,0x4d,0x00,0x00,0x80,0x51,0x00,
0x81,0x49,0x80,0x32,0x00,0x6b,0x90,0x43,0x50,0x00,0x90,0x45,0x50,0x00,0x90,0x4a,
0x50,0x00,0x90,0x4f,0x5e,0x81,0x48,0x80,0x43,0x00,0x00,0x80,0x45,0x00,0x00,0x80,
0x4a,0x00,0x00,0x80,0x4f,0x00,0x82,0x34,0x90,0x41,0x51,0x00,0x90,0x45,0x51,0x00,
0x90,0x4a,0x51,0x00,0x90,0x4d,0x5f,0x00,0x90,0x32,0x59,0x83,0x10,0x80,0x41,0x00,
0x00,0x80,0x45,0x00,0x00,0x80,0x4a,0x00,0x00,0x80,0x4d,0x00,0x00,0x80,0x32,0x00,
0x84,0x67,0x90,0x41,0x53,0x00,0x90,0x46,0x53,0x00,0x90,0x4a,0x53,0x00,0x90,0x4d,
0x61,0x00,0x90,0x22,0x51,0x00,0x90,0x2e,0x61,0x85,0x75,0x80,0x41,0x00,0x00,0x80,
0x46,0x00,0x00,0x80,0x4a,0x00,0x00,0x80,0x4d,0x00,0x00,0x80,0x22,0x00,0x00,0x80,
0x2e,0x00,0x01,0x90,0x40,0x50,0x00,0x90,0x43,0x50,0x00,0x90,0x48,0x50,0x00,0x90,
0x4c,0x5e,0x00,0x90,0x24,0x4e,0x00,0x90,0x30,0x5e,0x85,0x79,0x80,0x24,0x00,0x00,
0x80,0x30,0x00,0x01,0x90,0x24,0x56,0x81,0x68,0x80,0x24,0x00,0x10,0x90,0x26,0x57,
0x81,0x73,0x80,0x26,0x00,0x0f,0x80,0x40,0x00,0x00,0x80,0x43,0x00,0x00,0x80,0x48,
0x00,0x00,0x80,0x4c,0x00,0x05,0x90,0x43,0x55,0x00,0x90,0x47,0x55,0x00,0x90,0x4c,
0x55,0x00,0x90,0x4f,0x63,0x00,0x90,0x28,0x5c,0x81,0x4c,0x80,0x47,0x00,0x1e,0x80,
0x43,0x00,0x00,0x80,0x4c,0x00,0x00,0x80,0x4f,0x00,0x82,0x15,0x80,0x28,0x00,0x1f,
0x90,0x42,0x50,0x00,0x90,0x45,0x50,0x00,0x90,0x4a,0x50,0x00,0x90,0x4e,0x5e,0x00,
0x90,0x34,0x58,0x81,0x2a,0x80,0x45,0x00,0x1e,0x80,0x42,0x00,0x00,0x80,0x4a,0x00,
0x00,0x80,0x4e,0x00,0x82,0x15,0x80,0x34,0x00,0x1f,0x90,0x40,0x51,0x00,0x90,0x43,
0x51,0x00,0x90,0x47,0x51,0x00,0x90,0x4c,0x5f,0x00,0x90,0x28,0x58,0x83,0x10,0x80,
0x40,0x00,0x00,0x80,0x43,0x00,0x00,0x80,0x47,0x00,0x00,0x80,0x4c,0x00,0x4a,0x80,
0x28,0x00,0x1f,0x90,0x34,0x58,0x83,0x5f,0x80,0x34,0x00,0x1f,0x90,0x40,0x53,0x00,
0x90,0x43,0x53,0x00,0x90,0x47,0x53,0x00,0x90,0x4c,0x61,0x00,0x90,0x28,0x5a,0x83,
0x5f,0x80,0x28,0x00,0x1f,0x90,0x34,0x58,0x81,0x77,0x80,0x40,0x00,0x00,0x80,0x43,
0x00,0x00,0x80,0x47,0x00,0x00,0x80,0x4c,0x00,0x01,0x90,0x42,0x50,0x00,0x90,0x47,
0x50,0x00,0x90,0x4e,0x5e,0x81,0x62,0x80,0x34,0x00,0x1f,0x90,0x28,0x58,0x83,0x5a,
0x80,0x42,0x00,0x00,0x80,0x47,0x00,0x00,0x80,0x28,0x00,0x1e,0x80,0x4e,0x00,0x01,
0x90,0x4c,0x50,0x00,0x90,0x4f,0x5e,0x00,0x90,0x26,0x57,0x81,0x68,0x80,0x4c,0x00,
0x0f,0x80,0x4f,0x00,0x01,0x90,0x4e,0x50,0x00,0x90,0x51,0x5e,0x81,0x64,0x80,0x26,
0x00,0x0f,0x80,0x4e,0x00,0x0f,0x80,0x51,0x00,0x05,0x90,0x47,0x55,0x00,0x90,0x4c,
0x55,0x00,0x90,0x4f,0x55,0x00,0x90,0x53,0x63,0x00,0x90,0x24,0x5b,0x81,0x6a,0x80,
0x47,0x00,0x00,0x80,0x4c,0x00,0x00,0x80,0x4f,0x00,0x00,0x80,0x53,0x00,0x82,0x15,
0x80,0x24,0x00,0x1f,0x90,0x45,0x50,0x00,0x90,0x47,0x50,0x00,0x90,0x4c,0x50,0x00,
0x90,0x51,0x5e,0x00,0x90,0x30,0x58,0x81,0x48,0x80,0x45,0x00,0x00,0x80,0x47,0x00,
0x00,0x80,0x4c,0x00,0x00,0x80,0x51,0x00,0x82,0x15,0x80,0x30,0x00,0x1f,0x90,0x43,
0x51,0x00,0x90,0x47,0x51,0x00,0x90,0x4c,0x51,0x00,0x90,0x4f,0x5f,0x00,0x90,0x24,
0x57,0x83,0x10,0x80,0x43,0x00,0x00,0x80,0x47,0x00,0x00,0x80,0x4c,0x00,0x00,0x80,
0x4f,0x00,0x4a,0x80,0x24,0x00,0x1f,0x90,0x30,0x58,0x83,0x7d,0x80,0x30,0x00,0x01,
0x90,0x43,0x53,0x00,0x90,0x48,0x53,0x00,0x90,0x4c,0x53,0x00,0x90,0x4f,0x61,0x00,
0x90,0x24,0x51,0x00,0x90,0x30,0x61,0x83,0x5f,0x80,0x24,0x00,0x1e,0x80,0x30,0x00,
0x01,0x90,0x30,0x58,0x81,0x68,0x80,0x30,0x00,0x0f,0x80,0x43,0x00,0x00,0x80,0x48,
0x00,0x00,0x80,0x4c,0x00,0x00,0x80,0x4f,0x00,0x01,0x90,0x42,0x50,0x00,0x90,0x45,
0x50,0x00,0x90,0x4a,0x50,0x00,0x90,0x4e,0x5e,0x00,0x90,0x26,0x4f,0x00,0x90,0x32,
0x5a,0x85,0x5b,0x80,0x26,0x00,0x1e,0x80,0x32,0x00,0x01,0x90,0x32,0x58,0x83,0x5c,
0x80,0x32,0x00,0x1e,0x80,0x42,0x00,0x00,0x80,0x45,0x00,0x00,0x80,0x4a,0x00,0x00,
0x80,0x4e,0x00,0x05,0x90,0x43,0x55,0x00,0x90,0x47,0x55,0x00,0x90,0x4c,0x55,0x00,
0x90,0x4f,0x63,0x00,0x90,0x28,0x5c,0x81,0x4c,0x80,0x47,0x00,0x1e,0x80,0x43,0x00,
0x00,0x80,0x4c,0x00,0x00,0x80,0x4f,0x00,0x82,0x15,0x80,0x28,0x00,0x1f,0x90,0x42,
0x50,0x00,0x90,0x45,0x50,0x00,0x90,0x4a,0x50,0x00,0x90,0x4e,0x5e,0x00,0x90,0x34,
0x58,0x81,0x2a,0x80,0x45,0x00,0x1e,0x80,0x42,0x00,0x00,0x80,0x4a,0x00,0x00,0x80,
0x4e,0x00,0x82,0x15,0x80,0x34,0x00,0x1f,0x90,0x40,0x51,0x00,0x90,0x43,0x51,0x00,
0x90,0x47,0x51,0x00,0x90,0x4c,0x5f,0x00,0x90,0x28,0x58,0x83,0x10,0x80,0x40,0x00,
0x00,0x80,0x43,0x00,0x00,0x80,0x47,0x00,0x00,0x80,0x4c,0x00,0x4a,0x80,0x28,0x00,
0x1f,0x90,0x34,0x58,0x83,0x5f,0x80,0x34,0x00,0x1f,0x90,0x40,0x53,0x00,0x90,0x43,
0x53,0x00,0x90,0x47,0x53,0x00,0x90,0x4c,0x61,0x00,0x90,0x28,0x5a,0x83,0x5f,0x80,
0x28,0x00,0x1f,0x90,0x34,0x58,0x81,0x77,0x80,0x40,0x00,0x00,0x80,0x43,0x00,0x00,
0x80,0x47,0x00,0x00,0x80,0x4c,0x00,0x01,0x90,0x42,0x50,0x00,0x90,0x47,0x50,0x00,
0x90,0x4e,0x5e,0x81,0x62,0x80,0x34,0x00,0x1f,0x90,0x28,0x58,0x83,0x5a,0x80,0x42,
0x00,0x00,0x80,0x47,0x00,0x00,0x80,0x28,0x00,0x1e,0x80,0x4e,0x00,0x01,0x90,0x4c,
0x50,0x00,0x90,0x4f,0x5e,0x00,0x90,0x26,0x57,0x81,0x68,0x80,0x4c,0x00,0x0f,0x80,
0x4f,0x00,0x01,0x90,0x4e,0x50,0x00,0x90,0x51,0x5e,0x81,0x64,0x80,0x26,0x00,0x0f,
0x80,0x4e,0x00,0x0f,0x80,0x51,0x00,0x05,0x90,0x47,0x55,0x00,0x90,0x4c,0x55,0x00,
0x90,0x4f,0x55,0x00,0x90,0x53,0x63,0x00,0x90,0x24,0x5b,0x81,0x6a,0x80,0x47,0x00,
0x00,0x80,0x4c,0x00,0x00,0x80,0x4f,0x00,0x00,0x80,0x53,0x00,0x82,0x15,0x80,0x24,
0x00,0x1f,0x90,0x45,0x50,0x00,0x90,0x47,0x50,0x00,0x90,0x4c,0x50,0x00,0x90,0x51,
0x5e,0x00,0x90,0x30,0x58,0x81,0x48,0x80,0x45,0x00,0x00,0x80,0x47,0x00,0x00,0x80,
0x4c,0x00,0x00,0x80,0x51,0x00,0x82,0x15,0x80,0x30,0x00,0x1f,0x90,0x43,0x51,0x00,
0x90,0x47,0x51,0x00,0x90,0x4c,0x51,0x00,0x90,0x4f,0x5f,0x00,0x90,0x24,0x57,0x83,
0x10,0x80,0x43,0x00,0x00,0x80,0x47,0x00,0x00,0x80,0x4c,0x00,0x00,0x80,0x4f,0x00,
0x4a,0x80,0x24,0x00,0x1f,0x90,0x30,0x58,0x83,0x7d,0x80,0x30,0x00,0x01,0x90,0x43,
0x53,0x00,0x90,0x48,0x53,0x00,0x90,0x4c,0x53,0x00,0x90,0x4f,0x61,0x00,0x90,0x24,
0x51,0x00,0x90,0x30,0x61,0x83,0x5f,0x80,0x24,0x00,0x1e,0x80,0x30,0x00,0x01,0x90,
0x30,0x58,0x81,0x68,0x80,0x30,0x00,0x0f,0x80,0x43,0x00,0x00,0x80,0x48,0x00,0x00,
0x80,0x4c,0x00,0x00,0x80,0x4f,0x00,0x01,0x90,0x42,0x50,0x00,0x90,0x45,0x50,0x00,
0x90,0x4a,0x50,0x00,0x90,0x4e,0x5e,0x00,0x90,0x26,0x4f,0x00,0x90,0x32,0x5a,0x84,
0x01,0x80,0x26,0x00,0x00,0x80,0x32,0x00,0x01,0x90,0x26,0x57,0x81,0x68,0x80,0x26,
0x00,0x10,0x90,0x32,0x58,0x83,0x5c,0x80,0x32,0x00,0x1e,0x80,0x42,0x00,0x00,0x80,
0x45,0x00,0x00,0x80,0x4a,0x00,0x00,0x80,0x4e,0x00,0x05,0x90,0x41,0x48,0x00,0x90,
0x43,0x48,0x00,0x90,0x47,0x56,0x00,0x90,0x29,0x50,0x83,0x7f,0x80,0x41,0x00,0x00,
0x80,0x43,0x00,0x00,0x80,0x29,0x00,0x1e,0x80,0x47,0x00,0x01,0x90,0x35,0x4b,0x81,
0x79,0x90,0x41,0x43,0x00,0x90,0x43,0x43,0x00,0x90,0x47,0x51,0x81,0x64,0x80,0x35,
0x00,0x0f,0x80,0x41,0x00,0x00,0x80,0x43,0x00,0x0f,0x80,0x47,0x00,0x01,0x90,0x29,
0x4c,0x83,0x5a,0x80,0x29,0x00,0x1f,0x90,0x41,0x43,0x00,0x90,0x45,0x43,0x00,0x90,
0x48,0x51,0x00,0x90,0x35,0x4b,0x83,0x5f,0x80,0x41,0x00,0x00,0x80,0x45,0x00,0x00,
0x80,0x35,0x00,0x1e,0x80,0x48,0x00,0x01,0x90,0x29,0x4e,0x83,0x5f,0x80,0x29,0x00,
0x1f,0x90,0x35,0x4b,0x83,0x5a,0x80,0x35,0x00,0x1f,0x90,0x29,0x4c,0x83,0x5a,0x80,
0x29,0x00,0x1f,0x90,0x35,0x4b,0x83,0x5c,0x80,0x35,0x00,0x23,0x90,0x41,0x48,0x00,
0x90,0x47,0x48,0x00,0x90,0x4a,0x56,0x00,0x90,0x29,0x50,0x83,0x7f,0x80,0x41,0x00,
0x00,0x80,0x47,0x00,0x00,0x80,0x29,0x00,0x1e,0x80,0x4a,0x00,0x01,0x90,0x35,0x4b,
0x81,0x79,0x90,0x41,0x43,0x00,0x90,0x47,0x43,0x00,0x90,0x4a,0x51,0x81,0x64,0x80,
0x35,0x00,0x0f,0x80,0x41,0x00,0x00,0x80,0x47,0x00,0x0f,0x80,0x4a,0x00,0x01,0x90,
0x29,0x4c,0x83,0x5a,0x80,0x29,0x00,0x1f,0x90,0x41,0x43,0x00,0x90,0x45,0x43,0x00,
0x90,0x48,0x51,0x00,0x90,0x35,0x4b,0x83,0x5f,0x80,0x41,0x00,0x00,0x80,0x45,0x00,
0x00,0x80,0x35,0x00,0x1e,0x80,0x48,0x00,0x01,0x90,0x29,0x4e,0x83,0x5f,0x80,0x29,
0x00,0x1f,0x90,0x35,0x4b,0x83,0x5a,0x80,0x35,0x00,0x1f,0x90,0x29,0x4c,0x83,0x5a,
0x80,0x29,0x00,0x1f,0x90,0x35,0x4b,0x83,0x5c,0x80,0x35,0x00,0x23,0x90,0x41,0x48,
0x00,0x90,0x43,0x48,0x00,0x90,0x47,0x56,0x00,0x90,0x29,0x50,0x83,0x7f,0x80,0x41,
0x00,0x00,0x80,0x43,0x00,0x00,0x80,0x29,0x00,0x1e,0x80,0x47,0x00,0x01,0x90,0x35,
0x4b,0x81,0x79,0x90,0x41,0x43,0x00,0x90,0x43,0x43,0x00,0x90,0x47,0x51,0x81,0x64,
0x80,0x35,0x00,0x0f,0x80,0x41,0x00,0x00,0x80,0x43,0x00,0x0f,0x80,0x47,0x00,0x01,
0x90,0x29,0x4c,0x83,0x5a,0x80,0x29,0x00,0x1f,0x90,0x41,0x43,0x00,0x90,0x45,0x43,
0x00,0x90,0x48,0x51,0x00,0x90,0x35,0x4b,0x83,0x5f,0x80,0x41,0x00,0x00,0x80,0x45,
0x00,0x00,0x80,0x35,0x00,0x1e,0x80,0x48,0x00,0x01,0x90,0x29,0x4e,0x83,0x5f,0x80,
0x29,0x00,0x1f,0x90,0x35,0x4b,0x83,0x5a,0x80,0x35,0x00,0x1f,0x90,0x29,0x4c,0x83,
0x5a,0x80,0x29,0x00,0x1f,0x90,0x35,0x4b,0x83,0x5c,0x80,0x35,0x00,0x23,0x90,0x41,
0x48,0x00,0x90,0x47,0x48,0x00,0x90,0x4a,0x56,0x00,0x90,0x29,0x50,0x83,0x7f,0x80,
0x41,0x00,0x00,0x80,0x47,0x00,0x00,0x80,0x29,0x00,0x1e,0x80,0x4a,0x00,0x01,0x90,
0x35,0x4b,0x81,0x79,0x90,0x41,0x43,0x00,0x90,0x47,0x43,0x00,0x90,0x4a,0x51,0x81,
0x64,0x80,0x35,0x00,0x0f,0x80,0x41,0x00,0x00,0x80,0x47,0x00,0x0f,0x80,0x4a,0x00,
0x01,0x90,0x29,0x4c,0x83,0x5a,0x80,0x29,0x00,0x1f,0x90,0x41,0x43,0x00,0x90,0x45,
0x43,0x00,0x90,0x48,0x51,0x00,0x90,0x35,0x4b,0x83,0x5f,0x80,0x41,0x00,0x00,0x80,
0x45,0x00,0x00,0x80,0x35,0x00,0x1e,0x80,0x48,0x00,0x01,0x90,0x29,0x4e,0x83,0x5f,
0x80,0x29,0x00,0x1f,0x90,0x35,0x4b,0x83,0x5a,0x80,0x35,0x00,0x1f,0x90,0x29,0x4c,
0x83,0x5a,0x80,0x29,0x00,0x1f,0x90,0x35,0x4b,0x83,0x5c,0x80,0x35,0x00,0x23,0x90,
0x40,0x48,0x00,0x90,0x43,0x48,0x00,0x90,0x47,0x56,0x00,0x90,0x28,0x4f,0x83,0x7f,
0x80,0x40,0x00,0x00,0x80,0x43,0x00,0x00,0x80,0x28,0x00,0x1e,0x80,0x47,0x00,0x01,
0x90,0x34,0x4b,0x81,0x79,0x90,0x40,0x43,0x00,0x90,0x43,0x43,0x00,0x90,0x47,0x51,
0x81,0x64,0x80,0x34,0x00,0x0f,0x80,0x40,0x00,0x00,0x80,0x43,0x00,0x0f,0x80,0x47,
0x00,0x01,0x90,0x28,0x4b,0x83,0x5a,0x80,0x28,0x00,0x1f,0x90,0x40,0x43,0x00,0x90,
0x45,0x43,0x00,0x90,0x49,0x51,0x00,0x90,0x34,0x4b,0x83,0x5f,0x80,0x40,0x00,0x00,
0x80,0x45,0x00,0x00,0x80,0x34,0x00,0x1e,0x80,0x49,0x00,0x01,0x90,0x4c,0x46,0x00,
0x90,0x58,0x54,0x00,0x90,0x28,0x4d,0x81,0x4a,0x80,0x4c,0x00,0x00,0x80,0x58,0x00,
0x82,0x15,0x80,0x28,0x00,0x1f,0x90,0x34,0x4b,0x81,0x78,0x90,0x4c,0x43,0x00,0x90,
0x58,0x4d,0x66,0x80,0x4c,0x00,0x00,0x80,0x58,0x00,0x7c,0x80,0x34,0x00,0x1f,0x90,
0x28,0x4b,0x83,0x5a,0x80,0x28,0x00,0x1f,0x90,0x4c,0x43,0x00,0x90,0x58,0x51,0x00,
0x90,0x34,0x4b,0x81,0x47,0x80,0x4c,0x00,0x00,0x80,0x58,0x00,0x82,0x15,0x80,0x34,
0x00,0x23,0x90,0x40,0x48,0x00,0x90,0x47,0x48,0x00,0x90,0x4a,0x56,0x00,0x90,0x28,
0x4f,0x83,0x7f,0x80,0x40,0x00,0x00,0x80,0x47,0x00,0x00,0x80,0x28,0x00,0x1e,0x80,
0x4a,0x00,0x01,0x90,0x34,0x4b,0x81,0x79,0x90,0x40,0x43,0x00,0x90,0x47,0x43,0x00,
0x90,0x4a,0x51,0x81,0x64,0x80,0x34,0x00,0x0f,0x80,0x40,0x00,0x00,0x80,0x47,0x00,
0x0f,0x80,0x4a,0x00,0x01,0x90,0x28,0x4b,0x83,0x5a,0x80,0x28,0x00,0x1f,0x90,0x40,
0x43,0x00,0x90,0x45,0x43,0x00,0x90,0x49,0x51,0x00,0x90,0x34,0x4b,0x83,0x5f,0x80,
0x40,0x00,0x00,0x80,0x45,0x00,0x00,0x80,0x34,0x00,0x1e,0x80,0x49,0x00,0x01,0x90,
0x4c,0x46,0x00,0x90,0x58,0x54,0x00,0x90,0x28,0x4d,0x81,0x4a,0x80,0x4c,0x00,0x00,
0x80,0x58,0x00,0x82,0x15,0x80,0x28,0x00,0x1f,0x90,0x34,0x4b,0x81,0x78,0x90,0x4c,
0x43,0x00,0x90,0x58,0x4d,0x66,0x80,0x4c,0x00,0x00,0x80,0x58,0x00,0x7c,0x80,0x34,
0x00,0x1f,0x90,0x28,0x4b,0x83,0x5a,0x80,0x28,0x00,0x1f,0x90,0x4c,0x43,0x00,0x90,
0x58,0x51,0x00,0x90,0x34,0x4b,0x81,0x47,0x80,0x4c,0x00,0x00,0x80,0x58,0x00,0x82,
0x15,0x80,0x34,0x00,0x23,0x90,0x40,0x48,0x00,0x90,0x43,0x48,0x00,0x90,0x47,0x56,
0x00,0x90,0x28,0x4f,0x83,0x7f,0x80,0x40,0x00,0x00,0x80,0x43,0x00,0x00,0x80,0x28,
0x00,0x1e,0x80,0x47,0x00,0x01,0x90,0x34,0x4b,0x81,0x79,0x90,0x40,0x43,0x00,0x90,
0x43,0x43,0x00,0x90,0x47,0x51,0x81,0x64,0x80,0x34,0x00,0x0f,0x80,0x40,0x00,0x00,
0x80,0x43,0x00,0x0f,0x80,0x47,0x00,0x01,0x90,0x28,0x4b,0x83,0x5a,0x80,0x28,0x00,
0x1f,0x90,0x40,0x43,0x00,0x90,0x45,0x43,0x00,0x90,0x49,0x51,0x00,0x90,0x34,0x4b,
0x83,0x5f,0x80,0x40,0x00,0x00,0x80,0x45,0x00,0x00,0x80,0x34,0x00,0x1e,0x80,0x49,
0x00,0x01,0x90,0x4c,0x46,0x00,0x90,0x58,0x54,0x00,0x90,0x28,0x4d,0x81,0x4a,0x80,
0x4c,0x00,0x00,0x80,0x58,0x00,0x82,0x15,0x80,0x28,0x00,0x1f,0x90,0x34,0x4b,0x81,
0x78,0x90,0x4c,0x43,0x00,0x90,0x58,0x4d,0x66,0x80,0x4c,0x00,0x00,0x80,0x58,0x00,
0x7c,0x80,0x34,0x00,0x1f,0x90,0x28,0x4b,0x83,0x5a,0x80,0x28,0x00,0x1f,0x90,0x4c,
0x43,0x00,0x90,0x58,0x51,0x00,0x90,0x34,0x4b,0x81,0x47,0x80,0x4c,0x00,0x00,0x80,
0x58,0x00,0x82,0x15,0x80,0x34,0x00,0x23,0x90,0x40,0x5b,0x00,0x90,0x47,0x5b,0x00,
0x90,0x4a,0x5b,0x00,0x90,0x4c,0x69,0x00,0x90,0x28,0x62,0x83,0x7f,0x80,0x40,0x00,
0x00,0x80,0x47,0x00,0x00,0x80,0x4a,0x00,0x00,0x80,0x28,0x00,0x1e,0x80,0x4c,0x00,
0x81,0x7a,0x90,0x40,0x56,0x00,0x90,0x47,0x61,0x00,0x90,0x4a,0x61,0x00,0x90,0x4c,
0x5c,0x00,0x90,0x28,0x5d,0x81,0x73,0x80,0x40,0x00,0x00,0x80,0x47,0x00,0x00,0x80,
0x4a,0x00,0x00,0x80,0x28,0x00,0x0f,0x80,0x4c,0x00,0x83,0x7a,0x90,0x40,0x56,0x00,
0x90,0x45,0x61,0x00,0x90,0x49,0x61,0x00,0x90,0x4c,0x5c,0x00,0x90,0x28,0x5d,0x83,
0x5f,0x80,0x40,0x00,0x00,0x80,0x45,0x00,0x00,0x80,0x49,0x00,0x00,0x80,0x28,0x00,
0x1e,0x80,0x4c,0x00,0x83,0x7f,0x90,0x39,0x4b,0x74,0x80,0x39,0x00,0x08,0x90,0x3d,
0x4b,0x74,0x80,0x3d,0x00,0x08,0x90,0x40,0x4b,0x75,0x80,0x40,0x00,0x08,0x90,0x45,
0x4b,0x7c,0x80,0x45,0x00,0x08,0x90,0x49,0x4c,0x7c,0x80,0x49,0x00,0x08,0x90,0x4c,
0x4b,0x75,0x80,0x4c,0x00,0x08,0x90,0x51,0x4b,0x74,0x80,0x51,0x00,0x08,0x90,0x55,
0x4b,0x74,0x80,0x55,0x00,0x08,0x90,0x51,0x4b,0x00,0x90,0x2f,0x4b,0x73,0x80,0x51,
0x00,0x08,0x90,0x4c,0x4b,0x75,0x80,0x4c,0x00,0x08,0x90,0x49,0x4b,0x81,0x64,0x80,
0x2f,0x00,0x0f,0x80,0x49,0x00,0x14,0x90,0x47,0x48,0x00,0x90,0x4c,0x48,0x00,0x90,
0x53,0x56,0x00,0x90,0x28,0x4f,0x83,0x7f,0x80,0x28,0x00,0x1f,0x90,0x34,0x4b,0x83,
0x5d,0x80,0x34,0x00,0x1e,0x80,0x47,0x00,0x00,0x80,0x4c,0x00,0x00,0x80,0x53,0x00,
0x01,0x90,0x53,0x4c,0x00,0x90,0x28,0x4b,0x81,0x72,0x80,0x53,0x00,0x10,0x90,0x4f,
0x4b,0x81,0x58,0x80,0x28,0x00,0x0f,0x80,0x4f,0x00,0x10,0x90,0x4c,0x4b,0x00,0x90,
0x34,0x4b,0x81,0x68,0x80,0x4c,0x00,0x10,0x90,0x47,0x4b,0x81,0x67,0x80,0x34,0x00,
0x0f,0x80,0x47,0x00,0x10,0x90,0x43,0x4e,0x00,0x90,0x28,0x4d,0x83,0x5f,0x80,0x43,
0x00,0x00,0x80,0x28,0x00,0x1f,0x90,0x42,0x43,0x00,0x90,0x4e,0x51,0x00,0x90,0x34,
0x4b,0x83,0x5a,0x80,0x42,0x00,0x00,0x80,0x34,0x00,0x1e,0x80,0x4e,0x00,0x01,0x90,
0x43,0x44,0x00,0x90,0x4f,0x52,0x00,0x90,0x28,0x4b,0x83,0x5a,0x80,0x28,0x00,0x1e,
0x80,0x43,0x00,0x00,0x80,0x4f,0x00,0x01,0x90,0x39,0x43,0x00,0x90,0x43,0x43,0x00,
0x90,0x49,0x43,0x00,0x90,0x4c,0x51,0x00,0x90,0x2d,0x4b,0x83,0x7a,0x80,0x2d,0x00,
0x05,0x90,0x2d,0x50,0x83,0x7f,0x80,0x39,0x00,0x00,0x80,0x2d,0x00,0x1e,0x80,0x43,
0x00,0x00,0x80,0x49,0x00,0x00,0x80,0x4c,0x00,0x01,0x90,0x43,0x43,0x00,0x90,0x49,
0x51,0x00,0x90,0x39,0x4b,0x81,0x69,0x80,0x43,0x00,0x0f,0x80,0x49,0x00,0x01,0x90,
0x4c,0x4b,0x81,0x64,0x80,0x39,0x00,0x0f,0x80,0x4c,0x00,0x10,0x90,0x51,0x4c,0x00,
0x90,0x2d,0x4c,0x81,0x72,0x80,0x51,0x00,0x10,0x90,0x4c,0x4b,0x81,0x58,0x80,0x2d,
0x00,0x0f,0x80,0x4c,0x00,0x10,0x90,0x49,0x4b,0x00,0x90,0x39,0x4b,0x81,0x68,0x80,
0x49,0x00,0x10,0x90,0x45,0x4b,0x81,0x67,0x80,0x39,0x00,0x0f,0x80,0x45,0x00,0x10,
0x90,0x40,0x4e,0x00,0x90,0x2d,0x4e,0x81,0x77,0x80,0x40,0x00,0x10,0x90,0x3d,0x4b,
0x81,0x67,0x80,0x3d,0x00,0x0f,0x80,0x2d,0x00,0x01,0x90,0x39,0x4b,0x00,0x90,0x2d,
0x4b,0x83,0x5a,0x80,0x39,0x00,0x1e,0x80,0x2d,0x00,0x01,0x90,0x4c,0x4c,0x00,0x90,
0x2d,0x4c,0x81,0x71,0x80,0x4c,0x00,0x10,0x90,0x4e,0x4b,0x81,0x59,0x80,0x2d,0x00,
0x0f,0x80,0x4e,0x00,0x10,0x90,0x4f,0x4b,0x00,0x90,0x39,0x4b,0x81,0x68,0x80,0x4f,
0x00,0x10,0x90,0x51,0x4b,0x81,0x64,0x80,0x39,0x00,0x0f,0x80,0x51,0x00,0x14,0x90,
0x47,0x48,0x00,0x90,0x4c,0x48,0x00,0x90,0x4f,0x48,0x00,0x90,0x53,0x52,0x00,0x90,
0x24,0x4e,0x83,0x7f,0x80,0x24,0x00,0x1f,0x90,0x30,0x4b,0x81,0x78,0x80,0x47,0x00,
0x00,0x80,0x4c,0x00,0x00,0x80,0x4f,0x00,0x00,0x80,0x53,0x00,0x01,0x90,0x47,0x43,
0x00,0x90,0x4c,0x43,0x00,0x90,0x4f,0x43,0x00,0x90,0x53,0x51,0x81,0x64,0x80,0x30,
0x00,0x0f,0x80,0x47,0x00,0x00,0x80,0x4c,0x00,0x00,0x80,0x4f,0x00,0x0f,0x80,0x53,
0x00,0x01,0x90,0x24,0x4a,0x83,0x5a,0x80,0x24,0x00,0x1f,0x90,0x45,0x43,0x00,0x90,
0x4a,0x43,0x00,0x90,0x4e,0x43,0x00,0x90,0x51,0x51,0x00,0x90,0x32,0x4b,0x83,0x5f,
0x80,0x32,0x00,0x1f,0x90,0x26,0x4d,0x83,0x5f,0x80,0x45,0x00,0x00,0x80,0x4a,0x00,
0x00,0x80,0x26,0x00,0x1e,0x80,0x4e,0x00,0x00,0x80,0x51,0x00,0x01,0x90,0x43,0x43,
0x00,0x90,0x4f,0x51,0x00,0x90,0x32,0x4b,0x83,0x5a,0x80,0x43,0x00,0x00,0x80,0x32,
0x00,0x1e,0x80,0x4f,0x00,0x01,0x90,0x42,0x44,0x00,0x90,0x4a,0x44,0x00,0x90,0x4e,
0x52,0x00,0x90,0x26,0x4b,0x83,0x5a,0x80,0x42,0x00,0x00,0x80,0x4a,0x00,0x00,0x80,
0x26,0x00,0x1e,0x80,0x4e,0x00,0x01,0x90,0x43,0x43,0x00,0x90,0x4f,0x51,0x00,0x90,
0x34,0x4b,0x83,0x5c,0x80,0x34,0x00,0x23,0x90,0x28,0x4f,0x83,0x7f,0x80,0x28,0x00,
0x1f,0x90,0x34,0x4b,0x83,0x5d,0x80,0x34,0x00,0x1f,0x90,0x28,0x4b,0x83,0x5a,0x80,
0x28,0x00,0x1f,0x90,0x34,0x4b,0x83,0x5f,0x80,0x34,0x00,0x1e,0x80,0x43,0x00,0x00,
0x80,0x4f,0x00,0x01,0x90,0x3b,0x4e,0x00,0x90,0x28,0x4d,0x83,0x5f,0x80,0x3b,0x00,
0x00,0x80,0x28,0x00,0x1f,0x90,0x39,0x43,0x00,0x90,0x40,0x43,0x00,0x90,0x45,0x51,
0x00,0x90,0x34,0x4b,0x83,0x5a,0x80,0x34,0x00,0x1f,0x90,0x28,0x4b,0x83,0x5a,0x80,
0x28,0x00,0x1e,0x80,0x39,0x00,0x00,0x80,0x40,0x00,0x00,0x80,0x45,0x00,0x01,0x90,
0x3a,0x43,0x00,0x90,0x46,0x51,0x00,0x90,0x2f,0x4b,0x83,0x5c,0x80,0x3a,0x00,0x00,
0x80,0x2f,0x00,0x1e,0x80,0x46,0x00,0x05,0x90,0x3b,0x48,0x00,0x90,0x40,0x48,0x00,
0x90,0x43,0x48,0x00,0x90,0x47,0x56,0x00,0x90,0x28,0x4f,0x83,0x7f,0x80,0x28,0x00,
0x1f,0x90,0x34,0x4b,0x83,0x5d,0x80,0x34,0x00,0x1f,0x90,0x28,0x4b,0x83,0x5a,0x80,
0x28,0x00,0x1e,0x80,0x3b,0x00,0x00,0x80,0x40,0x00,0x00,0x80,0x43,0x00,0x00,0x80,
0x47,0x00,0x01,0x90,0x3b,0x43,0x00,0x90,0x40,0x43,0x00,0x90,0x47,0x51,0x00,0x90,
0x34,0x4b,0x83,0x5f,0x80,0x3b,0x00,0x00,0x80,0x34,0x00,0x1e,0x80,0x40,0x00,0x00,
0x80,0x47,0x00,0x01,0x90,0x40,0x45,0x00,0x90,0x47,0x45,0x00,0x90,0x4c,0x53,0x00,
0x90,0x28,0x4c,0x83,0x5f,0x80,0x28,0x00,0x1f,0x90,0x34,0x50,0x81,0x77,0x80,0x40,
0x00,0x00,0x80,0x47,0x00,0x00,0x80,0x4c,0x00,0x01,0x90,0x42,0x4a,0x00,0x90,0x47,
0x4a,0x00,0x90,0x4c,0x4a,0x00,0x90,0x4e,0x58,0x81,0x62,0x80,0x34,0x00,0x1f,0x90,
0x28,0x53,0x83,0x5a,0x80,0x42,0x00,0x00,0x80,0x47,0x00,0x00,0x80,0x28,0x00,0x1e,
0x80,0x4c,0x00,0x00,0x80,0x4e,0x00,0x01,0x90,0x49,0x50,0x00,0x90,0x4c,0x50,0x00,
0x90,0x4f,0x50,0x00,0x90,0x53,0x5e,0x00,0x90,0x2d,0x58,0x83,0x7a,0x80,0x2d,0x00,
0x05,0x90,0x2d,0x5d,0x83,0x7f,0x80,0x2d,0x00,0x1e,0x80,0x49,0x00,0x00,0x80,0x4c,
0x00,0x00,0x80,0x4f,0x00,0x00,0x80,0x53,0x00,0x01,0x90,0x45,0x50,0x00,0x90,0x49,
0x50,0x00,0x90,0x4c,0x50,0x00,0x90,0x51,0x5e,0x00,0x90,0x39,0x58,0x83,0x5d,0x80,
0x39,0x00,0x1f,0x90,0x2d,0x59,0x83,0x5a,0x80,0x2d,0x00,0x1e,0x80,0x45,0x00,0x00,
0x80,0x49,0x00,0x00,0x80,0x4c,0x00,0x00,0x80,0x51,0x00,0x01,0x90,0x43,0x50,0x00,
0x90,0x49,0x50,0x00,0x90,0x4c,0x50,0x00,0x90,0x4f,0x5e,0x00,0x90,0x39,0x58,0x83,
0x5f,0x80,0x39,0x00,0x1f,0x90,0x2d,0x5b,0x83,0x5f,0x80,0x2d,0x00,0x1f,0x90,0x39,
0x58,0x83,0x5a,0x80,0x39,0x00,0x1e,0x80,0x43,0x00,0x00,0x80,0x49,0x00,0x00,0x80,
0x4c,0x00,0x00,0x80,0x4f,0x00,0x01,0x90,0x4c,0x59,0x00,0x90,0x2d,0x59,0x81,0x71,
0x80,0x4c,0x00,0x10,0x90,0x4e,0x58,0x81,0x59,0x80,0x2d,0x00,0x0f,0x80,0x4e,0x00,
0x10,0x90,0x4f,0x58,0x00,0x90,0x2f,0x58,0x81,0x68,0x80,0x4f,0x00,0x10,0x90,0x51,
0x58,0x81,0x64,0x80,0x2f,0x00,0x0f,0x80,0x51,0x00,0x14,0x90,0x47,0x55,0x00,0x90,
0x4c,0x55,0x00,0x90,0x4f,0x55,0x00,0x90,0x53,0x5f,0x00,0x90,0x24,0x5b,0x83,0x7f,
0x80,0x24,0x00,0x1f,0x90,0x30,0x58,0x81,0x78,0x80,0x47,0x00,0x00,0x80,0x4c,0x00,
0x00,0x80,0x4f,0x00,0x00,0x80,0x53,0x00,0x01,0x90,0x47,0x50,0x00,0x90,0x4c,0x50,
0x00,0x90,0x4f,0x50,0x00,0x90,0x53,0x5e,0x81,0x64,0x80,0x30,0x00,0x0f,0x80,0x47,
0x00,0x00,0x80,0x4c,0x00,0x00,0x80,0x4f,0x00,0x0f,0x80,0x53,0x00,0x01,0x90,0x24,
0x57,0x83,0x5a,0x80,0x24,0x00,0x1f,0x90,0x45,0x50,0x00,0x90,0x4a,0x50,0x00,0x90,
0x4e,0x50,0x00,0x90,0x51,0x5e,0x00,0x90,0x32,0x58,0x83,0x5f,0x80,0x32,0x00,0x1f,
0x90,0x26,0x5a,0x83,0x5f,0x80,0x45,0x00,0x00,0x80,0x26,0x00,0x1e,0x80,0x4a,0x00,
0x00,0x80,0x4e,0x00,0x00,0x80,0x51,0x00,0x01,0x90,0x43,0x50,0x00,0x90,0x4a,0x50,
0x00,0x90,0x4f,0x5e,0x00,0x90,0x32,0x58,0x83,0x5a,0x80,0x43,0x00,0x00,0x80,0x32,
0x00,0x1e,0x80,0x4a,0x00,0x00,0x80,0x4f,0x00,0x01,0x90,0x42,0x51,0x00,0x90,0x4a,
0x51,0x00,0x90,0x4e,0x5f,0x00,0x90,0x26,0x58,0x83,0x5a,0x80,0x42,0x00,0x00,0x80,
0x4a,0x00,0x00,0x80,0x26,0x00,0x1e,0x80,0x4e,0x00,0x01,0x90,0x40,0x50,0x00,0x90,
0x4c,0x5e,0x00,0x90,0x34,0x58,0x83,0x5c,0x80,0x34,0x00,0x23,0x90,0x28,0x5c,0x83,
0x7f,0x80,0x28,0x00,0x1f,0x90,0x34,0x58,0x83,0x5d,0x80,0x34,0x00,0x1e,0x80,0x40,
0x00,0x00,0x80,0x4c,0x00,0x01,0x90,0x3b,0x44,0x00,0x90,0x40,0x52,0x00,0x90,0x28,
0x4b,0x83,0x5a,0x80,0x3b,0x00,0x00,0x80,0x28,0x00,0x1e,0x80,0x40,0x00,0x01,0x90,
0x43,0x43,0x00,0x90,0x47,0x51,0x00,0x90,0x34,0x4b,0x83,0x5f,0x80,0x43,0x00,0x00,
0x80,0x34,0x00,0x1e,0x80,0x47,0x00,0x01,0x90,0x42,0x46,0x00,0x90,0x45,0x54,0x00,
0x90,0x28,0x4d,0x83,0x5f,0x80,0x28,0x00,0x1f,0x90,0x34,0x4b,0x81,0x77,0x80,0x42,
0x00,0x00,0x80,0x45,0x00,0x01,0x90,0x40,0x43,0x00,0x90,0x43,0x51,0x81,0x62,0x80,
0x34,0x00,0x1f,0x90,0x26,0x4b,0x83,0x5a,0x80,0x26,0x00,0x1f,0x90,0x32,0x4b,0x83,
0x5c,0x80,0x32,0x00,0x1e,0x80,0x40,0x00,0x00,0x80,0x43,0x00,0x05,0x90,0x3b,0x48,
0x00,0x90,0x40,0x48,0x00,0x90,0x47,0x56,0x00,0x90,0x24,0x4e,0x83,0x7f,0x80,0x24,
0x00,0x1f,0x90,0x30,0x4b,0x83,0x5d,0x80,0x30,0x00,0x1e,0x80,0x3b,0x00,0x00,0x80,
0x40,0x00,0x00,0x80,0x47,0x00,0x01,0x90,0x43,0x44,0x00,0x90,0x4f,0x52,0x00,0x90,
0x24,0x4a,0x83,0x5a,0x80,0x24,0x00,0x1f,0x90,0x2b,0x4b,0x81,0x68,0x80,0x2b,0x00,
0x10,0x90,0x2d,0x4b,0x81,0x76,0x80,0x2d,0x00,0x0f,0x80,0x43,0x00,0x00,0x80,0x4f,
0x00,0x01,0x90,0x43,0x46,0x00,0x90,0x4e,0x54,0x00,0x90,0x30,0x4e,0x85,0x75,0x80,
0x43,0x00,0x00,0x80,0x4e,0x00,0x00,0x80,0x30,0x00,0x01,0x90,0x40,0x43,0x00,0x90,
0x43,0x43,0x00,0x90,0x4c,0x51,0x00,0x90,0x30,0x4b,0x81,0x71,0x80,0x30,0x00,0x82,
0x11,0x90,0x30,0x4b,0x81,0x59,0x80,0x43,0x00,0x1e,0x80,0x40,0x00,0x00,0x80,0x4c,
0x00,0x01,0x90,0x3b,0x43,0x00,0x90,0x40,0x43,0x00,0x90,0x43,0x43,0x00,0x90,0x47,
0x51,0x81,0x59,0x80,0x30,0x00,0x1f,0x90,0x2b,0x4b,0x81,0x73,0x80,0x2b,0x00,0x14,
0x90,0x24,0x4e,0x83,0x7f,0x80,0x24,0x00,0x1f,0x90,0x30,0x4b,0x83,0x5d,0x80,0x30,
0x00,0x1f,0x90,0x24,0x4a,0x83,0x5a,0x80,0x24,0x00,0x1e,0x80,0x3b,0x00,0x00,0x80,
0x40,0x00,0x00,0x80,0x43,0x00,0x00,0x80,0x47,0x00,0x01,0x90,0x39,0x43,0x00,0x90,
0x40,0x43,0x00,0x90,0x43,0x43,0x00,0x90,0x45,0x51,0x00,0x90,0x2b,0x4b,0x81,0x68,
0x80,0x2b,0x00,0x10,0x90,0x2d,0x4b,0x81,0x76,0x80,0x2d,0x00,0x10,0x90,0x30,0x4e,
0x85,0x75,0x80,0x30,0x00,0x01,0x90,0x30,0x4b,0x81,0x71,0x80,0x30,0x00,0x0f,0x80,
0x39,0x00,0x00,0x80,0x40,0x00,0x00,0x80,0x43,0x00,0x00,0x80,0x45,0x00,0x01,0x90,
0x3b,0x44,0x00,0x90,0x40,0x44,0x00,0x90,0x47,0x52,0x82,0x01,0x90,0x30,0x4b,0x81,
0x68,0x80,0x30,0x00,0x10,0x90,0x32,0x4b,0x81,0x68,0x80,0x32,0x00,0x10,0x90,0x30,
0x4b,0x81,0x73,0x80,0x30,0x00,0x0f,0x80,0x3b,0x00,0x00,0x80,0x40,0x00,0x00,0x80,
0x47,0x00,0x05,0x90,0x3e,0x48,0x00,0x90,0x42,0x48,0x00,0x90,0x45,0x48,0x00,0x90,
0x4a,0x56,0x00,0x90,0x2f,0x50,0x83,0x7f,0x80,0x2f,0x00,0x1f,0x90,0x23,0x49,0x83,
0x5d,0x80,0x23,0x00,0x1f,0x90,0x2f,0x4c,0x83,0x5a,0x80,0x2f,0x00,0x1e,0x80,0x3e,
0x00,0x00,0x80,0x42,0x00,0x00,0x80,0x45,0x00,0x00,0x80,0x4a,0x00,0x01,0x90,0x39,
0x43,0x00,0x90,0x42,0x43,0x00,0x90,0x45,0x51,0x00,0x90,0x2a,0x4b,0x81,0x68,0x80,
0x2a,0x00,0x10,0x90,0x2d,0x4b,0x81,0x76,0x80,0x2d,0x00,0x10,0x90,0x2f,0x4e,0x85,
0x75,0x80,0x2f,0x00,0x01,0x90,0x2f,0x4b,0x81,0x71,0x80,0x2f,0x00,0x82,0x11,0x90,
0x2f,0x4b,0x81,0x68,0x80,0x2f,0x00,0x10,0x90,0x2a,0x4b,0x83,0x5c,0x80,0x2a,0x00,
0x1e,0x80,0x39,0x00,0x00,0x80,0x42,0x00,0x00,0x80,0x45,0x00,0x05,0x90,0x37,0x48,
0x00,0x90,0x3e,0x48,0x00,0x90,0x43,0x56,0x00,0x90,0x23,0x4e,0x83,0x7f,0x80,0x23,
0x00,0x1f,0x90,0x2f,0x4b,0x83,0x5d,0x80,0x2f,0x00,0x1f,0x90,0x23,0x4a,0x83,0x5a,
0x80,0x23,0x00,0x1e,0x80,0x37,0x00,0x00,0x80,0x3e,0x00,0x00,0x80,0x43,0x00,0x01,
0x90,0x36,0x43,0x00,0x90,0x3e,0x43,0x00,0x90,0x42,0x51,0x00,0x90,0x2a,0x4b,0x81,
0x68,0x80,0x2a,0x00,0x10,0x90,0x2d,0x4b,0x81,0x76,0x80,0x2d,0x00,0x10,0x90,0x2f,
0x4e,0x81,0x77,0x80,0x2f,0x00,0x10,0x90,0x2a,0x4b,0x81,0x67,0x80,0x2a,0x00,0x10,
0x90,0x2d,0x4b,0x81,0x68,0x80,0x2d,0x00,0x10,0x90,0x2f,0x4b,0x83,0x72,0x80,0x2f,
0x00,0x10,0x90,0x2a,0x4b,0x81,0x68,0x80,0x2a,0x00,0x10,0x90,0x2d,0x4b,0x81,0x68,
0x80,0x2d,0x00,0x10,0x90,0x2f,0x4b,0x81,0x73,0x80,0x2f,0x00,0x0f,0x80,0x36,0x00,
0x00,0x80,0x3e,0x00,0x00,0x80,0x42,0x00,0x05,0x90,0x34,0x48,0x00,0x90,0x3c,0x48,
0x00,0x90,0x40,0x56,0x00,0x90,0x21,0x4d,0x83,0x7f,0x80,0x21,0x00,0x1f,0x90,0x2d,
0x4b,0x83,0x5d,0x80,0x2d,0x00,0x1f,0x90,0x21,0x49,0x83,0x5a,0x80,0x21,0x00,0x1e,
0x80,0x34,0x00,0x00,0x80,0x3c,0x00,0x00,0x80,0x40,0x00,0x01,0x90,0x3b,0x43,0x00,
0x90,0x3c,0x43,0x00,0x90,0x40,0x43,0x00,0x90,0x47,0x51,0x00,0x90,0x28,0x4a,0x81,
0x68,0x80,0x28,0x00,0x10,0x90,0x2b,0x4b,0x81,0x76,0x80,0x2b,0x00,0x10,0x90,0x2d,
0x4e,0x85,0x75,0x80,0x2d,0x00,0x01,0x90,0x2d,0x4b,0x81,0x71,0x80,0x2d,0x00,0x82,
0x11,0x90,0x2d,0x4b,0x81,0x68,0x80,0x2d,0x00,0x10,0x90,0x28,0x4a,0x83,0x5c,0x80,
0x28,0x00,0x23,0x90,0x21,0x4d,0x83,0x7f,0x80,0x21,0x00,0x1f,0x90,0x2d,0x4b,0x83,
0x5d,0x80,0x2d,0x00,0x1f,0x90,0x21,0x49,0x83,0x5a,0x80,0x21,0x00,0x1e,0x80,0x3b,
0x00,0x00,0x80,0x3c,0x00,0x00,0x80,0x40,0x00,0x00,0x80,0x47,0x00,0x01,0x90,0x37,
0x43,0x00,0x90,0x3c,0x43,0x00,0x90,0x40,0x43,0x00,0x90,0x43,0x51,0x00,0x90,0x28,
0x4a,0x81,0x68,0x80,0x28,0x00,0x10,0x90,0x2b,0x4b,0x81,0x76,0x80,0x2b,0x00,0x10,
0x90,0x2d,0x4e,0x85,0x75,0x80,0x2d,0x00,0x01,0x90,0x2d,0x4b,0x81,0x71,0x80,0x2d,
0x00,0x0f,0x80,0x37,0x00,0x00,0x80,0x3c,0x00,0x00,0x80,0x40,0x00,0x00,0x80,0x43,
0x00,0x01,0x90,0x39,0x44,0x00,0x90,0x3c,0x44,0x00,0x90,0x45,0x52,0x82,0x01,0x90,
0x28,0x4a,0x81,0x68,0x80,0x28,0x00,0x10,0x90,0x2d,0x4b,0x81,0x68,0x80,0x2d,0x00,
0x10,0x90,0x2e,0x4b,0x81,0x73,0x80,0x2e,0x00,0x0f,0x80,0x39,0x00,0x00,0x80,0x3c,
0x00,0x00,0x80,0x45,0x00,0x05,0x90,0x3b,0x43,0x00,0x90,0x3e,0x43,0x00,0x90,0x42,
0x43,0x00,0x90,0x47,0x51,0x00,0x90,0x2f,0x50,0x83,0x7f,0x80,0x2f,0x00,0x1f,0x90,
0x23,0x49,0x83,0x5d,0x80,0x23,0x00,0x1f,0x90,0x2f,0x4c,0x83,0x5a,0x80,0x2f,0x00,
0x1f,0x90,0x2a,0x4b,0x81,0x68,0x80,0x2a,0x00,0x10,0x90,0x2d,0x4b,0x81,0x76,0x80,
0x2d,0x00,0x10,0x90,0x2f,0x4e,0x85,0x75,0x80,0x2f,0x00,0x01,0x90,0x2f,0x4b,0x81,
0x71,0x80,0x2f,0x00,0x82,0x11,0x90,0x2a,0x4b,0x81,0x68,0x80,0x2a,0x00,0x10,0x90,
0x2d,0x4b,0x83,0x5c,0x80,0x2d,0x00,0x1e,0x80,0x3b,0x00,0x00,0x80,0x3e,0x00,0x00,
0x80,0x42,0x00,0x00,0x80,0x47,0x00,0x05,0x90,0x23,0x4e,0x83,0x7f,0x80,0x23,0x00,
0x1f,0x90,0x36,0x43,0x00,0x90,0x3e,0x43,0x00,0x90,0x42,0x51,0x00,0x90,0x2f,0x4b,
0x83,0x5d,0x80,0x36,0x00,0x00,0x80,0x3e,0x00,0x1e,0x80,0x42,0x00,0x01,0x90,0x39,
0x44,0x00,0x90,0x45,0x52,0x83,0x5a,0x80,0x39,0x00,0x1e,0x80,0x45,0x00,0x00,0x80,
0x2f,0x00,0x01,0x90,0x3b,0x43,0x00,0x90,0x47,0x51,0x00,0x90,0x2d,0x4b,0x83,0x5f,
0x80,0x3b,0x00,0x1e,0x80,0x47,0x00,0x01,0x90,0x3e,0x46,0x00,0x90,0x42,0x46,0x00,
0x90,0x4a,0x54,0x83,0x5f,0x80,0x2d,0x00,0x1f,0x90,0x2a,0x4b,0x81,0x77,0x80,0x3e,
0x00,0x00,0x80,0x42,0x00,0x00,0x80,0x4a,0x00,0x01,0x90,0x40,0x43,0x00,0x90,0x4c,
0x51,0x85,0x5b,0x80,0x40,0x00,0x1e,0x80,0x4c,0x00,0x00,0x80,0x2a,0x00,0x01,0x90,
0x42,0x43,0x00,0x90,0x4e,0x51,0x00,0x90,0x23,0x49,0x83,0x5c,0x80,0x42,0x00,0x00,
0x80,0x23,0x00,0x1e,0x80,0x4e,0x00,0x05,0x90,0x43,0x48,0x00,0x90,0x47,0x48,0x00,
0x90,0x4c,0x48,0x00,0x90,0x4f,0x56,0x00,0x90,0x24,0x4e,0x83,0x7f,0x80,0x24,0x00,
0x1f,0x90,0x30,0x4b,0x81,0x78,0x80,0x43,0x00,0x00,0x80,0x47,0x00,0x00,0x80,0x4c,
0x00,0x00,0x80,0x4f,0x00,0x01,0x90,0x42,0x43,0x00,0x90,0x47,0x43,0x00,0x90,0x4e,
0x51,0x81,0x64,0x80,0x30,0x00,0x1f,0x90,0x24,0x4a,0x83,0x5a,0x80,0x42,0x00,0x00,
0x80,0x24,0x00,0x1e,0x80,0x47,0x00,0x00,0x80,0x4e,0x00,0x01,0x90,0x40,0x43,0x00,
0x90,0x47,0x43,0x00,0x90,0x4c,0x51,0x00,0x90,0x2b,0x4b,0x81,0x68,0x80,0x2b,0x00,
0x10,0x90,0x2d,0x4b,0x81,0x67,0x80,0x40,0x00,0x0f,0x80,0x2d,0x00,0x0f,0x80,0x47,
0x00,0x00,0x80,0x4c,0x00,0x01,0x90,0x43,0x46,0x00,0x90,0x47,0x46,0x00,0x90,0x4f,
0x54,0x00,0x90,0x30,0x4e,0x85,0x75,0x80,0x43,0x00,0x00,0x80,0x47,0x00,0x00,0x80,
0x4f,0x00,0x00,0x80,0x30,0x00,0x01,0x90,0x42,0x43,0x00,0x90,0x45,0x43,0x00,0x90,
0x4e,0x51,0x00,0x90,0x30,0x4b,0x81,0x71,0x80,0x30,0x00,0x82,0x11,0x90,0x30,0x4b,
0x81,0x59,0x80,0x42,0x00,0x00,0x80,0x45,0x00,0x1e,0x80,0x4e,0x00,0x01,0x90,0x40,
0x43,0x00,0x90,0x43,0x43,0x00,0x90,0x47,0x43,0x00,0x90,0x4c,0x51,0x81,0x59,0x80,
0x30,0x00,0x1f,0x90,0x2b,0x4b,0x81,0x73,0x80,0x2b,0x00,0x14,0x90,0x24,0x4e,0x83,
0x7f,0x80,0x24,0x00,0x1f,0x90,0x30,0x4b,0x83,0x5d,0x80,0x30,0x00,0x1f,0x90,0x24,
0x4a,0x83,0x5a,0x80,0x24,0x00,0x1e,0x80,0x40,0x00,0x00,0x80,0x43,0x00,0x00,0x80,
0x47,0x00,0x00,0x80,0x4c,0x00,0x01,0x90,0x43,0x43,0x00,0x90,0x47,0x43,0x00,0x90,
0x4c,0x43,0x00,0x90,0x4f,0x51,0x00,0x90,0x2b,0x4b,0x81,0x68,0x80,0x2b,0x00,0x10,
0x90,0x2d,0x4b,0x81,0x67,0x80,0x43,0x00,0x0f,0x80,0x2d,0x00,0x0f,0x80,0x47,0x00,
0x00,0x80,0x4c,0x00,0x00,0x80,0x4f,0x00,0x01,0x90,0x42,0x46,0x00,0x90,0x47,0x46,
0x00,0x90,0x4e,0x54,0x00,0x90,0x30,0x4e,0x85,0x75,0x80,0x42,0x00,0x00,0x80,0x47,
0x00,0x00,0x80,0x4e,0x00,0x00,0x80,0x30,0x00,0x01,0x90,0x40,0x43,0x00,0x90,0x47,
0x43,0x00,0x90,0x4c,0x51,0x00,0x90,0x30,0x4b,0x81,0x71,0x80,0x30,0x00,0x82,0x11,
0x90,0x30,0x4b,0x81,0x68,0x80,0x30,0x00,0x10,0x90,0x32,0x4b,0x81,0x68,0x80,0x32,
0x00,0x10,0x90,0x30,0x4b,0x81,0x73,0x80,0x30,0x00,0x0f,0x80,0x40,0x00,0x00,0x80,
0x47,0x00,0x00,0x80,0x4c,0x00,0x05,0x90,0x3e,0x48,0x00,0x90,0x42,0x48,0x00,0x90,
0x4a,0x56,0x00,0x90,0x2f,0x50,0x86,0x16,0x80,0x3e,0x00,0x00,0x80,0x42,0x00,0x00,
0x80,0x4a,0x00,0x00,0x80,0x2f,0x00,0x01,0x90,0x3e,0x43,0x00,0x90,0x42,0x43,0x00,
0x90,0x4a,0x4d,0x00,0x90,0x2f,0x4b,0x81,0x73,0x80,0x2f,0x00,0x82,0x12,0x90,0x2d,
0x4b,0x81,0x58,0x80,0x3e,0x00,0x0f,0x80,0x2d,0x00,0x0f,0x80,0x42,0x00,0x00,0x80,
0x4a,0x00,0x01,0x90,0x3b,0x43,0x00,0x90,0x42,0x43,0x00,0x90,0x47,0x51,0x00,0x90,
0x2f,0x4b,0x87,0x7b,0x80,0x2f,0x00,0x01,0x90,0x2f,0x4b,0x83,0x5a,0x80,0x2f,0x00,
0x1f,0x90,0x2d,0x4c,0x81,0x71,0x80,0x2d,0x00,0x10,0x90,0x2e,0x4b,0x81,0x68,0x80,
0x2e,0x00,0x10,0x90,0x2f,0x4b,0x83,0x5c,0x80,0x2f,0x00,0x1e,0x80,0x3b,0x00,0x00,
0x80,0x42,0x00,0x00,0x80,0x47,0x00,0x05,0x90,0x39,0x48,0x00,0x90,0x3b,0x48,0x00,
0x90,0x3e,0x48,0x00,0x90,0x45,0x56,0x00,0x90,0x34,0x50,0x86,0x16,0x80,0x39,0x00,
0x00,0x80,0x3b,0x00,0x00,0x80,0x3e,0x00,0x00,0x80,0x45,0x00,0x00,0x80,0x34,0x00,
0x01,0x90,0x39,0x43,0x00,0x90,0x3b,0x43,0x00,0x90,0x3e,0x43,0x00,0x90,0x45,0x4d,
0x00,0x90,0x34,0x4b,0x81,0x73,0x80,0x34,0x00,0x82,0x12,0x90,0x2f,0x4b,0x81,0x58,
0x80,0x39,0x00,0x0f,0x80,0x2f,0x00,0x0f,0x80,0x3b,0x00,0x00,0x80,0x3e,0x00,0x00,
0x80,0x45,0x00,0x01,0x90,0x38,0x43,0x00,0x90,0x3b,0x43,0x00,0x90,0x3e,0x43,0x00,
0x90,0x44,0x51,0x00,0x90,0x34,0x4b,0x85,0x75,0x80,0x34,0x00,0x10,0x90,0x32,0x4b,
0x81,0x67,0x80,0x32,0x00,0x10,0x90,0x34,0x4b,0x81,0x68,0x80,0x34,0x00,0x10,0x90,
0x2f,0x4b,0x81,0x71,0x80,0x2f,0x00,0x0f,0x80,0x38,0x00,0x00,0x80,0x3b,0x00,0x00,
0x80,0x3e,0x00,0x00,0x80,0x44,0x00,0x01,0x90,0x3b,0x44,0x00,0x90,0x47,0x52,0x00,
0x90,0x2d,0x4c,0x81,0x71,0x80,0x2d,0x00,0x10,0x90,0x2b,0x4b,0x81,0x68,0x80,0x2b,
0x00,0x10,0x90,0x28,0x4a,0x83,0x5c,0x80,0x28,0x00,0x1e,0x80,0x3b,0x00,0x00,0x80,
0x47,0x00,0x05,0x90,0x3c,0x48,0x00,0x90,0x40,0x56,0x00,0x90,0x2d,0x50,0x86,0x16,
0x80,0x3c,0x00,0x00,0x80,0x40,0x00,0x00,0x80,0x2d,0x00,0x01,0x90,0x36,0x43,0x00,
0x90,0x3c,0x43,0x00,0x90,0x42,0x51,0x00,0x90,0x2d,0x4b,0x81,0x73,0x80,0x36,0x00,
0x00,0x80,0x3c,0x00,0x0f,0x80,0x42,0x00,0x83,0x5b,0x80,0x2d,0x00,0x1f,0x90,0x37,
0x43,0x00,0x90,0x3d,0x43,0x00,0x90,0x40,0x43,0x00,0x90,0x43,0x51,0x00,0x90,0x2e,
0x4b,0x83,0x5f,0x80,0x2e,0x00,0x82,0x26,0x90,0x2c,0x4b,0x81,0x67,0x80,0x2c,0x00,
0x10,0x90,0x2e,0x4b,0x83,0x5a,0x80,0x2e,0x00,0x1f,0x90,0x22,0x4a,0x83,0x5a,0x80,
0x22,0x00,0x1e,0x80,0x37,0x00,0x00,0x80,0x3d,0x00,0x00,0x80,0x40,0x00,0x00,0x80,
0x43,0x00,0x01,0x90,0x37,0x43,0x00,0x90,0x3d,0x43,0x00,0x90,0x40,0x43,0x00,0x90,
0x43,0x51,0x00,0x90,0x2e,0x4b,0x83,0x5c,0x80,0x37,0x00,0x00,0x80,0x3d,0x00,0x00,
0x80,0x2e,0x00,0x1e,0x80,0x40,0x00,0x00,0x80,0x43,0x00,0x05,0x90,0x39,0x48,0x00,
0x90,0x3e,0x48,0x00,0x90,0x42,0x48,0x00,0x90,0x45,0x56,0x00,0x90,0x2f,0x50,0x86,
0x16,0x80,0x39,0x00,0x00,0x80,0x3e,0x00,0x00,0x80,0x42,0x00,0x00,0x80,0x45,0x00,
0x00,0x80,0x2f,0x00,0x01,0x90,0x3b,0x43,0x00,0x90,0x3e,0x43,0x00,0x90,0x47,0x51,
0x00,0x90,0x2f,0x4b,0x81,0x73,0x80,0x3b,0x00,0x00,0x80,0x3e,0x00,0x0f,0x80,0x47,
0x00,0x83,0x5b,0x80,0x2f,0x00,0x1f,0x90,0x3d,0x43,0x00,0x90,0x40,0x43,0x00,0x90,
0x43,0x43,0x00,0x90,0x49,0x51,0x00,0x90,0x31,0x4b,0x83,0x5f,0x80,0x31,0x00,0x82,
0x26,0x90,0x2f,0x4b,0x81,0x67,0x80,0x2f,0x00,0x10,0x90,0x31,0x4b,0x83,0x5a,0x80,
0x31,0x00,0x1e,0x80,0x3d,0x00,0x00,0x80,0x40,0x00,0x00,0x80,0x43,0x00,0x00,0x80,
0x49,0x00,0x01,0x90,0x43,0x44,0x00,0x90,0x4f,0x52,0x00,0x90,0x25,0x4b,0x83,0x5a,
0x80,0x25,0x00,0x1f,0x90,0x31,0x4b,0x83,0x5c,0x80,0x31,0x00,0x1e,0x80,0x43,0x00,
0x00,0x80,0x4f,0x00,0x05,0x90,0x43,0x43,0x00,0x90,0x46,0x43,0x00,0x90,0x4c,0x43,
0x00,0x90,0x4f,0x51,0x00,0x90,0x2a,0x50,0x84,0x1d,0x80,0x2a,0x00,0x01,0x90,0x2a,
0x4c,0x83,0x5d,0x80,0x2a,0x00,0x1f,0x90,0x46,0x4d,0x82,0x02,0x90,0x25,0x4d,0x81,
0x67,0x80,0x25,0x00,0x10,0x90,0x28,0x4e,0x81,0x68,0x80,0x28,0x00,0x10,0x90,0x25,
0x4f,0x81,0x76,0x80,0x25,0x00,0x0f,0x80,0x46,0x00,0x01,0x90,0x49,0x49,0x00,0x90,
0x4c,0x57,0x00,0x90,0x2a,0x51,0x83,0x5f,0x80,0x2a,0x00,0x1f,0x90,0x1e,0x4e,0x83,
0x5a,0x80,0x1e,0x00,0x1e,0x80,0x49,0x00,0x00,0x80,0x4c,0x00,0x01,0x90,0x4f,0x54,
0x00,0x90,0x22,0x52,0x83,0x5a,0x80,0x22,0x00,0x1f,0x90,0x2a,0x56,0x83,0x5c,0x80,
0x2a,0x00,0x1e,0x80,0x4f,0x00,0x00,0x80,0x43,0x00,0x00,0x80,0x46,0x00,0x00,0x80,
0x4c,0x00,0x00,0x80,0x4f,0x00,0x05,0x90,0x42,0x55,0x00,0x90,0x45,0x55,0x00,0x90,
0x4b,0x55,0x00,0x90,0x4e,0x63,0x00,0x90,0x23,0x53,0x00,0x90,0x2f,0x63,0x83,0x33,
0x80,0x42,0x00,0x00,0x80,0x45,0x00,0x00,0x80,0x4b,0x00,0x00,0x80,0x4e,0x00,0x00,
0x80,0x23,0x00,0x00,0x80,0x2f,0x00,0x8c,0x5e,0x90,0x53,0x5b,0x81,0x77,0x80,0x53,
0x00,0x10,0x90,0x51,0x58,0x81,0x67,0x80,0x51,0x00,0x10,0x90,0x4e,0x58,0x81,0x68,
0x80,0x4e,0x00,0x10,0x90,0x4b,0x58,0x81,0x71,0x80,0x4b,0x00,0x10,0x90,0x49,0x59,
0x81,0x71,0x80,0x49,0x00,0x10,0x90,0x47,0x58,0x81,0x68,0x80,0x47,0x00,0x10,0x90,
0x45,0x58,0x00,0x90,0x2f,0x58,0x81,0x68,0x80,0x45,0x00,0x10,0x90,0x42,0x58,0x81,
0x64,0x80,0x2f,0x00,0x0f,0x80,0x42,0x00,0x14,0x90,0x43,0x55,0x00,0x90,0x47,0x55,
0x00,0x90,0x4c,0x55,0x00,0x90,0x4f,0x63,0x00,0x90,0x28,0x5c,0x81,0x4c,0x80,0x47,
0x00,0x1e,0x80,0x43,0x00,0x00,0x80,0x4c,0x00,0x00,0x80,0x4f,0x00,0x82,0x15,0x80,
0x28,0x00,0x1f,0x90,0x42,0x50,0x00,0x90,0x45,0x50,0x00,0x90,0x4a,0x50,0x00,0x90,
0x4e,0x5e,0x00,0x90,0x34,0x58,0x81,0x2a,0x80,0x45,0x00,0x1e,0x80,0x42,0x00,0x00,
0x80,0x4a,0x00,0x00,0x80,0x4e,0x00,0x82,0x15,0x80,0x34,0x00,0x1f,0x90,0x40,0x51,
0x00,0x90,0x43,0x51,0x00,0x90,0x47,0x51,0x00,0x90,0x4c,0x5f,0x00,0x90,0x28,0x58,
0x83,0x10,0x80,0x40,0x00,0x00,0x80,0x43,0x00,0x00,0x80,0x47,0x00,0x00,0x80,0x4c,
0x00,0x4a,0x80,0x28,0x00,0x1f,0x90,0x34,0x58,0x83,0x5f,0x80,0x34,0x00,0x1f,0x90,
0x40,0x53,0x00,0x90,0x43,0x53,0x00,0x90,0x47,0x53,0x00,0x90,0x4c,0x61,0x00,0x90,
0x28,0x5a,0x83,0x5f,0x80,0x28,0x00,0x1f,0x90,0x34,0x58,0x81,0x77,0x80,0x40,0x00,
0x00,0x80,0x43,0x00,0x00,0x80,0x47,0x00,0x00,0x80,0x4c,0x00,0x01,0x90,0x42,0x50,
0x00,0x90,0x47,0x50,0x00,0x90,0x4e,0x5e,0x81,0x62,0x80,0x34,0x00,0x1f,0x90,0x28,
0x58,0x83,0x5a,0x80,0x42,0x00,0x00,0x80,0x47,0x00,0x00,0x80,0x28,0x00,0x1e,0x80,
0x4e,0x00,0x01,0x90,0x4c,0x50,0x00,0x90,0x4f,0x5e,0x00,0x90,0x26,0x57,0x81,0x68,
0x80,0x4c,0x00,0x0f,0x80,0x4f,0x00,0x01,0x90,0x4e,0x50,0x00,0x90,0x51,0x5e,0x81,
0x64,0x80,0x26,0x00,0x0f,0x80,0x4e,0x00,0x0f,0x80,0x51,0x00,0x05,0x90,0x47,0x55,
0x00,0x90,0x4c,0x55,0x00,0x90,0x4f,0x55,0x00,0x90,0x53,0x63,0x00,0x90,0x24,0x5b,
0x81,0x6a,0x80,0x47,0x00,0x00,0x80,0x4c,0x00,0x00,0x80,0x4f,0x00,0x00,0x80,0x53,
0x00,0x82,0x15,0x80,0x24,0x00,0x1f,0x90,0x45,0x50,0x00,0x90,0x47,0x50,0x00,0x90,
0x4c,0x50,0x00,0x90,0x51,0x5e,0x00,0x90,0x30,0x58,0x81,0x48,0x80,0x45,0x00,0x00,
0x80,0x47,0x00,0x00,0x80,0x4c,0x00,0x00,0x80,0x51,0x00,0x82,0x15,0x80,0x30,0x00,
0x1f,0x90,0x43,0x51,0x00,0x90,0x47,0x51,0x00,0x90,0x4c,0x51,0x00,0x90,0x4f,0x5f,
0x00,0x90,0x24,0x57,0x83,0x10,0x80,0x43,0x00,0x00,0x80,0x47,0x00,0x00,0x80,0x4c,
0x00,0x00,0x80,0x4f,0x00,0x4a,0x80,0x24,0x00,0x1f,0x90,0x30,0x58,0x83,0x7d,0x80,
0x30,0x00,0x01,0x90,0x43,0x53,0x00,0x90,0x48,0x53,0x00,0x90,0x4c,0x53,0x00,0x90,
0x4f,0x61,0x00,0x90,0x24,0x51,0x00,0x90,0x30,0x61,0x83,0x5f,0x80,0x24,0x00,0x1e,
0x80,0x30,0x00,0x01,0x90,0x30,0x58,0x81,0x68,0x80,0x30,0x00,0x0f,0x80,0x43,0x00,
0x00,0x80,0x48,0x00,0x00,0x80,0x4c,0x00,0x00,0x80,0x4f,0x00,0x01,0x90,0x42,0x50,
0x00,0x90,0x45,0x50,0x00,0x90,0x4a,0x50,0x00,0x90,0x4e,0x5e,0x00,0x90,0x26,0x4f,
0x00,0x90,0x32,0x5a,0x85,0x5b,0x80,0x26,0x00,0x1e,0x80,0x32,0x00,0x01,0x90,0x32,
0x58,0x83,0x5c,0x80,0x32,0x00,0x1e,0x80,0x42,0x00,0x00,0x80,0x45,0x00,0x00,0x80,
0x4a,0x00,0x00,0x80,0x4e,0x00,0x05,0x90,0x43,0x55,0x00,0x90,0x47,0x55,0x00,0x90,
0x4c,0x55,0x00,0x90,0x4f,0x63,0x00,0x90,0x28,0x5c,0x81,0x4c,0x80,0x47,0x00,0x1e,
0x80,0x43,0x00,0x00,0x80,0x4c,0x00,0x00,0x80,0x4f,0x00,0x82,0x15,0x80,0x28,0x00,
0x1f,0x90,0x42,0x50,0x00,0x90,0x45,0x50,0x00,0x90,0x4a,0x50,0x00,0x90,0x4e,0x5e,
0x00,0x90,0x34,0x58,0x81,0x2a,0x80,0x45,0x00,0x1e,0x80,0x42,0x00,0x00,0x80,0x4a,
0x00,0x00,0x80,0x4e,0x00,0x82,0x15,0x80,0x34,0x00,0x1f,0x90,0x40,0x51,0x00,0x90,
0x43,0x51,0x00,0x90,0x47,0x51,0x00,0x90,0x4c,0x5f,0x00,0x90,0x28,0x58,0x83,0x10,
0x80,0x40,0x00,0x00,0x80,0x43,0x00,0x00,0x80,0x47,0x00,0x00,0x80,0x4c,0x00,0x4a,
0x80,0x28,0x00,0x1f,0x90,0x34,0x58,0x83,0x5f,0x80,0x34,0x00,0x1f,0x90,0x40,0x53,
0x00,0x90,0x43,0x53,0x00,0x90,0x47,0x53,0x00,0x90,0x4c,0x61,0x00,0x90,0x28,0x5a,
0x83,0x5f,0x80,0x28,0x00,0x1f,0x90,0x34,0x58,0x81,0x77,0x80,0x40,0x00,0x00,0x80,
0x43,0x00,0x00,0x80,0x47,0x00,0x00,0x80,0x4c,0x00,0x01,0x90,0x42,0x50,0x00,0x90,
0x47,0x50,0x00,0x90,0x4e,0x5e,0x81,0x62,0x80,0x34,0x00,0x1f,0x90,0x28,0x58,0x83,
0x5a,0x80,0x42,0x00,0x00,0x80,0x47,0x00,0x00,0x80,0x28,0x00,0x1e,0x80,0x4e,0x00,
0x01,0x90,0x4c,0x50,0x00,0x90,0x4f,0x5e,0x00,0x90,0x26,0x57,0x81,0x68,0x80,0x4c,
0x00,0x0f,0x80,0x4f,0x00,0x01,0x90,0x4e,0x50,0x00,0x90,0x51,0x5e,0x81,0x64,0x80,
0x26,0x00,0x0f,0x80,0x4e,0x00,0x0f,0x80,0x51,0x00,0x05,0x90,0x47,0x55,0x00,0x90,
0x4c,0x55,0x00,0x90,0x4f,0x55,0x00,0x90,0x53,0x63,0x00,0x90,0x24,0x5b,0x81,0x6a,
0x80,0x47,0x00,0x00,0x80,0x4c,0x00,0x00,0x80,0x4f,0x00,0x00,0x80,0x53,0x00,0x82,
0x15,0x80,0x24,0x00,0x1f,0x90,0x45,0x50,0x00,0x90,0x47,0x50,0x00,0x90,0x4c,0x50,
0x00,0x90,0x51,0x5e,0x00,0x90,0x30,0x58,0x81,0x48,0x80,0x45,0x00,0x00,0x80,0x47,
0x00,0x00,0x80,0x4c,0x00,0x00,0x80,0x51,0x00,0x82,0x15,0x80,0x30,0x00,0x1f,0x90,
0x43,0x51,0x00,0x90,0x47,0x51,0x00,0x90,0x4c,0x51,0x00,0x90,0x4f,0x5f,0x00,0x90,
0x24,0x57,0x83,0x10,0x80,0x43,0x00,0x00,0x80,0x47,0x00,0x00,0x80,0x4c,0x00,0x00,
0x80,0x4f,0x00,0x4a,0x80,0x24,0x00,0x1f,0x90,0x30,0x58,0x83,0x7d,0x80,0x30,0x00,
0x01,0x90,0x43,0x53,0x00,0x90,0x48,0x53,0x00,0x90,0x4c,0x53,0x00,0x90,0x4f,0x61,
0x00,0x90,0x24,0x51,0x00,0x90,0x30,0x61,0x83,0x5f,0x80,0x24,0x00,0x1e,0x80,0x30,
0x00,0x01,0x90,0x30,0x58,0x81,0x68,0x80,0x30,0x00,0x0f,0x80,0x43,0x00,0x00,0x80,
0x48,0x00,0x00,0x80,0x4c,0x00,0x00,0x80,0x4f,0x00,0x01,0x90,0x42,0x50,0x00,0x90,
0x45,0x50,0x00,0x90,0x4a,0x50,0x00,0x90,0x4e,0x5e,0x00,0x90,0x26,0x4f,0x00,0x90,
0x32,0x5a,0x84,0x01,0x80,0x26,0x00,0x00,0x80,0x32,0x00,0x01,0x90,0x26,0x57,0x81,
0x68,0x80,0x26,0x00,0x10,0x90,0x32,0x58,0x83,0x5c,0x80,0x32,0x00,0x1e,0x80,0x42,
0x00,0x00,0x80,0x45,0x00,0x00,0x80,0x4a,0x00,0x00,0x80,0x4e,0x00,0x05,0x90,0x43,
0x55,0x00,0x90,0x47,0x55,0x00,0x90,0x4c,0x55,0x00,0x90,0x4f,0x63,0x00,0x90,0x28,
0x5c,0x81,0x4c,0x80,0x47,0x00,0x1e,0x80,0x43,0x00,0x00,0x80,0x4c,0x00,0x00,0x80,
0x4f,0x00,0x82,0x15,0x80,0x28,0x00,0x1f,0x90,0x42,0x50,0x00,0x90,0x45,0x50,0x00,
0x90,0x4a,0x50,0x00,0x90,0x4e,0x5e,0x00,0x90,0x34,0x58,0x81,0x2a,0x80,0x45,0x00,
0x1e,0x80,0x42,0x00,0x00,0x80,0x4a,0x00,0x00,0x80,0x4e,0x00,0x82,0x15,0x80,0x34,
0x00,0x1f,0x90,0x40,0x51,0x00,0x90,0x43,0x51,0x00,0x90,0x47,0x51,0x00,0x90,0x4c,
0x5f,0x00,0x90,0x28,0x58,0x83,0x10,0x80,0x40,0x00,0x00,0x80,0x43,0x00,0x00,0x80,
0x47,0x00,0x00,0x80,0x4c,0x00,0x4a,0x80,0x28,0x00,0x1f,0x90,0x34,0x58,0x83,0x5f,
0x80,0x34,0x00,0x1f,0x90,0x40,0x53,0x00,0x90,0x43,0x53,0x00,0x90,0x47,0x53,0x00,
0x90,0x4c,0x61,0x00,0x90,0x28,0x5a,0x83,0x5f,0x80,0x28,0x00,0x1f,0x90,0x34,0x58,
0x81,0x77,0x80,0x40,0x00,0x00,0x80,0x43,0x00,0x00,0x80,0x47,0x00,0x00,0x80,0x4c,
0x00,0x01,0x90,0x42,0x50,0x00,0x90,0x47,0x50,0x00,0x90,0x4e,0x5e,0x81,0x62,0x80,
0x34,0x00,0x1f,0x90,0x28,0x58,0x83,0x5a,0x80,0x42,0x00,0x00,0x80,0x47,0x00,0x00,
0x80,0x28,0x00,0x1e,0x80,0x4e,0x00,0x01,0x90,0x4c,0x50,0x00,0x90,0x4f,0x5e,0x00,
0x90,0x26,0x57,0x81,0x68,0x80,0x4c,0x00,0x0f,0x80,0x4f,0x00,0x01,0x90,0x4e,0x50,
0x00,0x90,0x51,0x5e,0x81,0x64,0x80,0x26,0x00,0x0f,0x80,0x4e,0x00,0x0f,0x80,0x51,
0x00,0x05,0x90,0x47,0x55,0x00,0x90,0x4c,0x55,0x00,0x90,0x4f,0x55,0x00,0x90,0x53,
0x63,0x00,0x90,0x24,0x5b,0x81,0x6a,0x80,0x47,0x00,0x00,0x80,0x4c,0x00,0x00,0x80,
0x4f,0x00,0x00,0x80,0x53,0x00,0x82,0x15,0x80,0x24,0x00,0x1f,0x90,0x45,0x50,0x00,
0x90,0x47,0x50,0x00,0x90,0x4c,0x50,0x00,0x90,0x51,0x5e,0x00,0x90,0x30,0x58,0x81,
0x48,0x80,0x45,0x00,0x00,0x80,0x47,0x00,0x00,0x80,0x4c,0x00,0x00,0x80,0x51,0x00,
0x82,0x15,0x80,0x30,0x00,0x1f,0x90,0x43,0x51,0x00,0x90,0x47,0x51,0x00,0x90,0x4c,
0x51,0x00,0x90,0x4f,0x5f,0x00,0x90,0x24,0x57,0x83,0x10,0x80,0x43,0x00,0x00,0x80,
0x47,0x00,0x00,0x80,0x4c,0x00,0x00,0x80,0x4f,0x00,0x4a,0x80,0x24,0x00,0x1f,0x90,
0x30,0x58,0x83,0x7d,0x80,0x30,0x00,0x01,0x90,0x43,0x53,0x00,0x90,0x48,0x53,0x00,
0x90,0x4c,0x53,0x00,0x90,0x4f,0x61,0x00,0x90,0x24,0x51,0x00,0x90,0x30,0x61,0x83,
0x5f,0x80,0x24,0x00,0x1e,0x80,0x30,0x00,0x01,0x90,0x30,0x58,0x81,0x68,0x80,0x30,
0x00,0x0f,0x80,0x43,0x00,0x00,0x80,0x48,0x00,0x00,0x80,0x4c,0x00,0x00,0x80,0x4f,
0x00,0x01,0x90,0x42,0x50,0x00,0x90,0x45,0x50,0x00,0x90,0x4a,0x50,0x00,0x90,0x4e,
0x5e,0x00,0x90,0x26,0x4f,0x00,0x90,0x32,0x5a,0x85,0x5b,0x80,0x26,0x00,0x1e,0x80,
0x32,0x00,0x01,0x90,0x32,0x58,0x83,0x5c,0x80,0x32,0x00,0x1e,0x80,0x42,0x00,0x00,
0x80,0x45,0x00,0x00,0x80,0x4a,0x00,0x00,0x80,0x4e,0x00,0x05,0x90,0x43,0x55,0x00,
0x90,0x47,0x55,0x00,0x90,0x4c,0x55,0x00,0x90,0x4f,0x63,0x00,0x90,0x28,0x5c,0x81,
0x4c,0x80,0x47,0x00,0x1e,0x80,0x43,0x00,0x00,0x80,0x4c,0x00,0x00,0x80,0x4f,0x00,
0x82,0x15,0x80,0x28,0x00,0x1f,0x90,0x42,0x50,0x00,0x90,0x45,0x50,0x00,0x90,0x4a,
0x50,0x00,0x90,0x4e,0x5e,0x00,0x90,0x34,0x58,0x81,0x2a,0x80,0x45,0x00,0x1e,0x80,
0x42,0x00,0x00,0x80,0x4a,0x00,0x00,0x80,0x4e,0x00,0x82,0x15,0x80,0x34,0x00,0x1f,
0x90,0x40,0x51,0x00,0x90,0x43,0x51,0x00,0x90,0x47,0x51,0x00,0x90,0x4c,0x5f,0x00,
0x90,0x28,0x58,0x83,0x10,0x80,0x40,0x00,0x00,0x80,0x43,0x00,0x00,0x80,0x47,0x00,
0x00,0x80,0x4c,0x00,0x4a,0x80,0x28,0x00,0x1f,0x90,0x34,0x58,0x83,0x5f,0x80,0x34,
0x00,0x1f,0x90,0x40,0x53,0x00,0x90,0x43,0x53,0x00,0x90,0x47,0x53,0x00,0x90,0x4c,
0x61,0x00,0x90,0x28,0x5a,0x83,0x5f,0x80,0x28,0x00,0x1f,0x90,0x34,0x58,0x81,0x77,
0x80,0x40,0x00,0x00,0x80,0x43,0x00,0x00,0x80,0x47,0x00,0x00,0x80,0x4c,0x00,0x01,
0x90,0x42,0x50,0x00,0x90,0x47,0x50,0x00,0x90,0x4e,0x5e,0x81,0x62,0x80,0x34,0x00,
0x1f,0x90,0x28,0x58,0x83,0x5a,0x80,0x42,0x00,0x00,0x80,0x47,0x00,0x00,0x80,0x28,
0x00,0x1e,0x80,0x4e,0x00,0x01,0x90,0x4c,0x50,0x00,0x90,0x4f,0x5e,0x00,0x90,0x26,
0x57,0x81,0x68,0x80,0x4c,0x00,0x0f,0x80,0x4f,0x00,0x01,0x90,0x4e,0x50,0x00,0x90,
0x51,0x5e,0x81,0x64,0x80,0x26,0x00,0x0f,0x80,0x4e,0x00,0x0f,0x80,0x51,0x00,0x05,
0x90,0x47,0x55,0x00,0x90,0x4c,0x55,0x00,0x90,0x4f,0x55,0x00,0x90,0x53,0x63,0x00,
0x90,0x24,0x5b,0x81,0x6a,0x80,0x47,0x00,0x00,0x80,0x4c,0x00,0x00,0x80,0x4f,0x00,
0x00,0x80,0x53,0x00,0x82,0x15,0x80,0x24,0x00,0x1f,0x90,0x45,0x50,0x00,0x90,0x47,
0x50,0x00,0x90,0x4c,0x50,0x00,0x90,0x51,0x5e,0x00,0x90,0x30,0x58,0x81,0x48,0x80,
0x45,0x00,0x00,0x80,0x47,0x00,0x00,0x80,0x4c,0x00,0x00,0x80,0x51,0x00,0x82,0x15,
0x80,0x30,0x00,0x1f,0x90,0x43,0x51,0x00,0x90,0x47,0x51,0x00,0x90,0x4c,0x51,0x00,
0x90,0x4f,0x5f,0x00,0x90,0x24,0x57,0x83,0x10,0x80,0x43,0x00,0x00,0x80,0x47,0x00,
0x00,0x80,0x4c,0x00,0x00,0x80,0x4f,0x00,0x4a,0x80,0x24,0x00,0x1f,0x90,0x30,0x58,
0x83,0x7d,0x80,0x30,0x00,0x01,0x90,0x43,0x53,0x00,0x90,0x48,0x53,0x00,0x90,0x4c,
0x53,0x00,0x90,0x4f,0x61,0x00,0x90,0x24,0x51,0x00,0x90,0x30,0x61,0x83,0x5f,0x80,
0x24,0x00,0x1e,0x80,0x30,0x00,0x01,0x90,0x30,0x58,0x81,0x68,0x80,0x30,0x00,0x0f,
0x80,0x43,0x00,0x00,0x80,0x48,0x00,0x00,0x80,0x4c,0x00,0x00,0x80,0x4f,0x00,0x01,
0x90,0x42,0x50,0x00,0x90,0x45,0x50,0x00,0x90,0x4a,0x50,0x00,0x90,0x4e,0x5e,0x00,
0x90,0x26,0x4f,0x00,0x90,0x32,0x5a,0x84,0x01,0x80,0x26,0x00,0x00,0x80,0x32,0x00,
0x01,0x90,0x26,0x57,0x81,0x68,0x80,0x26,0x00,0x10,0x90,0x32,0x58,0x83,0x5c,0x80,
0x32,0x00,0x1e,0x80,0x42,0x00,0x00,0x80,0x45,0x00,0x00,0x80,0x4a,0x00,0x00,0x80,
0x4e,0x00,0x05,0x90,0x41,0x48,0x00,0x90,0x43,0x48,0x00,0x90,0x47,0x56,0x00,0x90,
0x29,0x50,0x83,0x7f,0x80,0x41,0x00,0x00,0x80,0x43,0x00,0x00,0x80,0x29,0x00,0x1e,
0x80,0x47,0x00,0x01,0x90,0x35,0x4b,0x81,0x79,0x90,0x41,0x43,0x00,0x90,0x43,0x43,
0x00,0x90,0x47,0x51,0x81,0x64,0x80,0x35,0x00,0x0f,0x80,0x41,0x00,0x00,0x80,0x43,
0x00,0x0f,0x80,0x47,0x00,0x01,0x90,0x29,0x4c,0x83,0x5a,0x80,0x29,0x00,0x1f,0x90,
0x41,0x43,0x00,0x90,0x45,0x43,0x00,0x90,0x48,0x51,0x00,0x90,0x35,0x4b,0x83,0x5f,
0x80,0x41,0x00,0x00,0x80,0x45,0x00,0x00,0x80,0x35,0x00,0x1e,0x80,0x48,0x00,0x01,
0x90,0x29,0x4e,0x83,0x5f,0x80,0x29,0x00,0x1f,0x90,0x35,0x4b,0x83,0x5a,0x80,0x35,
0x00,0x1f,0x90,0x29,0x4c,0x83,0x5a,0x80,0x29,0x00,0x1f,0x90,0x35,0x4b,0x83,0x5c,
0x80,0x35,0x00,0x23,0x90,0x41,0x48,0x00,0x90,0x47,0x48,0x00,0x90,0x4a,0x56,0x00,
0x90,0x29,0x50,0x83,0x7f,0x80,0x41,0x00,0x00,0x80,0x47,0x00,0x00,0x80,0x29,0x00,
0x1e,0x80,0x4a,0x00,0x01,0x90,0x35,0x4b,0x81,0x79,0x90,0x41,0x43,0x00,0x90,0x47,
0x43,0x00,0x90,0x4a,0x51,0x81,0x64,0x80,0x35,0x00,0x0f,0x80,0x41,0x00,0x00,0x80,
0x47,0x00,0x0f,0x80,0x4a,0x00,0x01,0x90,0x29,0x4c,0x83,0x5a,0x80,0x29,0x00,0x1f,
0x90,0x41,0x43,0x00,0x90,0x45,0x43,0x00,0x90,0x48,0x51,0x00,0x90,0x35,0x4b,0x83,
0x5f,0x80,0x41,0x00,0x00,0x80,0x45,0x00,0x00,0x80,0x35,0x00,0x1e,0x80,0x48,0x00,
0x01,0x90,0x29,0x4e,0x83,0x5f,0x80,0x29,0x00,0x1f,0x90,0x35,0x4b,0x83,0x5a,0x80,
0x35,0x00,0x1f,0x90,0x29,0x4c,0x83,0x5a,0x80,0x29,0x00,0x1f,0x90,0x35,0x4b,0x83,
0x5c,0x80,0x35,0x00,0x23,0x90,0x41,0x48,0x00,0x90,0x43,0x48,0x00,0x90,0x47,0x56,
0x00,0x90,0x29,0x50,0x83,0x7f,0x80,0x41,0x00,0x00,0x80,0x43,0x00,0x00,0x80,0x29,
0x00,0x1e,0x80,0x47,0x00,0x01,0x90,0x35,0x4b,0x81,0x79,0x90,0x41,0x43,0x00,0x90,
0x43,0x43,0x00,0x90,0x47,0x51,0x81,0x64,0x80,0x35,0x00,0x0f,0x80,0x41,0x00,0x00,
0x80,0x43,0x00,0x0f,0x80,0x47,0x00,0x01,0x90,0x29,0x4c,0x83,0x5a,0x80,0x29,0x00,
0x1f,0x90,0x41,0x43,0x00,0x90,0x45,0x43,0x00,0x90,0x48,0x51,0x00,0x90,0x35,0x4b,
0x83,0x5f,0x80,0x41,0x00,0x00,0x80,0x45,0x00,0x00,0x80,0x35,0x00,0x1e,0x80,0x48,
0x00,0x01,0x90,0x29,0x4e,0x83,0x5f,0x80,0x29,0x00,0x1f,0x90,0x35,0x4b,0x83,0x5a,
0x80,0x35,0x00,0x1f,0x90,0x29,0x4c,0x83,0x5a,0x80,0x29,0x00,0x1f,0x90,0x35,0x4b,
0x83,0x5c,0x80,0x35,0x00,0x23,0x90,0x41,0x48,0x00,0x90,0x47,0x48,0x00,0x90,0x4a,
0x56,0x00,0x90,0x29,0x50,0x83,0x7f,0x80,0x41,0x00,0x00,0x80,0x47,0x00,0x00,0x80,
0x29,0x00,0x1e,0x80,0x4a,0x00,0x01,0x90,0x35,0x4b,0x81,0x79,0x90,0x41,0x43,0x00,
0x90,0x47,0x43,0x00,0x90,0x4a,0x51,0x81,0x64,0x80,0x35,0x00,0x0f,0x80,0x41,0x00,
0x00,0x80,0x47,0x00,0x0f,0x80,0x4a,0x00,0x01,0x90,0x29,0x4c,0x83,0x5a,0x80,0x29,
0x00,0x1f,0x90,0x41,0x43,0x00,0x90,0x45,0x43,0x00,0x90,0x48,0x51,0x00,0x90,0x35,
0x4b,0x83,0x5f,0x80,0x41,0x00,0x00,0x80,0x45,0x00,0x00,0x80,0x35,0x00,0x1e,0x80,
0x48,0x00,0x01,0x90,0x29,0x4e,0x83,0x5f,0x80,0x29,0x00,0x1f,0x90,0x35,0x4b,0x83,
0x5a,0x80,0x35,0x00,0x1f,0x90,0x29,0x4c,0x83,0x5a,0x80,0x29,0x00,0x1f,0x90,0x35,
0x4b,0x83,0x5c,0x80,0x35,0x00,0x23,0x90,0x43,0x6b,0x00,0x90,0x47,0x6b,0x00,0x90,
0x4a,0x6b,0x00,0x90,0x51,0x79,0x00,0x90,0x2d,0x6b,0x00,0x90,0x39,0x75,0x86,0x16,
0x80,0x43,0x00,0x00,0x80,0x47,0x00,0x00,0x80,0x4a,0x00,0x00,0x80,0x51,0x00,0x00,
0x80,0x2d,0x00,0x00,0x80,0x39,0x00,0x01,0x90,0x43,0x66,0x00,0x90,0x47,0x66,0x00,
0x90,0x4a,0x66,0x00,0x90,0x51,0x70,0x00,0x90,0x2d,0x66,0x00,0x90,0x39,0x70,0x85,
0x5d,0x80,0x47,0x00,0x1e,0x80,0x43,0x00,0x00,0x80,0x4a,0x00,0x00,0x80,0x51,0x00,
0x00,0x80,0x2d,0x00,0x00,0x80,0x39,0x00,0x01,0x90,0x43,0x66,0x00,0x90,0x49,0x71,
0x00,0x90,0x4c,0x71,0x00,0x90,0x51,0x6c,0x00,0x90,0x2d,0x66,0x00,0x90,0x39,0x70,
0x83,0x5f,0x80,0x43,0x00,0x00,0x80,0x49,0x00,0x00,0x80,0x4c,0x00,0x00,0x80,0x2d,
0x00,0x1e,0x80,0x51,0x00,0x00,0x80,0x39,0x00,0x83,0x7f,0x90,0x39,0x58,0x74,0x80,
0x39,0x00,0x08,0x90,0x3d,0x58,0x74,0x80,0x3d,0x00,0x08,0x90,0x40,0x58,0x75,0x80,
0x40,0x00,0x08,0x90,0x45,0x58,0x7c,0x80,0x45,0x00,0x08,0x90,0x49,0x59,0x7c,0x80,
0x49,0x00,0x08,0x90,0x4c,0x58,0x75,0x80,0x4c,0x00,0x08,0x90,0x51,0x58,0x74,0x80,
0x51,0x00,0x08,0x90,0x55,0x58,0x74,0x80,0x55,0x00,0x08,0x90,0x51,0x58,0x73,0x80,
0x51,0x00,0x08,0x90,0x4c,0x58,0x75,0x80,0x4c,0x00,0x08,0x90,0x49,0x58,0x81,0x73,
0x80,0x49,0x00,0x14,0x90,0x45,0x6d,0x00,0x90,0x4a,0x55,0x00,0x90,0x4d,0x55,0x00,
0x90,0x51,0x5f,0x00,0x90,0x26,0x73,0x83,0x7f,0x80,0x26,0x00,0x1f,0x90,0x32,0x58,
0x83,0x5d,0x80,0x32,0x00,0x1f,0x90,0x26,0x4b,0x83,0x5a,0x80,0x26,0x00,0x1f,0x90,
0x32,0x4b,0x83,0x5f,0x80,0x32,0x00,0x1f,0x90,0x26,0x4d,0x83,0x5f,0x80,0x45,0x00,
0x00,0x80,0x4a,0x00,0x00,0x80,0x26,0x00,0x1e,0x80,0x4d,0x00,0x00,0x80,0x51,0x00,
0x01,0x90,0x40,0x43,0x00,0x90,0x4c,0x51,0x00,0x90,0x32,0x4b,0x83,0x5a,0x80,0x40,
0x00,0x00,0x80,0x32,0x00,0x1e,0x80,0x4c,0x00,0x01,0x90,0x41,0x44,0x00,0x90,0x4d,
0x52,0x00,0x90,0x26,0x4b,0x83,0x5a,0x80,0x41,0x00,0x00,0x80,0x26,0x00,0x1e,0x80,
0x4d,0x00,0x01,0x90,0x3e,0x43,0x00,0x90,0x43,0x43,0x00,0x90,0x4a,0x51,0x00,0x90,
0x2b,0x4b,0x83,0x5c,0x80,0x2b,0x00,0x23,0x90,0x1f,0x4d,0x83,0x7f,0x80,0x1f,0x00,
0x1f,0x90,0x2b,0x4b,0x83,0x5d,0x80,0x2b,0x00,0x1f,0x90,0x1f,0x49,0x83,0x5a,0x80,
0x1f,0x00,0x1f,0x90,0x2b,0x4b,0x83,0x5f,0x80,0x2b,0x00,0x1f,0x90,0x1f,0x4b,0x83,
0x5f,0x80,0x1f,0x00,0x1f,0x90,0x2b,0x4b,0x83,0x5a,0x80,0x2b,0x00,0x1e,0x80,0x3e,
0x00,0x00,0x80,0x43,0x00,0x00,0x80,0x4a,0x00,0x01,0x90,0x4a,0x4c,0x00,0x90,0x1f,
0x49,0x81,0x71,0x80,0x4a,0x00,0x10,0x90,0x4c,0x4b,0x81,0x59,0x80,0x1f,0x00,0x0f,
0x80,0x4c,0x00,0x10,0x90,0x4d,0x4b,0x00,0x90,0x21,0x48,0x81,0x68,0x80,0x4d,0x00,
0x10,0x90,0x4f,0x4b,0x81,0x64,0x80,0x21,0x00,0x0f,0x80,0x4f,0x00,0x14,0x90,0x45,
0x48,0x00,0x90,0x4a,0x48,0x00,0x90,0x4d,0x48,0x00,0x90,0x51,0x52,0x00,0x90,0x22,
0x4e,0x83,0x7f,0x80,0x22,0x00,0x1f,0x90,0x2e,0x4b,0x81,0x78,0x80,0x45,0x00,0x00,
0x80,0x4a,0x00,0x00,0x80,0x4d,0x00,0x00,0x80,0x51,0x00,0x01,0x90,0x45,0x43,0x00,
0x90,0x4a,0x43,0x00,0x90,0x4d,0x43,0x00,0x90,0x51,0x51,0x81,0x64,0x80,0x2e,0x00,
0x0f,0x80,0x45,0x00,0x00,0x80,0x4a,0x00,0x00,0x80,0x4d,0x00,0x0f,0x80,0x51,0x00,
0x01,0x90,0x22,0x4a,0x83,0x5a,0x80,0x22,0x00,0x1f,0x90,0x43,0x43,0x00,0x90,0x48,
0x43,0x00,0x90,0x4c,0x43,0x00,0x90,0x4f,0x51,0x00,0x90,0x30,0x4b,0x83,0x5f,0x80,
0x30,0x00,0x1f,0x90,0x24,0x4c,0x83,0x5f,0x80,0x43,0x00,0x00,0x80,0x48,0x00,0x00,
0x80,0x24,0x00,0x1e,0x80,0x4c,0x00,0x00,0x80,0x4f,0x00,0x01,0x90,0x41,0x43,0x00,
0x90,0x4d,0x51,0x00,0x90,0x30,0x4b,0x83,0x5a,0x80,0x41,0x00,0x00,0x80,0x30,0x00,
0x1e,0x80,0x4d,0x00,0x01,0x90,0x40,0x44,0x00,0x90,0x4c,0x52,0x00,0x90,0x24,0x4a,
0x83,0x5a,0x80,0x40,0x00,0x00,0x80,0x24,0x00,0x1e,0x80,0x4c,0x00,0x01,0x90,0x41,
0x43,0x00,0x90,0x4d,0x51,0x00,0x90,0x32,0x4b,0x83,0x5c,0x80,0x32,0x00,0x23,0x90,
0x26,0x4f,0x83,0x7f,0x80,0x26,0x00,0x1f,0x90,0x32,0x4b,0x83,0x5d,0x80,0x32,0x00,
0x1f,0x90,0x26,0x4b,0x83,0x5a,0x80,0x26,0x00,0x1f,0x90,0x32,0x4b,0x83,0x5f,0x80,
0x32,0x00,0x1e,0x80,0x41,0x00,0x00,0x80,0x4d,0x00,0x01,0x90,0x26,0x4d,0x83,0x5f,
0x80,0x26,0x00,0x1f,0x90,0x37,0x43,0x00,0x90,0x43,0x51,0x00,0x90,0x32,0x4b,0x83,
0x5a,0x80,0x32,0x00,0x1f,0x90,0x26,0x4b,0x83,0x5a,0x80,0x26,0x00,0x1e,0x80,0x37,
0x00,0x00,0x80,0x43,0x00,0x01,0x90,0x38,0x43,0x00,0x90,0x44,0x51,0x00,0x90,0x2d,
0x4b,0x83,0x5c,0x80,0x38,0x00,0x00,0x80,0x2d,0x00,0x1e,0x80,0x44,0x00,0x05,0x90,
0x39,0x48,0x00,0x90,0x3e,0x48,0x00,0x90,0x41,0x48,0x00,0x90,0x45,0x56,0x00,0x90,
0x26,0x4f,0x83,0x7f,0x80,0x26,0x00,0x1f,0x90,0x32,0x4b,0x83,0x5d,0x80,0x32,0x00,
0x1f,0x90,0x26,0x4b,0x83,0x5a,0x80,0x26,0x00,0x1e,0x80,0x39,0x00,0x00,0x80,0x3e,
0x00,0x00,0x80,0x41,0x00,0x00,0x80,0x45,0x00,0x01,0x90,0x39,0x43,0x00,0x90,0x3e,
0x43,0x00,0x90,0x41,0x43,0x00,0x90,0x45,0x51,0x00,0x90,0x32,0x4b,0x83,0x5f,0x80,
0x39,0x00,0x00,0x80,0x32,0x00,0x1e,0x80,0x3e,0x00,0x00,0x80,0x41,0x00,0x00,0x80,
0x45,0x00,0x01,0x90,0x3e,0x46,0x00,0x90,0x45,0x46,0x00,0x90,0x4a,0x54,0x00,0x90,
0x26,0x4d,0x83,0x5f,0x80,0x26,0x00,0x1f,0x90,0x32,0x4b,0x81,0x77,0x80,0x3e,0x00,
0x00,0x80,0x45,0x00,0x00,0x80,0x4a,0x00,0x01,0x90,0x40,0x43,0x00,0x90,0x4a,0x43,
0x00,0x90,0x4c,0x51,0x81,0x62,0x80,0x32,0x00,0x1f,0x90,0x26,0x4b,0x83,0x5a,0x80,
0x40,0x00,0x00,0x80,0x4a,0x00,0x00,0x80,0x26,0x00,0x1e,0x80,0x4c,0x00,0x01,0x90,
0x45,0x43,0x00,0x90,0x4d,0x43,0x00,0x90,0x51,0x51,0x00,0x90,0x2b,0x4b,0x83,0x5c,
0x80,0x2b,0x00,0x23,0x90,0x1f,0x4d,0x83,0x7f,0x80,0x45,0x00,0x00,0x80,0x4d,0x00,
0x00,0x80,0x1f,0x00,0x1e,0x80,0x51,0x00,0x01,0x90,0x43,0x43,0x00,0x90,0x4c,0x43,
0x00,0x90,0x4f,0x51,0x00,0x90,0x2b,0x4b,0x83,0x5d,0x80,0x2b,0x00,0x1f,0x90,0x1f,
0x49,0x83,0x5a,0x80,0x1f,0x00,0x1e,0x80,0x43,0x00,0x00,0x80,0x4c,0x00,0x00,0x80,
0x4f,0x00,0x01,0x90,0x41,0x43,0x00,0x90,0x4a,0x43,0x00,0x90,0x4d,0x51,0x00,0x90,
0x2b,0x4b,0x83,0x5f,0x80,0x2b,0x00,0x1f,0x90,0x1f,0x4b,0x83,0x5f,0x80,0x1f,0x00,
0x1f,0x90,0x2b,0x4b,0x83,0x5a,0x80,0x2b,0x00,0x1e,0x80,0x41,0x00,0x00,0x80,0x4a,
0x00,0x00,0x80,0x4d,0x00,0x01,0x90,0x4a,0x4c,0x00,0x90,0x1f,0x49,0x81,0x71,0x80,
0x4a,0x00,0x10,0x90,0x4c,0x4b,0x81,0x59,0x80,0x1f,0x00,0x0f,0x80,0x4c,0x00,0x10,
0x90,0x4d,0x4b,0x00,0x90,0x21,0x48,0x81,0x68,0x80,0x4d,0x00,0x10,0x90,0x4f,0x4b,
0x81,0x64,0x80,0x21,0x00,0x0f,0x80,0x4f,0x00,0x14,0x90,0x45,0x48,0x00,0x90,0x4a,
0x48,0x00,0x90,0x4d,0x48,0x00,0x90,0x51,0x52,0x00,0x90,0x22,0x4e,0x83,0x7f,0x80,
0x22,0x00,0x1f,0x90,0x2e,0x4b,0x81,0x78,0x80,0x45,0x00,0x00,0x80,0x4a,0x00,0x00,
0x80,0x4d,0x00,0x00,0x80,0x51,0x00,0x01,0x90,0x45,0x43,0x00,0x90,0x4a,0x43,0x00,
0x90,0x4d,0x43,0x00,0x90,0x51,0x51,0x81,0x64,0x80,0x2e,0x00,0x0f,0x80,0x45,0x00,
0x00,0x80,0x4a,0x00,0x00,0x80,0x4d,0x00,0x0f,0x80,0x51,0x00,0x01,0x90,0x22,0x4a,
0x83,0x5a,0x80,0x22,0x00,0x1f,0x90,0x43,0x43,0x00,0x90,0x48,0x43,0x00,0x90,0x4c,
0x43,0x00,0x90,0x4f,0x51,0x00,0x90,0x30,0x4b,0x83,0x5f,0x80,0x30,0x00,0x1f,0x90,
0x24,0x4c,0x83,0x5f,0x80,0x43,0x00,0x00,0x80,0x48,0x00,0x00,0x80,0x24,0x00,0x1e,
0x80,0x4c,0x00,0x00,0x80,0x4f,0x00,0x01,0x90,0x41,0x43,0x00,0x90,0x4a,0x43,0x00,
0x90,0x4d,0x51,0x00,0x90,0x30,0x4b,0x83,0x5a,0x80,0x41,0x00,0x00,0x80,0x4a,0x00,
0x00,0x80,0x30,0x00,0x1e,0x80,0x4d,0x00,0x01,0x90,0x40,0x44,0x00,0x90,0x48,0x44,
0x00,0x90,0x4c,0x52,0x00,0x90,0x24,0x4a,0x83,0x5a,0x80,0x24,0x00,0x1f,0x90,0x30,
0x4b,0x83,0x5c,0x80,0x30,0x00,0x1e,0x80,0x40,0x00,0x00,0x80,0x48,0x00,0x00,0x80,
0x4c,0x00,0x05,0x90,0x41,0x55,0x00,0x90,0x45,0x55,0x00,0x90,0x4a,0x55,0x00,0x90,
0x4d,0x63,0x00,0x90,0x32,0x5d,0x81,0x4c,0x80,0x45,0x00,0x1e,0x80,0x41,0x00,0x00,
0x80,0x4a,0x00,0x00,0x80,0x4d,0x00,0x81,0x49,0x80,0x32,0x00,0x6b,0x90,0x40,0x50,
0x00,0x90,0x43,0x50,0x00,0x90,0x48,0x50,0x00,0x90,0x4c,0x5e,0x81,0x2a,0x80,0x43,
0x00,0x1e,0x80,0x40,0x00,0x00,0x80,0x48,0x00,0x00,0x80,0x4c,0x00,0x82,0x34,0x90,
0x3e,0x51,0x00,0x90,0x41,0x51,0x00,0x90,0x45,0x51,0x00,0x90,0x4a,0x5f,0x00,0x90,
0x32,0x59,0x83,0x10,0x80,0x3e,0x00,0x00,0x80,0x41,0x00,0x00,0x80,0x45,0x00,0x00,
0x80,0x4a,0x00,0x00,0x80,0x32,0x00,0x84,0x67,0x90,0x3e,0x53,0x00,0x90,0x41,0x53,
0x00,0x90,0x45,0x53,0x00,0x90,0x4a,0x61,0x00,0x90,0x32,0x5b,0x83,0x10,0x80,0x32,
0x00,0x82,0x65,0x80,0x3e,0x00,0x00,0x80,0x41,0x00,0x00,0x80,0x45,0x00,0x00,0x80,
0x4a,0x00,0x01,0x90,0x40,0x50,0x00,0x90,0x45,0x50,0x00,0x90,0x4c,0x5e,0x82,0x01,
0x90,0x32,0x59,0x83,0x0d,0x80,0x32,0x00,0x4d,0x80,0x40,0x00,0x00,0x80,0x45,0x00,
0x1e,0x80,0x4c,0x00,0x01,0x90,0x4a,0x50,0x00,0x90,0x4d,0x5e,0x81,0x68,0x80,0x4a,
0x00,0x0f,0x80,0x4d,0x00,0x01,0x90,0x4c,0x50,0x00,0x90,0x4f,0x5e,0x81,0x73,0x80,
0x4c,0x00,0x0f,0x80,0x4f,0x00,0x05,0x90,0x45,0x55,0x00,0x90,0x4a,0x55,0x00,0x90,
0x4d,0x55,0x00,0x90,0x51,0x63,0x00,0x90,0x32,0x5d,0x81,0x6a,0x80,0x45,0x00,0x00,
0x80,0x4a,0x00,0x00,0x80,0x4d,0x00,0x00,0x80,0x51,0x00,0x81,0x49,0x80,0x32,0x00,
0x6b,0x90,0x43,0x50,0x00,0x90,0x45,0x50,0x00,0x90,0x4a,0x50,0x00,0x90,0x4f,0x5e,
0x81,0x48,0x80,0x43,0x00,0x00,0x80,0x45,0x00,0x00,0x80,0x4a,0x00,0x00,0x80,0x4f,
0x00,0x82,0x34,0x90,0x41,0x51,0x00,0x90,0x45,0x51,0x00,0x90,0x4a,0x51,0x00,0x90,
0x4d,0x5f,0x00,0x90,0x32,0x59,0x83,0x10,0x80,0x41,0x00,0x00,0x80,0x45,0x00,0x00,
0x80,0x4a,0x00,0x00,0x80,0x4d,0x00,0x00,0x80,0x32,0x00,0x84,0x67,0x90,0x41,0x53,
0x00,0x90,0x46,0x53,0x00,0x90,0x4a,0x53,0x00,0x90,0x4d,0x61,0x00,0x90,0x22,0x51,
0x00,0x90,0x2e,0x61,0x85,0x75,0x80,0x41,0x00,0x00,0x80,0x46,0x00,0x00,0x80,0x4a,
0x00,0x00,0x80,0x4d,0x00,0x00,0x80,0x22,0x00,0x00,0x80,0x2e,0x00,0x01,0x90,0x40,
0x50,0x00,0x90,0x43,0x50,0x00,0x90,0x48,0x50,0x00,0x90,0x4c,0x5e,0x00,0x90,0x24,
0x4e,0x00,0x90,0x30,0x5e,0x89,0x74,0x80,0x40,0x00,0x00,0x80,0x43,0x00,0x00,0x80,
0x48,0x00,0x00,0x80,0x4c,0x00,0x00,0x80,0x24,0x00,0x00,0x80,0x30,0x00,0x05,0x90,
0x41,0x55,0x00,0x90,0x45,0x55,0x00,0x90,0x4a,0x55,0x00,0x90,0x4d,0x63,0x00,0x90,
0x32,0x5d,0x81,0x4c,0x80,0x45,0x00,0x1e,0x80,0x41,0x00,0x00,0x80,0x4a,0x00,0x00,
0x80,0x4d,0x00,0x81,0x49,0x80,0x32,0x00,0x6b,0x90,0x40,0x50,0x00,0x90,0x43,0x50,
0x00,0x90,0x48,0x50,0x00,0x90,0x4c,0x5e,0x81,0x2a,0x80,0x43,0x00,0x1e,0x80,0x40,
0x00,0x00,0x80,0x48,0x00,0x00,0x80,0x4c,0x00,0x82,0x34,0x90,0x3e,0x51,0x00,0x90,
0x41,0x51,0x00,0x90,0x45,0x51,0x00,0x90,0x4a,0x5f,0x00,0x90,0x32,0x59,0x83,0x10,
0x80,0x3e,0x00,0x00,0x80,0x41,0x00,0x00,0x80,0x45,0x00,0x00,0x80,0x4a,0x00,0x00,
0x80,0x32,0x00,0x84,0x67,0x90,0x3e,0x53,0x00,0x90,0x41,0x53,0x00,0x90,0x45,0x53,
0x00,0x90,0x4a,0x61,0x00,0x90,0x32,0x5b,0x83,0x10,0x80,0x32,0x00,0x82,0x65,0x80,
0x3e,0x00,0x00,0x80,0x41,0x00,0x00,0x80,0x45,0x00,0x00,0x80,0x4a,0x00,0x01,0x90,
0x40,0x50,0x00,0x90,0x45,0x50,0x00,0x90,0x4c,0x5e,0x82,0x01,0x90,0x32,0x59,0x83,
0x0d,0x80,0x32,0x00,0x4d,0x80,0x40,0x00,0x00,0x80,0x45,0x00,0x1e,0x80,0x4c,0x00,
0x01,0x90,0x4a,0x50,0x00,0x90,0x4d,0x5e,0x81,0x68,0x80,0x4a,0x00,0x0f,0x80,0x4d,
0x00,0x01,0x90,0x4c,0x50,0x00,0x90,0x4f,0x5e,0x81,0x73,0x80,0x4c,0x00,0x0f,0x80,
0x4f,0x00,0x05,0x90,0x45,0x55,0x00,0x90,0x4a,0x55,0x00,0x90,0x4d,0x55,0x00,0x90,
0x51,0x63,0x00,0x90,0x32,0x5d,0x81,0x6a,0x80,0x45,0x00,0x00,0x80,0x4a,0x00,0x00,
0x80,0x4d,0x00,0x00,0x80,0x51,0x00,0x81,0x49,0x80,0x32,0x00,0x6b,0x90,0x43,0x50,
0x00,0x90,0x45,0x50,0x00,0x90,0x4a,0x50,0x00,0x90,0x4f,0x5e,0x81,0x48,0x80,0x43,
0x00,0x00,0x80,0x45,0x00,0x00,0x80,0x4a,0x00,0x00,0x80,0x4f,0x00,0x82,0x34,0x90,
0x41,0x51,0x00,0x90,0x45,0x51,0x00,0x90,0x4a,0x51,0x00,0x90,0x4d,0x5f,0x00,0x90,
0x32,0x59,0x83,0x10,0x80,0x41,0x00,0x00,0x80,0x45,0x00,0x00,0x80,0x4a,0x00,0x00,
0x80,0x4d,0x00,0x00,0x80,0x32,0x00,0x84,0x67,0x90,0x41,0x53,0x00,0x90,0x46,0x53,
0x00,0x90,0x4a,0x53,0x00,0x90,0x4d,0x61,0x00,0x90,0x22,0x51,0x00,0x90,0x2e,0x61,
0x85,0x75,0x80,0x41,0x00,0x00,0x80,0x46,0x00,0x00,0x80,0x4a,0x00,0x00,0x80,0x4d,
0x00,0x00,0x80,0x22,0x00,0x00,0x80,0x2e,0x00,0x01,0x90,0x40,0x50,0x00,0x90,0x43,
0x50,0x00,0x90,0x48,0x50,0x00,0x90,0x4c,0x5e,0x00,0x90,0x24,0x4e,0x00,0x90,0x30,
0x5e,0x85,0x79,0x80,0x24,0x00,0x00,0x80,0x30,0x00,0x01,0x90,0x24,0x56,0x81,0x68,
0x80,0x24,0x00,0x10,0x90,0x26,0x57,0x81,0x73,0x80,0x26,0x00,0x0f,0x80,0x40,0x00,
0x00,0x80,0x43,0x00,0x00,0x80,0x48,0x00,0x00,0x80,0x4c,0x00,0x05,0x90,0x43,0x55,
0x00,0x90,0x47,0x55,0x00,0x90,0x4c,0x55,0x00,0x90,0x4f,0x63,0x00,0x90,0x28,0x5c,
0x81,0x4c,0x80,0x47,0x00,0x1e,0x80,0x43,0x00,0x00,0x80,0x4c,0x00,0x00,0x80,0x4f,
0x00,0x82,0x15,0x80,0x28,0x00,0x1f,0x90,0x42,0x50,0x00,0x90,0x45,0x50,0x00,0x90,
0x4a,0x50,0x00,0x90,0x4e,0x5e,0x00,0x90,0x34,0x58,0x81,0x2a,0x80,0x45,0x00,0x1e,
0x80,0x42,0x00,0x00,0x80,0x4a,0x00,0x00,0x80,0x4e,0x00,0x82,0x15,0x80,0x34,0x00,
0x1f,0x90,0x40,0x51,0x00,0x90,0x43,0x51,0x00,0x90,0x47,0x51,0x00,0x90,0x4c,0x5f,
0x00,0x90,0x28,0x58,0x83,0x10,0x80,0x40,0x00,0x00,0x80,0x43,0x00,0x00,0x80,0x47,
0x00,0x00,0x80,0x4c,0x00,0x4a,0x80,0x28,0x00,0x1f,0x90,0x34,0x58,0x83,0x5f,0x80,
0x34,0x00,0x1f,0x90,0x40,0x53,0x00,0x90,0x43,0x53,0x00,0x90,0x47,0x53,0x00,0x90,
0x4c,0x61,0x00,0x90,0x28,0x5a,0x83,0x5f,0x80,0x28,0x00,0x1f,0x90,0x34,0x58,0x81,
0x77,0x80,0x40,0x00,0x00,0x80,0x43,0x00,0x00,0x80,0x47,0x00,0x00,0x80,0x4c,0x00,
0x01,0x90,0x42,0x50,0x00,0x90,0x47,0x50,0x00,0x90,0x4e,0x5e,0x81,0x62,0x80,0x34,
0x00,0x1f,0x90,0x28,0x58,0x83,0x5a,0x80,0x42,0x00,0x00,0x80,0x47,0x00,0x00,0x80,
0x28,0x00,0x1e,0x80,0x4e,0x00,0x01,0x90,0x4c,0x50,0x00,0x90,0x4f,0x5e,0x00,0x90,
0x26,0x57,0x81,0x68,0x80,0x4c,0x00,0x0f,0x80,0x4f,0x00,0x01,0x90,0x4e,0x50,0x00,
0x90,0x51,0x5e,0x81,0x64,0x80,0x26,0x00,0x0f,0x80,0x4e,0x00,0x0f,0x80,0x51,0x00,
0x05,0x90,0x47,0x55,0x00,0x90,0x4c,0x55,0x00,0x90,0x4f,0x55,0x00,0x90,0x53,0x63,
0x00,0x90,0x24,0x5b,0x81,0x6a,0x80,0x47,0x00,0x00,0x80,0x4c,0x00,0x00,0x80,0x4f,
0x00,0x00,0x80,0x53,0x00,0x82,0x15,0x80,0x24,0x00,0x1f,0x90,0x45,0x50,0x00,0x90,
0x47,0x50,0x00,0x90,0x4c,0x50,0x00,0x90,0x51,0x5e,0x00,0x90,0x30,0x58,0x81,0x48,
0x80,0x45,0x00,0x00,0x80,0x47,0x00,0x00,0x80,0x4c,0x00,0x00,0x80,0x51,0x00,0x82,
0x15,0x80,0x30,0x00,0x1f,0x90,0x43,0x51,0x00,0x90,0x47,0x51,0x00,0x90,0x4c,0x51,
0x00,0x90,0x4f,0x5f,0x00,0x90,0x24,0x57,0x83,0x10,0x80,0x43,0x00,0x00,0x80,0x47,
0x00,0x00,0x80,0x4c,0x00,0x00,0x80,0x4f,0x00,0x4a,0x80,0x24,0x00,0x1f,0x90,0x30,
0x58,0x83,0x7d,0x80,0x30,0x00,0x01,0x90,0x43,0x53,0x00,0x90,0x48,0x53,0x00,0x90,
0x4c,0x53,0x00,0x90,0x4f,0x61,0x00,0x90,0x24,0x51,0x00,0x90,0x30,0x61,0x83,0x5f,
0x80,0x24,0x00,0x1e,0x80,0x30,0x00,0x01,0x90,0x30,0x58,0x81,0x68,0x80,0x30,0x00,
0x0f,0x80,0x43,0x00,0x00,0x80,0x48,0x00,0x00,0x80,0x4c,0x00,0x00,0x80,0x4f,0x00,
0x01,0x90,0x42,0x50,0x00,0x90,0x45,0x50,0x00,0x90,0x4a,0x50,0x00,0x90,0x4e,0x5e,
0x00,0x90,0x26,0x4f,0x00,0x90,0x32,0x5a,0x85,0x5b,0x80,0x26,0x00,0x1e,0x80,0x32,
0x00,0x01,0x90,0x32,0x58,0x83,0x5c,0x80,0x32,0x00,0x1e,0x80,0x42,0x00,0x00,0x80,
0x45,0x00,0x00,0x80,0x4a,0x00,0x00,0x80,0x4e,0x00,0x05,0x90,0x43,0x55,0x00,0x90,
0x47,0x55,0x00,0x90,0x4c,0x55,0x00,0x90,0x4f,0x63,0x00,0x90,0x28,0x5c,0x81,0x4c,
0x80,0x47,0x00,0x1e,0x80,0x43,0x00,0x00,0x80,0x4c,0x00,0x00,0x80,0x4f,0x00,0x82,
0x15,0x80,0x28,0x00,0x1f,0x90,0x42,0x50,0x00,0x90,0x45,0x50,0x00,0x90,0x4a,0x50,
0x00,0x90,0x4e,0x5e,0x00,0x90,0x34,0x58,0x81,0x2a,0x80,0x45,0x00,0x1e,0x80,0x42,
0x00,0x00,0x80,0x4a,0x00,0x00,0x80,0x4e,0x00,0x82,0x15,0x80,0x34,0x00,0x1f,0x90,
0x40,0x51,0x00,0x90,0x43,0x51,0x00,0x90,0x47,0x51,0x00,0x90,0x4c,0x5f,0x00,0x90,
0x28,0x58,0x83,0x10,0x80,0x40,0x00,0x00,0x80,0x43,0x00,0x00,0x80,0x47,0x00,0x00,
0x80,0x4c,0x00,0x4a,0x80,0x28,0x00,0x1f,0x90,0x34,0x58,0x83,0x5f,0x80,0x34,0x00,
0x1f,0x90,0x40,0x53,0x00,0x90,0x43,0x53,0x00,0x90,0x47,0x53,0x00,0x90,0x4c,0x61,
0x00,0x90,0x28,0x5a,0x83,0x5f,0x80,0x28,0x00,0x1f,0x90,0x34,0x58,0x81,0x77,0x80,
0x40,0x00,0x00,0x80,0x43,0x00,0x00,0x80,0x47,0x00,0x00,0x80,0x4c,0x00,0x01,0x90,
0x42,0x50,0x00,0x90,0x47,0x50,0x00,0x90,0x4e,0x5e,0x81,0x62,0x80,0x34,0x00,0x1f,
0x90,0x28,0x58,0x83,0x5a,0x80,0x42,0x00,0x00,0x80,0x47,0x00,0x00,0x80,0x28,0x00,
0x1e,0x80,0x4e,0x00,0x01,0x90,0x4c,0x50,0x00,0x90,0x4f,0x5e,0x00,0x90,0x26,0x57,
0x81,0x68,0x80,0x4c,0x00,0x0f,0x80,0x4f,0x00,0x01,0x90,0x4e,0x50,0x00,0x90,0x51,
0x5e,0x81,0x64,0x80,0x26,0x00,0x0f,0x80,0x4e,0x00,0x0f,0x80,0x51,0x00,0x05,0x90,
0x47,0x55,0x00,0x90,0x4c,0x55,0x00,0x90,0x4f,0x55,0x00,0x90,0x53,0x63,0x00,0x90,
0x24,0x5b,0x81,0x6a,0x80,0x47,0x00,0x00,0x80,0x4c,0x00,0x00,0x80,0x4f,0x00,0x00,
0x80,0x53,0x00,0x82,0x15,0x80,0x24,0x00,0x1f,0x90,0x45,0x50,0x00,0x90,0x47,0x50,
0x00,0x90,0x4c,0x50,0x00,0x90,0x51,0x5e,0x00,0x90,0x30,0x58,0x81,0x48,0x80,0x45,
0x00,0x00,0x80,0x47,0x00,0x00,0x80,0x4c,0x00,0x00,0x80,0x51,0x00,0x82,0x15,0x80,
0x30,0x00,0x1f,0x90,0x43,0x51,0x00,0x90,0x47,0x51,0x00,0x90,0x4c,0x51,0x00,0x90,
0x4f,0x5f,0x00,0x90,0x24,0x57,0x83,0x10,0x80,0x43,0x00,0x00,0x80,0x47,0x00,0x00,
0x80,0x4c,0x00,0x00,0x80,0x4f,0x00,0x4a,0x80,0x24,0x00,0x1f,0x90,0x30,0x58,0x83,
0x7d,0x80,0x30,0x00,0x01,0x90,0x43,0x53,0x00,0x90,0x48,0x53,0x00,0x90,0x4c,0x53,
0x00,0x90,0x4f,0x61,0x00,0x90,0x24,0x51,0x00,0x90,0x30,0x61,0x83,0x5f,0x80,0x24,
0x00,0x1e,0x80,0x30,0x00,0x01,0x90,0x30,0x58,0x81,0x68,0x80,0x30,0x00,0x0f,0x80,
0x43,0x00,0x00,0x80,0x48,0x00,0x00,0x80,0x4c,0x00,0x00,0x80,0x4f,0x00,0x01,0x90,
0x42,0x50,0x00,0x90,0x45,0x50,0x00,0x90,0x4a,0x50,0x00,0x90,0x4e,0x5e,0x00,0x90,
0x26,0x4f,0x00,0x90,0x32,0x5a,0x84,0x01,0x80,0x26,0x00,0x00,0x80,0x32,0x00,0x01,
0x90,0x26,0x57,0x81,0x68,0x80,0x26,0x00,0x10,0x90,0x32,0x58,0x83,0x5c,0x80,0x32,
0x00,0x1e,0x80,0x42,0x00,0x00,0x80,0x45,0x00,0x00,0x80,0x4a,0x00,0x00,0x80,0x4e,
0x00,0x05,0x90,0x41,0x48,0x00,0x90,0x43,0x48,0x00,0x90,0x47,0x56,0x00,0x90,0x29,
0x50,0x83,0x7f,0x80,0x41,0x00,0x00,0x80,0x43,0x00,0x00,0x80,0x29,0x00,0x1e,0x80,
0x47,0x00,0x01,0x90,0x35,0x4b,0x81,0x79,0x90,0x41,0x43,0x00,0x90,0x43,0x43,0x00,
0x90,0x47,0x51,0x81,0x64,0x80,0x35,0x00,0x0f,0x80,0x41,0x00,0x00,0x80,0x43,0x00,
0x0f,0x80,0x47,0x00,0x01,0x90,0x29,0x4c,0x83,0x5a,0x80,0x29,0x00,0x1f,0x90,0x41,
0x43,0x00,0x90,0x45,0x43,0x00,0x90,0x48,0x51,0x00,0x90,0x35,0x4b,0x83,0x5f,0x80,
0x41,0x00,0x00,0x80,0x45,0x00,0x00,0x80,0x35,0x00,0x1e,0x80,0x48,0x00,0x01,0x90,
0x29,0x4e,0x83,0x5f,0x80,0x29,0x00,0x1f,0x90,0x35,0x4b,0x83,0x5a,0x80,0x35,0x00,
0x1f,0x90,0x29,0x4c,0x83,0x5a,0x80,0x29,0x00,0x1f,0x90,0x35,0x4b,0x83,0x5c,0x80,
0x35,0x00,0x23,0x90,0x41,0x48,0x00,0x90,0x47,0x48,0x00,0x90,0x4a,0x56,0x00,0x90,
0x29,0x50,0x83,0x7f,0x80,0x41,0x00,0x00,0x80,0x47,0x00,0x00,0x80,0x29,0x00,0x1e,
0x80,0x4a,0x00,0x01,0x90,0x35,0x4b,0x81,0x79,0x90,0x41,0x43,0x00,0x90,0x47,0x43,
0x00,0x90,0x4a,0x51,0x81,0x64,0x80,0x35,0x00,0x0f,0x80,0x41,0x00,0x00,0x80,0x47,
0x00,0x0f,0x80,0x4a,0x00,0x01,0x90,0x29,0x4c,0x83,0x5a,0x80,0x29,0x00,0x1f,0x90,
0x41,0x43,0x00,0x90,0x45,0x43,0x00,0x90,0x48,0x51,0x00,0x90,0x35,0x4b,0x83,0x5f,
0x80,0x41,0x00,0x00,0x80,0x45,0x00,0x00,0x80,0x35,0x00,0x1e,0x80,0x48,0x00,0x01,
0x90,0x29,0x4e,0x83,0x5f,0x80,0x29,0x00,0x1f,0x90,0x35,0x4b,0x83,0x5a,0x80,0x35,
0x00,0x1f,0x90,0x29,0x4c,0x83,0x5a,0x80,0x29,0x00,0x1f,0x90,0x35,0x4b,0x83,0x5c,
0x80,0x35,0x00,0x23,0x90,0x41,0x48,0x00,0x90,0x43,0x48,0x00,0x90,0x47,0x56,0x00,
0x90,0x29,0x50,0x83,0x7f,0x80,0x41,0x00,0x00,0x80,0x43,0x00,0x00,0x80,0x29,0x00,
0x1e,0x80,0x47,0x00,0x01,0x90,0x35,0x4b,0x81,0x79,0x90,0x41,0x43,0x00,0x90,0x43,
0x43,0x00,0x90,0x47,0x51,0x81,0x64,0x80,0x35,0x00,0x0f,0x80,0x41,0x00,0x00,0x80,
0x43,0x00,0x0f,0x80,0x47,0x00,0x01,0x90,0x29,0x4c,0x83,0x5a,0x80,0x29,0x00,0x1f,
0x90,0x41,0x43,0x00,0x90,0x45,0x43,0x00,0x90,0x48,0x51,0x00,0x90,0x35,0x4b,0x83,
0x5f,0x80,0x41,0x00,0x00,0x80,0x45,0x00,0x00,0x80,0x35,0x00,0x1e,0x80,0x48,0x00,
0x01,0x90,0x29,0x4e,0x83,0x5f,0x80,0x29,0x00,0x1f,0x90,0x35,0x4b,0x83,0x5a,0x80,
0x35,0x00,0x1f,0x90,0x29,0x4c,0x83,0x5a,0x80,0x29,0x00,0x1f,0x90,0x35,0x4b,0x83,
0x5c,0x80,0x35,0x00,0x23,0x90,0x41,0x48,0x00,0x90,0x47,0x48,0x00,0x90,0x4a,0x56,
0x00,0x90,0x29,0x50,0x83,0x7f,0x80,0x41,0x00,0x00,0x80,0x47,0x00,0x00,0x80,0x29,
0x00,0x1e,0x80,0x4a,0x00,0x01,0x90,0x35,0x4b,0x81,0x79,0x90,0x41,0x43,0x00,0x90,
0x47,0x43,0x00,0x90,0x4a,0x51,0x81,0x64,0x80,0x35,0x00,0x0f,0x80,0x41,0x00,0x00,
0x80,0x47,0x00,0x0f,0x80,0x4a,0x00,0x01,0x90,0x29,0x4c,0x83,0x5a,0x80,0x29,0x00,
0x1f,0x90,0x41,0x43,0x00,0x90,0x45,0x43,0x00,0x90,0x48,0x51,0x00,0x90,0x35,0x4b,
0x83,0x5f,0x80,0x41,0x00,0x00,0x80,0x45,0x00,0x00,0x80,0x35,0x00,0x1e,0x80,0x48,
0x00,0x01,0x90,0x29,0x4e,0x83,0x5f,0x80,0x29,0x00,0x1f,0x90,0x35,0x4b,0x83,0x5a,
0x80,0x35,0x00,0x1f,0x90,0x29,0x4c,0x83,0x5a,0x80,0x29,0x00,0x1f,0x90,0x35,0x4b,
0x83,0x5c,0x80,0x35,0x00,0x23,0x90,0x40,0x48,0x00,0x90,0x43,0x48,0x00,0x90,0x47,
0x56,0x00,0x90,0x28,0x4f,0x83,0x7f,0x80,0x40,0x00,0x00,0x80,0x43,0x00,0x00,0x80,
0x28,0x00,0x1e,0x80,0x47,0x00,0x01,0x90,0x34,0x4b,0x81,0x79,0x90,0x40,0x43,0x00,
0x90,0x43,0x43,0x00,0x90,0x47,0x51,0x81,0x64,0x80,0x34,0x00,0x0f,0x80,0x40,0x00,
0x00,0x80,0x43,0x00,0x0f,0x80,0x47,0x00,0x01,0x90,0x28,0x4b,0x83,0x5a,0x80,0x28,
0x00,0x1f,0x90,0x40,0x43,0x00,0x90,0x45,0x43,0x00,0x90,0x49,0x51,0x00,0x90,0x34,
0x4b,0x83,0x5f,0x80,0x40,0x00,0x00,0x80,0x45,0x00,0x00,0x80,0x34,0x00,0x1e,0x80,
0x49,0x00,0x01,0x90,0x4c,0x46,0x00,0x90,0x58,0x54,0x00,0x90,0x28,0x4d,0x81,0x4a,
0x80,0x4c,0x00,0x00,0x80,0x58,0x00,0x82,0x15,0x80,0x28,0x00,0x1f,0x90,0x34,0x4b,
0x81,0x78,0x90,0x4c,0x43,0x00,0x90,0x58,0x4d,0x66,0x80,0x4c,0x00,0x00,0x80,0x58,
0x00,0x7c,0x80,0x34,0x00,0x1f,0x90,0x28,0x4b,0x83,0x5a,0x80,0x28,0x00,0x1f,0x90,
0x4c,0x43,0x00,0x90,0x58,0x51,0x00,0x90,0x34,0x4b,0x81,0x47,0x80,0x4c,0x00,0x00,
0x80,0x58,0x00,0x82,0x15,0x80,0x34,0x00,0x23,0x90,0x40,0x48,0x00,0x90,0x47,0x48,
0x00,0x90,0x4a,0x56,0x00,0x90,0x28,0x4f,0x83,0x7f,0x80,0x40,0x00,0x00,0x80,0x47,
0x00,0x00,0x80,0x28,0x00,0x1e,0x80,0x4a,0x00,0x01,0x90,0x34,0x4b,0x81,0x79,0x90,
0x40,0x43,0x00,0x90,0x47,0x43,0x00,0x90,0x4a,0x51,0x81,0x64,0x80,0x34,0x00,0x0f,
0x80,0x40,0x00,0x00,0x80,0x47,0x00,0x0f,0x80,0x4a,0x00,0x01,0x90,0x28,0x4b,0x83,
0x5a,0x80,0x28,0x00,0x1f,0x90,0x40,0x43,0x00,0x90,0x45,0x43,0x00,0x90,0x49,0x51,
0x00,0x90,0x34,0x4b,0x83,0x5f,0x80,0x40,0x00,0x00,0x80,0x45,0x00,0x00,0x80,0x34,
0x00,0x1e,0x80,0x49,0x00,0x01,0x90,0x4c,0x46,0x00,0x90,0x58,0x54,0x00,0x90,0x28,
0x4d,0x81,0x4a,0x80,0x4c,0x00,0x00,0x80,0x58,0x00,0x82,0x15,0x80,0x28,0x00,0x1f,
0x90,0x34,0x4b,0x81,0x78,0x90,0x4c,0x43,0x00,0x90,0x58,0x4d,0x66,0x80,0x4c,0x00,
0x00,0x80,0x58,0x00,0x7c,0x80,0x34,0x00,0x1f,0x90,0x28,0x4b,0x83,0x5a,0x80,0x28,
0x00,0x1f,0x90,0x4c,0x43,0x00,0x90,0x58,0x51,0x00,0x90,0x34,0x4b,0x81,0x47,0x80,
0x4c,0x00,0x00,0x80,0x58,0x00,0x82,0x15,0x80,0x34,0x00,0x23,0x90,0x40,0x48,0x00,
0x90,0x43,0x48,0x00,0x90,0x47,0x56,0x00,0x90,0x28,0x4f,0x83,0x7f,0x80,0x40,0x00,
0x00,0x80,0x43,0x00,0x00,0x80,0x28,0x00,0x1e,0x80,0x47,0x00,0x01,0x90,0x34,0x4b,
0x81,0x79,0x90,0x40,0x43,0x00,0x90,0x43,0x43,0x00,0x90,0x47,0x51,0x81,0x64,0x80,
0x34,0x00,0x0f,0x80,0x40,0x00,0x00,0x80,0x43,0x00,0x0f,0x80,0x47,0x00,0x01,0x90,
0x28,0x4b,0x83,0x5a,0x80,0x28,0x00,0x1f,0x90,0x40,0x43,0x00,0x90,0x45,0x43,0x00,
0x90,0x49,0x51,0x00,0x90,0x34,0x4b,0x83,0x5f,0x80,0x40,0x00,0x00,0x80,0x45,0x00,
0x00,0x80,0x34,0x00,0x1e,0x80,0x49,0x00,0x01,0x90,0x4c,0x46,0x00,0x90,0x58,0x54,
0x00,0x90,0x28,0x4d,0x81,0x4a,0x80,0x4c,0x00,0x00,0x80,0x58,0x00,0x82,0x15,0x80,
0x28,0x00,0x1f,0x90,0x34,0x4b,0x81,0x78,0x90,0x4c,0x43,0x00,0x90,0x58,0x4d,0x66,
0x80,0x4c,0x00,0x00,0x80,0x58,0x00,0x7c,0x80,0x34,0x00,0x1f,0x90,0x28,0x4b,0x83,
0x5a,0x80,0x28,0x00,0x1f,0x90,0x4c,0x43,0x00,0x90,0x58,0x51,0x00,0x90,0x34,0x4b,
0x81,0x47,0x80,0x4c,0x00,0x00,0x80,0x58,0x00,0x82,0x15,0x80,0x34,0x00,0x23,0x90,
0x40,0x5b,0x00,0x90,0x47,0x5b,0x00,0x90,0x4a,0x5b,0x00,0x90,0x4c,0x69,0x00,0x90,
0x28,0x62,0x83,0x7f,0x80,0x40,0x00,0x00,0x80,0x47,0x00,0x00,0x80,0x4a,0x00,0x00,
0x80,0x28,0x00,0x1e,0x80,0x4c,0x00,0x81,0x7a,0x90,0x40,0x56,0x00,0x90,0x47,0x61,
0x00,0x90,0x4a,0x61,0x00,0x90,0x4c,0x5c,0x00,0x90,0x28,0x5d,0x81,0x73,0x80,0x40,
0x00,0x00,0x80,0x47,0x00,0x00,0x80,0x4a,0x00,0x00,0x80,0x28,0x00,0x0f,0x80,0x4c,
0x00,0x83,0x7a,0x90,0x40,0x56,0x00,0x90,0x45,0x61,0x00,0x90,0x49,0x61,0x00,0x90,
0x4c,0x5c,0x00,0x90,0x28,0x5d,0x83,0x5f,0x80,0x40,0x00,0x00,0x80,0x45,0x00,0x00,
0x80,0x49,0x00,0x00,0x80,0x28,0x00,0x1e,0x80,0x4c,0x00,0x83,0x7f,0x90,0x39,0x4b,
0x74,0x80,0x39,0x00,0x08,0x90,0x3d,0x4b,0x74,0x80,0x3d,0x00,0x08,0x90,0x40,0x4b,
0x75,0x80,0x40,0x00,0x08,0x90,0x45,0x4b,0x7c,0x80,0x45,0x00,0x08,0x90,0x49,0x4c,
0x7c,0x80,0x49,0x00,0x08,0x90,0x4c,0x4b,0x75,0x80,0x4c,0x00,0x08,0x90,0x51,0x4b,
0x74,0x80,0x51,0x00,0x08,0x90,0x55,0x4b,0x74,0x80,0x55,0x00,0x08,0x90,0x51,0x4b,
0x00,0x90,0x2f,0x4b,0x73,0x80,0x51,0x00,0x08,0x90,0x4c,0x4b,0x75,0x80,0x4c,0x00,
0x08,0x90,0x49,0x4b,0x81,0x64,0x80,0x2f,0x00,0x0f,0x80,0x49,0x00,0x12,0xff,0x2f,
0x00,
};
